G75*
%MOIN*%
%OFA0B0*%
%FSLAX25Y25*%
%IPPOS*%
%LPD*%
%AMOC8*
5,1,8,0,0,1.08239X$1,22.5*
%
%ADD10C,0.00800*%
%ADD11C,0.00500*%
%ADD12C,0.00700*%
%ADD13R,0.06200X0.02400*%
%ADD14C,0.00200*%
%ADD15C,0.00300*%
%ADD16C,0.00100*%
D10*
X0015226Y0032090D02*
X0019951Y0032090D01*
X0017589Y0036227D01*
X0015226Y0032090D01*
X0032156Y0050606D02*
X0032158Y0050675D01*
X0032164Y0050743D01*
X0032174Y0050811D01*
X0032188Y0050878D01*
X0032206Y0050945D01*
X0032227Y0051010D01*
X0032253Y0051074D01*
X0032282Y0051136D01*
X0032314Y0051196D01*
X0032350Y0051255D01*
X0032390Y0051311D01*
X0032432Y0051365D01*
X0032478Y0051416D01*
X0032527Y0051465D01*
X0032578Y0051511D01*
X0032632Y0051553D01*
X0032688Y0051593D01*
X0032746Y0051629D01*
X0032807Y0051661D01*
X0032869Y0051690D01*
X0032933Y0051716D01*
X0032998Y0051737D01*
X0033065Y0051755D01*
X0033132Y0051769D01*
X0033200Y0051779D01*
X0033268Y0051785D01*
X0033337Y0051787D01*
X0033406Y0051785D01*
X0033474Y0051779D01*
X0033542Y0051769D01*
X0033609Y0051755D01*
X0033676Y0051737D01*
X0033741Y0051716D01*
X0033805Y0051690D01*
X0033867Y0051661D01*
X0033927Y0051629D01*
X0033986Y0051593D01*
X0034042Y0051553D01*
X0034096Y0051511D01*
X0034147Y0051465D01*
X0034196Y0051416D01*
X0034242Y0051365D01*
X0034284Y0051311D01*
X0034324Y0051255D01*
X0034360Y0051196D01*
X0034392Y0051136D01*
X0034421Y0051074D01*
X0034447Y0051010D01*
X0034468Y0050945D01*
X0034486Y0050878D01*
X0034500Y0050811D01*
X0034510Y0050743D01*
X0034516Y0050675D01*
X0034518Y0050606D01*
X0034516Y0050537D01*
X0034510Y0050469D01*
X0034500Y0050401D01*
X0034486Y0050334D01*
X0034468Y0050267D01*
X0034447Y0050202D01*
X0034421Y0050138D01*
X0034392Y0050076D01*
X0034360Y0050015D01*
X0034324Y0049957D01*
X0034284Y0049901D01*
X0034242Y0049847D01*
X0034196Y0049796D01*
X0034147Y0049747D01*
X0034096Y0049701D01*
X0034042Y0049659D01*
X0033986Y0049619D01*
X0033928Y0049583D01*
X0033867Y0049551D01*
X0033805Y0049522D01*
X0033741Y0049496D01*
X0033676Y0049475D01*
X0033609Y0049457D01*
X0033542Y0049443D01*
X0033474Y0049433D01*
X0033406Y0049427D01*
X0033337Y0049425D01*
X0033268Y0049427D01*
X0033200Y0049433D01*
X0033132Y0049443D01*
X0033065Y0049457D01*
X0032998Y0049475D01*
X0032933Y0049496D01*
X0032869Y0049522D01*
X0032807Y0049551D01*
X0032746Y0049583D01*
X0032688Y0049619D01*
X0032632Y0049659D01*
X0032578Y0049701D01*
X0032527Y0049747D01*
X0032478Y0049796D01*
X0032432Y0049847D01*
X0032390Y0049901D01*
X0032350Y0049957D01*
X0032314Y0050015D01*
X0032282Y0050076D01*
X0032253Y0050138D01*
X0032227Y0050202D01*
X0032206Y0050267D01*
X0032188Y0050334D01*
X0032174Y0050401D01*
X0032164Y0050469D01*
X0032158Y0050537D01*
X0032156Y0050606D01*
X0050734Y0037214D02*
X0050734Y0033014D01*
X0051900Y0033014D01*
X0051967Y0033016D01*
X0052033Y0033022D01*
X0052099Y0033031D01*
X0052164Y0033044D01*
X0052229Y0033061D01*
X0052292Y0033082D01*
X0052354Y0033106D01*
X0052415Y0033134D01*
X0052474Y0033165D01*
X0052531Y0033199D01*
X0052586Y0033237D01*
X0052639Y0033278D01*
X0052689Y0033321D01*
X0052737Y0033368D01*
X0052782Y0033417D01*
X0052824Y0033468D01*
X0052863Y0033522D01*
X0052899Y0033578D01*
X0052932Y0033636D01*
X0052962Y0033696D01*
X0052987Y0033758D01*
X0053010Y0033820D01*
X0053029Y0033884D01*
X0053044Y0033949D01*
X0053055Y0034015D01*
X0053063Y0034081D01*
X0053067Y0034148D01*
X0053067Y0034214D01*
X0053063Y0034281D01*
X0053055Y0034347D01*
X0053044Y0034413D01*
X0053029Y0034478D01*
X0053010Y0034542D01*
X0052987Y0034604D01*
X0052962Y0034666D01*
X0052932Y0034726D01*
X0052899Y0034784D01*
X0052863Y0034840D01*
X0052824Y0034894D01*
X0052782Y0034945D01*
X0052737Y0034994D01*
X0052689Y0035041D01*
X0052639Y0035084D01*
X0052586Y0035125D01*
X0052531Y0035163D01*
X0052474Y0035197D01*
X0052415Y0035228D01*
X0052354Y0035256D01*
X0052292Y0035280D01*
X0052229Y0035301D01*
X0052164Y0035318D01*
X0052099Y0035331D01*
X0052033Y0035340D01*
X0051967Y0035346D01*
X0051900Y0035348D01*
X0050734Y0035348D01*
X0051900Y0035348D02*
X0051960Y0035350D01*
X0052019Y0035356D01*
X0052078Y0035365D01*
X0052137Y0035379D01*
X0052194Y0035396D01*
X0052250Y0035416D01*
X0052305Y0035440D01*
X0052358Y0035468D01*
X0052409Y0035499D01*
X0052458Y0035533D01*
X0052505Y0035571D01*
X0052549Y0035611D01*
X0052591Y0035654D01*
X0052629Y0035699D01*
X0052665Y0035747D01*
X0052698Y0035797D01*
X0052727Y0035849D01*
X0052753Y0035903D01*
X0052776Y0035959D01*
X0052794Y0036016D01*
X0052810Y0036073D01*
X0052821Y0036132D01*
X0052829Y0036191D01*
X0052833Y0036251D01*
X0052833Y0036311D01*
X0052829Y0036371D01*
X0052821Y0036430D01*
X0052810Y0036489D01*
X0052794Y0036546D01*
X0052776Y0036603D01*
X0052753Y0036659D01*
X0052727Y0036713D01*
X0052698Y0036765D01*
X0052665Y0036815D01*
X0052629Y0036863D01*
X0052591Y0036908D01*
X0052549Y0036951D01*
X0052505Y0036991D01*
X0052458Y0037029D01*
X0052409Y0037063D01*
X0052358Y0037094D01*
X0052305Y0037122D01*
X0052250Y0037146D01*
X0052194Y0037166D01*
X0052137Y0037183D01*
X0052078Y0037197D01*
X0052019Y0037206D01*
X0051960Y0037212D01*
X0051900Y0037214D01*
X0050734Y0037214D01*
X0055100Y0034064D02*
X0057200Y0034064D01*
X0057550Y0033014D02*
X0056150Y0037214D01*
X0054750Y0033014D01*
X0060350Y0033014D02*
X0060350Y0037214D01*
X0059184Y0037214D02*
X0061517Y0037214D01*
X0063084Y0037214D02*
X0065417Y0037214D01*
X0064250Y0037214D02*
X0064250Y0033014D01*
X0062586Y0051512D02*
X0059205Y0051512D01*
X0063686Y0055455D02*
X0063686Y0057569D01*
X0062586Y0061512D02*
X0059205Y0061512D01*
X0056396Y0062812D02*
X0056398Y0062856D01*
X0056404Y0062900D01*
X0056414Y0062943D01*
X0056427Y0062985D01*
X0056444Y0063026D01*
X0056465Y0063065D01*
X0056489Y0063102D01*
X0056516Y0063137D01*
X0056546Y0063169D01*
X0056579Y0063199D01*
X0056615Y0063225D01*
X0056652Y0063249D01*
X0056692Y0063268D01*
X0056733Y0063285D01*
X0056776Y0063297D01*
X0056819Y0063306D01*
X0056863Y0063311D01*
X0056907Y0063312D01*
X0056951Y0063309D01*
X0056995Y0063302D01*
X0057038Y0063291D01*
X0057080Y0063277D01*
X0057120Y0063259D01*
X0057159Y0063237D01*
X0057195Y0063213D01*
X0057229Y0063185D01*
X0057261Y0063154D01*
X0057290Y0063120D01*
X0057316Y0063084D01*
X0057338Y0063046D01*
X0057357Y0063006D01*
X0057372Y0062964D01*
X0057384Y0062922D01*
X0057392Y0062878D01*
X0057396Y0062834D01*
X0057396Y0062790D01*
X0057392Y0062746D01*
X0057384Y0062702D01*
X0057372Y0062660D01*
X0057357Y0062618D01*
X0057338Y0062578D01*
X0057316Y0062540D01*
X0057290Y0062504D01*
X0057261Y0062470D01*
X0057229Y0062439D01*
X0057195Y0062411D01*
X0057159Y0062387D01*
X0057120Y0062365D01*
X0057080Y0062347D01*
X0057038Y0062333D01*
X0056995Y0062322D01*
X0056951Y0062315D01*
X0056907Y0062312D01*
X0056863Y0062313D01*
X0056819Y0062318D01*
X0056776Y0062327D01*
X0056733Y0062339D01*
X0056692Y0062356D01*
X0056652Y0062375D01*
X0056615Y0062399D01*
X0056579Y0062425D01*
X0056546Y0062455D01*
X0056516Y0062487D01*
X0056489Y0062522D01*
X0056465Y0062559D01*
X0056444Y0062598D01*
X0056427Y0062639D01*
X0056414Y0062681D01*
X0056404Y0062724D01*
X0056398Y0062768D01*
X0056396Y0062812D01*
X0077628Y0064780D02*
X0077628Y0067535D01*
X0080384Y0067535D01*
X0065333Y0097350D02*
X0063364Y0097350D01*
X0065333Y0097350D02*
X0065333Y0099319D01*
X0065333Y0123941D02*
X0065333Y0125909D01*
X0063364Y0125909D01*
X0038742Y0125909D02*
X0036774Y0123941D01*
X0035412Y0126091D02*
X0035414Y0126160D01*
X0035420Y0126228D01*
X0035430Y0126296D01*
X0035444Y0126363D01*
X0035462Y0126430D01*
X0035483Y0126495D01*
X0035509Y0126559D01*
X0035538Y0126621D01*
X0035570Y0126681D01*
X0035606Y0126740D01*
X0035646Y0126796D01*
X0035688Y0126850D01*
X0035734Y0126901D01*
X0035783Y0126950D01*
X0035834Y0126996D01*
X0035888Y0127038D01*
X0035944Y0127078D01*
X0036002Y0127114D01*
X0036063Y0127146D01*
X0036125Y0127175D01*
X0036189Y0127201D01*
X0036254Y0127222D01*
X0036321Y0127240D01*
X0036388Y0127254D01*
X0036456Y0127264D01*
X0036524Y0127270D01*
X0036593Y0127272D01*
X0036662Y0127270D01*
X0036730Y0127264D01*
X0036798Y0127254D01*
X0036865Y0127240D01*
X0036932Y0127222D01*
X0036997Y0127201D01*
X0037061Y0127175D01*
X0037123Y0127146D01*
X0037183Y0127114D01*
X0037242Y0127078D01*
X0037298Y0127038D01*
X0037352Y0126996D01*
X0037403Y0126950D01*
X0037452Y0126901D01*
X0037498Y0126850D01*
X0037540Y0126796D01*
X0037580Y0126740D01*
X0037616Y0126681D01*
X0037648Y0126621D01*
X0037677Y0126559D01*
X0037703Y0126495D01*
X0037724Y0126430D01*
X0037742Y0126363D01*
X0037756Y0126296D01*
X0037766Y0126228D01*
X0037772Y0126160D01*
X0037774Y0126091D01*
X0037772Y0126022D01*
X0037766Y0125954D01*
X0037756Y0125886D01*
X0037742Y0125819D01*
X0037724Y0125752D01*
X0037703Y0125687D01*
X0037677Y0125623D01*
X0037648Y0125561D01*
X0037616Y0125500D01*
X0037580Y0125442D01*
X0037540Y0125386D01*
X0037498Y0125332D01*
X0037452Y0125281D01*
X0037403Y0125232D01*
X0037352Y0125186D01*
X0037298Y0125144D01*
X0037242Y0125104D01*
X0037184Y0125068D01*
X0037123Y0125036D01*
X0037061Y0125007D01*
X0036997Y0124981D01*
X0036932Y0124960D01*
X0036865Y0124942D01*
X0036798Y0124928D01*
X0036730Y0124918D01*
X0036662Y0124912D01*
X0036593Y0124910D01*
X0036524Y0124912D01*
X0036456Y0124918D01*
X0036388Y0124928D01*
X0036321Y0124942D01*
X0036254Y0124960D01*
X0036189Y0124981D01*
X0036125Y0125007D01*
X0036063Y0125036D01*
X0036002Y0125068D01*
X0035944Y0125104D01*
X0035888Y0125144D01*
X0035834Y0125186D01*
X0035783Y0125232D01*
X0035734Y0125281D01*
X0035688Y0125332D01*
X0035646Y0125386D01*
X0035606Y0125442D01*
X0035570Y0125500D01*
X0035538Y0125561D01*
X0035509Y0125623D01*
X0035483Y0125687D01*
X0035462Y0125752D01*
X0035444Y0125819D01*
X0035430Y0125886D01*
X0035420Y0125954D01*
X0035414Y0126022D01*
X0035412Y0126091D01*
X0022904Y0119504D02*
X0022904Y0115567D01*
X0016211Y0115567D02*
X0016211Y0119504D01*
X0011992Y0099813D02*
X0011520Y0099813D01*
X0011520Y0098113D01*
X0011992Y0098113D01*
X0012034Y0098115D01*
X0012076Y0098121D01*
X0012118Y0098130D01*
X0012158Y0098143D01*
X0012197Y0098160D01*
X0012234Y0098180D01*
X0012269Y0098203D01*
X0012303Y0098230D01*
X0012333Y0098259D01*
X0012361Y0098291D01*
X0012386Y0098325D01*
X0012408Y0098361D01*
X0012426Y0098399D01*
X0012441Y0098439D01*
X0012452Y0098480D01*
X0012460Y0098522D01*
X0012464Y0098564D01*
X0012464Y0098606D01*
X0012460Y0098648D01*
X0012452Y0098690D01*
X0012441Y0098731D01*
X0012426Y0098771D01*
X0012408Y0098809D01*
X0012386Y0098845D01*
X0012361Y0098879D01*
X0012333Y0098911D01*
X0012303Y0098940D01*
X0012269Y0098967D01*
X0012234Y0098990D01*
X0012197Y0099010D01*
X0012158Y0099027D01*
X0012118Y0099040D01*
X0012076Y0099049D01*
X0012034Y0099055D01*
X0011992Y0099057D01*
X0011520Y0099057D01*
X0011992Y0099057D02*
X0012029Y0099059D01*
X0012066Y0099064D01*
X0012102Y0099073D01*
X0012137Y0099086D01*
X0012170Y0099102D01*
X0012202Y0099121D01*
X0012232Y0099143D01*
X0012259Y0099168D01*
X0012284Y0099195D01*
X0012306Y0099225D01*
X0012325Y0099257D01*
X0012341Y0099290D01*
X0012354Y0099325D01*
X0012363Y0099361D01*
X0012368Y0099398D01*
X0012370Y0099435D01*
X0012368Y0099472D01*
X0012363Y0099509D01*
X0012354Y0099545D01*
X0012341Y0099580D01*
X0012325Y0099613D01*
X0012306Y0099645D01*
X0012284Y0099675D01*
X0012259Y0099702D01*
X0012232Y0099727D01*
X0012202Y0099749D01*
X0012170Y0099768D01*
X0012137Y0099784D01*
X0012102Y0099797D01*
X0012066Y0099806D01*
X0012029Y0099811D01*
X0011992Y0099813D01*
X0009942Y0098821D02*
X0009423Y0099104D01*
X0009611Y0099812D02*
X0009662Y0099810D01*
X0009712Y0099805D01*
X0009762Y0099796D01*
X0009811Y0099783D01*
X0009859Y0099767D01*
X0009906Y0099748D01*
X0009951Y0099725D01*
X0009994Y0099699D01*
X0010036Y0099670D01*
X0009422Y0099104D02*
X0009392Y0099124D01*
X0009363Y0099147D01*
X0009337Y0099172D01*
X0009314Y0099199D01*
X0009293Y0099229D01*
X0009275Y0099260D01*
X0009260Y0099293D01*
X0009248Y0099328D01*
X0009240Y0099363D01*
X0009235Y0099399D01*
X0009233Y0099435D01*
X0009235Y0099472D01*
X0009240Y0099509D01*
X0009249Y0099545D01*
X0009262Y0099580D01*
X0009278Y0099613D01*
X0009297Y0099645D01*
X0009319Y0099675D01*
X0009344Y0099702D01*
X0009371Y0099727D01*
X0009401Y0099749D01*
X0009433Y0099768D01*
X0009466Y0099784D01*
X0009501Y0099797D01*
X0009537Y0099806D01*
X0009574Y0099811D01*
X0009611Y0099813D01*
X0009186Y0098349D02*
X0009225Y0098313D01*
X0009265Y0098280D01*
X0009308Y0098249D01*
X0009352Y0098221D01*
X0009398Y0098196D01*
X0009446Y0098174D01*
X0009495Y0098156D01*
X0009545Y0098140D01*
X0009596Y0098128D01*
X0009648Y0098120D01*
X0009701Y0098115D01*
X0009753Y0098113D01*
X0009753Y0098112D02*
X0009790Y0098114D01*
X0009827Y0098119D01*
X0009863Y0098128D01*
X0009898Y0098141D01*
X0009931Y0098157D01*
X0009963Y0098176D01*
X0009993Y0098198D01*
X0010020Y0098223D01*
X0010045Y0098250D01*
X0010067Y0098280D01*
X0010086Y0098312D01*
X0010102Y0098345D01*
X0010115Y0098380D01*
X0010124Y0098416D01*
X0010129Y0098453D01*
X0010131Y0098490D01*
X0010129Y0098526D01*
X0010124Y0098562D01*
X0010116Y0098597D01*
X0010104Y0098632D01*
X0010089Y0098665D01*
X0010071Y0098696D01*
X0010050Y0098726D01*
X0010027Y0098753D01*
X0010001Y0098778D01*
X0009972Y0098801D01*
X0009942Y0098821D01*
X0007881Y0098585D02*
X0007881Y0099813D01*
X0006936Y0099813D02*
X0006936Y0098585D01*
X0006937Y0098585D02*
X0006939Y0098543D01*
X0006945Y0098501D01*
X0006954Y0098459D01*
X0006967Y0098419D01*
X0006984Y0098380D01*
X0007004Y0098343D01*
X0007027Y0098308D01*
X0007054Y0098274D01*
X0007083Y0098244D01*
X0007115Y0098216D01*
X0007149Y0098191D01*
X0007185Y0098169D01*
X0007223Y0098151D01*
X0007263Y0098136D01*
X0007304Y0098125D01*
X0007346Y0098117D01*
X0007388Y0098113D01*
X0007430Y0098113D01*
X0007472Y0098117D01*
X0007514Y0098125D01*
X0007555Y0098136D01*
X0007595Y0098151D01*
X0007633Y0098169D01*
X0007669Y0098191D01*
X0007703Y0098216D01*
X0007735Y0098244D01*
X0007764Y0098274D01*
X0007791Y0098308D01*
X0007814Y0098343D01*
X0007834Y0098380D01*
X0007851Y0098419D01*
X0007864Y0098459D01*
X0007873Y0098501D01*
X0007879Y0098543D01*
X0007881Y0098585D01*
X0036774Y0099319D02*
X0036774Y0097350D01*
X0038742Y0097350D01*
X0125423Y0101354D02*
X0125423Y0103520D01*
X0131374Y0098238D02*
X0132247Y0098238D01*
X0131810Y0098238D02*
X0131810Y0094313D01*
X0131374Y0094313D02*
X0132247Y0094313D01*
X0134103Y0095185D02*
X0134103Y0097366D01*
X0134105Y0097423D01*
X0134110Y0097480D01*
X0134120Y0097536D01*
X0134133Y0097592D01*
X0134149Y0097646D01*
X0134169Y0097700D01*
X0134193Y0097752D01*
X0134220Y0097802D01*
X0134250Y0097850D01*
X0134283Y0097897D01*
X0134319Y0097941D01*
X0134358Y0097983D01*
X0134400Y0098022D01*
X0134444Y0098058D01*
X0134491Y0098091D01*
X0134539Y0098121D01*
X0134589Y0098148D01*
X0134641Y0098172D01*
X0134695Y0098192D01*
X0134749Y0098208D01*
X0134805Y0098221D01*
X0134861Y0098231D01*
X0134918Y0098236D01*
X0134975Y0098238D01*
X0135847Y0098238D01*
X0137665Y0097366D02*
X0138755Y0098238D01*
X0138755Y0094313D01*
X0137665Y0094313D02*
X0139845Y0094313D01*
X0135847Y0094313D02*
X0134975Y0094313D01*
X0134918Y0094315D01*
X0134861Y0094320D01*
X0134805Y0094330D01*
X0134749Y0094343D01*
X0134695Y0094359D01*
X0134641Y0094379D01*
X0134589Y0094403D01*
X0134539Y0094430D01*
X0134491Y0094460D01*
X0134444Y0094493D01*
X0134400Y0094529D01*
X0134358Y0094568D01*
X0134319Y0094610D01*
X0134283Y0094654D01*
X0134250Y0094701D01*
X0134220Y0094749D01*
X0134193Y0094799D01*
X0134169Y0094851D01*
X0134149Y0094905D01*
X0134133Y0094959D01*
X0134120Y0095015D01*
X0134110Y0095071D01*
X0134105Y0095128D01*
X0134103Y0095185D01*
X0139872Y0101354D02*
X0142037Y0101354D01*
X0142037Y0103520D01*
X0142037Y0115803D02*
X0142037Y0117969D01*
X0139872Y0117969D01*
X0127589Y0117969D02*
X0125423Y0117969D01*
X0125423Y0115803D01*
X0137470Y0067535D02*
X0154400Y0067535D01*
X0154400Y0010055D01*
X0137470Y0010055D01*
X0080384Y0010055D02*
X0077628Y0010055D01*
X0077628Y0012811D01*
D11*
X0050323Y0052625D02*
X0050323Y0053114D01*
X0050506Y0052869D02*
X0049895Y0052869D01*
X0050140Y0053725D01*
X0049174Y0053725D02*
X0048929Y0053725D01*
X0048929Y0053724D02*
X0048900Y0053722D01*
X0048871Y0053717D01*
X0048842Y0053708D01*
X0048816Y0053696D01*
X0048790Y0053681D01*
X0048767Y0053663D01*
X0048746Y0053642D01*
X0048728Y0053619D01*
X0048713Y0053593D01*
X0048701Y0053567D01*
X0048692Y0053538D01*
X0048687Y0053509D01*
X0048685Y0053480D01*
X0048685Y0052869D01*
X0048687Y0052840D01*
X0048692Y0052811D01*
X0048701Y0052782D01*
X0048713Y0052756D01*
X0048728Y0052730D01*
X0048746Y0052707D01*
X0048767Y0052686D01*
X0048790Y0052668D01*
X0048816Y0052653D01*
X0048842Y0052641D01*
X0048871Y0052632D01*
X0048900Y0052627D01*
X0048929Y0052625D01*
X0049174Y0052625D01*
X0047564Y0062383D02*
X0047258Y0062383D01*
X0047564Y0062383D02*
X0047598Y0062385D01*
X0047632Y0062391D01*
X0047665Y0062400D01*
X0047697Y0062413D01*
X0047727Y0062430D01*
X0047755Y0062450D01*
X0047780Y0062473D01*
X0047803Y0062498D01*
X0047823Y0062526D01*
X0047840Y0062556D01*
X0047853Y0062588D01*
X0047862Y0062621D01*
X0047868Y0062655D01*
X0047870Y0062689D01*
X0047868Y0062723D01*
X0047862Y0062757D01*
X0047853Y0062790D01*
X0047840Y0062822D01*
X0047823Y0062852D01*
X0047803Y0062880D01*
X0047780Y0062905D01*
X0047755Y0062928D01*
X0047727Y0062948D01*
X0047697Y0062965D01*
X0047665Y0062978D01*
X0047632Y0062987D01*
X0047598Y0062993D01*
X0047564Y0062995D01*
X0047625Y0062994D02*
X0047380Y0062994D01*
X0047625Y0062995D02*
X0047654Y0062997D01*
X0047683Y0063002D01*
X0047712Y0063011D01*
X0047738Y0063023D01*
X0047764Y0063038D01*
X0047787Y0063056D01*
X0047808Y0063077D01*
X0047826Y0063100D01*
X0047841Y0063126D01*
X0047853Y0063152D01*
X0047862Y0063181D01*
X0047867Y0063210D01*
X0047869Y0063239D01*
X0047867Y0063268D01*
X0047862Y0063297D01*
X0047853Y0063326D01*
X0047841Y0063352D01*
X0047826Y0063378D01*
X0047808Y0063401D01*
X0047787Y0063422D01*
X0047764Y0063440D01*
X0047738Y0063455D01*
X0047712Y0063467D01*
X0047683Y0063476D01*
X0047654Y0063481D01*
X0047625Y0063483D01*
X0047258Y0063483D01*
X0046537Y0063483D02*
X0046292Y0063483D01*
X0046263Y0063481D01*
X0046234Y0063476D01*
X0046205Y0063467D01*
X0046179Y0063455D01*
X0046153Y0063440D01*
X0046130Y0063422D01*
X0046109Y0063401D01*
X0046091Y0063378D01*
X0046076Y0063352D01*
X0046064Y0063326D01*
X0046055Y0063297D01*
X0046050Y0063268D01*
X0046048Y0063239D01*
X0046048Y0062628D01*
X0046050Y0062599D01*
X0046055Y0062570D01*
X0046064Y0062541D01*
X0046076Y0062515D01*
X0046091Y0062489D01*
X0046109Y0062466D01*
X0046130Y0062445D01*
X0046153Y0062427D01*
X0046179Y0062412D01*
X0046205Y0062400D01*
X0046234Y0062391D01*
X0046263Y0062386D01*
X0046292Y0062384D01*
X0046292Y0062383D02*
X0046537Y0062383D01*
X0036827Y0063233D02*
X0036216Y0063233D01*
X0036521Y0063233D02*
X0036521Y0064333D01*
X0036216Y0064088D01*
X0035339Y0064333D02*
X0035339Y0063538D01*
X0035337Y0063504D01*
X0035331Y0063470D01*
X0035322Y0063437D01*
X0035309Y0063405D01*
X0035292Y0063375D01*
X0035272Y0063347D01*
X0035249Y0063322D01*
X0035224Y0063299D01*
X0035196Y0063279D01*
X0035166Y0063262D01*
X0035134Y0063249D01*
X0035101Y0063240D01*
X0035067Y0063234D01*
X0035033Y0063232D01*
X0034999Y0063234D01*
X0034965Y0063240D01*
X0034932Y0063249D01*
X0034900Y0063262D01*
X0034870Y0063279D01*
X0034842Y0063299D01*
X0034817Y0063322D01*
X0034794Y0063347D01*
X0034774Y0063375D01*
X0034757Y0063405D01*
X0034744Y0063437D01*
X0034735Y0063470D01*
X0034729Y0063504D01*
X0034727Y0063538D01*
X0034728Y0063538D02*
X0034728Y0064333D01*
X0034798Y0067957D02*
X0034798Y0069057D01*
X0035104Y0069057D01*
X0035138Y0069055D01*
X0035172Y0069049D01*
X0035205Y0069040D01*
X0035237Y0069027D01*
X0035267Y0069010D01*
X0035295Y0068990D01*
X0035320Y0068967D01*
X0035343Y0068942D01*
X0035363Y0068914D01*
X0035380Y0068884D01*
X0035393Y0068852D01*
X0035402Y0068819D01*
X0035408Y0068785D01*
X0035410Y0068751D01*
X0035408Y0068717D01*
X0035402Y0068683D01*
X0035393Y0068650D01*
X0035380Y0068618D01*
X0035363Y0068588D01*
X0035343Y0068560D01*
X0035320Y0068535D01*
X0035295Y0068512D01*
X0035267Y0068492D01*
X0035237Y0068475D01*
X0035205Y0068462D01*
X0035172Y0068453D01*
X0035138Y0068447D01*
X0035104Y0068445D01*
X0035104Y0068446D02*
X0034798Y0068446D01*
X0035165Y0068446D02*
X0035409Y0067957D01*
X0036216Y0067957D02*
X0036582Y0067957D01*
X0036582Y0067958D02*
X0036611Y0067960D01*
X0036640Y0067965D01*
X0036669Y0067974D01*
X0036695Y0067986D01*
X0036721Y0068001D01*
X0036744Y0068019D01*
X0036765Y0068040D01*
X0036783Y0068063D01*
X0036798Y0068089D01*
X0036810Y0068115D01*
X0036819Y0068144D01*
X0036824Y0068173D01*
X0036826Y0068202D01*
X0036827Y0068201D02*
X0036827Y0068324D01*
X0036826Y0068324D02*
X0036824Y0068353D01*
X0036819Y0068382D01*
X0036810Y0068411D01*
X0036798Y0068437D01*
X0036783Y0068463D01*
X0036765Y0068486D01*
X0036744Y0068507D01*
X0036721Y0068525D01*
X0036695Y0068540D01*
X0036669Y0068552D01*
X0036640Y0068561D01*
X0036611Y0068566D01*
X0036582Y0068568D01*
X0036216Y0068568D01*
X0036216Y0069057D01*
X0036827Y0069057D01*
X0034631Y0072028D02*
X0034631Y0072089D01*
X0034630Y0072089D02*
X0034628Y0072118D01*
X0034623Y0072147D01*
X0034614Y0072176D01*
X0034602Y0072202D01*
X0034587Y0072228D01*
X0034569Y0072251D01*
X0034548Y0072272D01*
X0034525Y0072290D01*
X0034499Y0072305D01*
X0034473Y0072317D01*
X0034444Y0072326D01*
X0034415Y0072331D01*
X0034386Y0072333D01*
X0034386Y0072334D02*
X0034020Y0072334D01*
X0034020Y0072028D01*
X0034019Y0072028D02*
X0034021Y0071994D01*
X0034027Y0071960D01*
X0034036Y0071927D01*
X0034049Y0071895D01*
X0034066Y0071865D01*
X0034086Y0071837D01*
X0034109Y0071812D01*
X0034134Y0071789D01*
X0034162Y0071769D01*
X0034192Y0071752D01*
X0034224Y0071739D01*
X0034257Y0071730D01*
X0034291Y0071724D01*
X0034325Y0071722D01*
X0034359Y0071724D01*
X0034393Y0071730D01*
X0034426Y0071739D01*
X0034458Y0071752D01*
X0034488Y0071769D01*
X0034516Y0071789D01*
X0034541Y0071812D01*
X0034564Y0071837D01*
X0034584Y0071865D01*
X0034601Y0071895D01*
X0034614Y0071927D01*
X0034623Y0071960D01*
X0034629Y0071994D01*
X0034631Y0072028D01*
X0034019Y0072334D02*
X0034021Y0072377D01*
X0034026Y0072419D01*
X0034036Y0072461D01*
X0034048Y0072501D01*
X0034065Y0072541D01*
X0034085Y0072578D01*
X0034107Y0072614D01*
X0034133Y0072648D01*
X0034162Y0072680D01*
X0034194Y0072709D01*
X0034228Y0072735D01*
X0034263Y0072757D01*
X0034301Y0072777D01*
X0034341Y0072794D01*
X0034381Y0072806D01*
X0034423Y0072816D01*
X0034465Y0072821D01*
X0034508Y0072823D01*
X0032908Y0072822D02*
X0032602Y0072822D01*
X0032602Y0071722D01*
X0032602Y0072211D02*
X0032908Y0072211D01*
X0032969Y0072211D02*
X0033213Y0071722D01*
X0032908Y0072211D02*
X0032942Y0072213D01*
X0032976Y0072219D01*
X0033009Y0072228D01*
X0033041Y0072241D01*
X0033071Y0072258D01*
X0033099Y0072278D01*
X0033124Y0072301D01*
X0033147Y0072326D01*
X0033167Y0072354D01*
X0033184Y0072384D01*
X0033197Y0072416D01*
X0033206Y0072449D01*
X0033212Y0072483D01*
X0033214Y0072517D01*
X0033212Y0072551D01*
X0033206Y0072585D01*
X0033197Y0072618D01*
X0033184Y0072650D01*
X0033167Y0072680D01*
X0033147Y0072708D01*
X0033124Y0072733D01*
X0033099Y0072756D01*
X0033071Y0072776D01*
X0033041Y0072793D01*
X0033009Y0072806D01*
X0032976Y0072815D01*
X0032942Y0072821D01*
X0032908Y0072823D01*
X0026201Y0057862D02*
X0025957Y0057862D01*
X0025957Y0057861D02*
X0025928Y0057859D01*
X0025899Y0057854D01*
X0025870Y0057845D01*
X0025844Y0057833D01*
X0025818Y0057818D01*
X0025795Y0057800D01*
X0025774Y0057779D01*
X0025756Y0057756D01*
X0025741Y0057730D01*
X0025729Y0057704D01*
X0025720Y0057675D01*
X0025715Y0057646D01*
X0025713Y0057617D01*
X0025713Y0057006D01*
X0025715Y0056977D01*
X0025720Y0056948D01*
X0025729Y0056919D01*
X0025741Y0056893D01*
X0025756Y0056867D01*
X0025774Y0056844D01*
X0025795Y0056823D01*
X0025818Y0056805D01*
X0025844Y0056790D01*
X0025870Y0056778D01*
X0025899Y0056769D01*
X0025928Y0056764D01*
X0025957Y0056762D01*
X0026201Y0056762D01*
X0026923Y0056762D02*
X0027534Y0056762D01*
X0026923Y0056762D02*
X0027442Y0057373D01*
X0027259Y0057862D02*
X0027225Y0057860D01*
X0027191Y0057855D01*
X0027158Y0057847D01*
X0027126Y0057836D01*
X0027095Y0057822D01*
X0027065Y0057804D01*
X0027038Y0057784D01*
X0027012Y0057761D01*
X0026989Y0057736D01*
X0026968Y0057709D01*
X0026950Y0057680D01*
X0026935Y0057650D01*
X0026923Y0057618D01*
X0027442Y0057373D02*
X0027466Y0057398D01*
X0027486Y0057426D01*
X0027503Y0057455D01*
X0027516Y0057487D01*
X0027526Y0057519D01*
X0027532Y0057553D01*
X0027534Y0057587D01*
X0027532Y0057618D01*
X0027527Y0057648D01*
X0027519Y0057678D01*
X0027507Y0057706D01*
X0027492Y0057733D01*
X0027474Y0057758D01*
X0027453Y0057781D01*
X0027430Y0057802D01*
X0027405Y0057820D01*
X0027378Y0057835D01*
X0027350Y0057847D01*
X0027320Y0057855D01*
X0027290Y0057860D01*
X0027259Y0057862D01*
X0024120Y0050159D02*
X0024120Y0049059D01*
X0024425Y0049059D02*
X0023814Y0049059D01*
X0023008Y0049059D02*
X0022763Y0049548D01*
X0022702Y0049548D02*
X0022397Y0049548D01*
X0022702Y0049548D02*
X0022736Y0049550D01*
X0022770Y0049556D01*
X0022803Y0049565D01*
X0022835Y0049578D01*
X0022865Y0049595D01*
X0022893Y0049615D01*
X0022918Y0049638D01*
X0022941Y0049663D01*
X0022961Y0049691D01*
X0022978Y0049721D01*
X0022991Y0049753D01*
X0023000Y0049786D01*
X0023006Y0049820D01*
X0023008Y0049854D01*
X0023006Y0049888D01*
X0023000Y0049922D01*
X0022991Y0049955D01*
X0022978Y0049987D01*
X0022961Y0050017D01*
X0022941Y0050045D01*
X0022918Y0050070D01*
X0022893Y0050093D01*
X0022865Y0050113D01*
X0022835Y0050130D01*
X0022803Y0050143D01*
X0022770Y0050152D01*
X0022736Y0050158D01*
X0022702Y0050160D01*
X0022702Y0050159D02*
X0022397Y0050159D01*
X0022397Y0049059D01*
X0023814Y0049915D02*
X0024120Y0050159D01*
X0011032Y0053762D02*
X0010421Y0053762D01*
X0010727Y0053762D02*
X0010727Y0054862D01*
X0010421Y0054617D01*
X0009700Y0054862D02*
X0009455Y0054862D01*
X0009455Y0054861D02*
X0009426Y0054859D01*
X0009397Y0054854D01*
X0009368Y0054845D01*
X0009342Y0054833D01*
X0009316Y0054818D01*
X0009293Y0054800D01*
X0009272Y0054779D01*
X0009254Y0054756D01*
X0009239Y0054730D01*
X0009227Y0054704D01*
X0009218Y0054675D01*
X0009213Y0054646D01*
X0009211Y0054617D01*
X0009211Y0054006D01*
X0009213Y0053977D01*
X0009218Y0053948D01*
X0009227Y0053919D01*
X0009239Y0053893D01*
X0009254Y0053867D01*
X0009272Y0053844D01*
X0009293Y0053823D01*
X0009316Y0053805D01*
X0009342Y0053790D01*
X0009368Y0053778D01*
X0009397Y0053769D01*
X0009426Y0053764D01*
X0009455Y0053762D01*
X0009700Y0053762D01*
X0021490Y0027128D02*
X0021768Y0027128D01*
X0021490Y0027128D02*
X0021490Y0026128D01*
X0021768Y0026128D01*
X0021799Y0026130D01*
X0021830Y0026135D01*
X0021860Y0026144D01*
X0021889Y0026156D01*
X0021916Y0026171D01*
X0021941Y0026189D01*
X0021965Y0026209D01*
X0021985Y0026233D01*
X0022003Y0026258D01*
X0022018Y0026285D01*
X0022030Y0026314D01*
X0022039Y0026344D01*
X0022044Y0026375D01*
X0022046Y0026406D01*
X0022046Y0026850D01*
X0022044Y0026881D01*
X0022039Y0026912D01*
X0022030Y0026942D01*
X0022018Y0026971D01*
X0022003Y0026998D01*
X0021985Y0027023D01*
X0021965Y0027047D01*
X0021941Y0027067D01*
X0021916Y0027085D01*
X0021889Y0027100D01*
X0021860Y0027112D01*
X0021830Y0027121D01*
X0021799Y0027126D01*
X0021768Y0027128D01*
X0022885Y0026906D02*
X0023163Y0027128D01*
X0023163Y0026128D01*
X0022885Y0026128D02*
X0023441Y0026128D01*
X0060008Y0056119D02*
X0060008Y0056913D01*
X0060619Y0056913D02*
X0060619Y0056119D01*
X0060617Y0056085D01*
X0060611Y0056051D01*
X0060602Y0056018D01*
X0060589Y0055986D01*
X0060572Y0055956D01*
X0060552Y0055928D01*
X0060529Y0055903D01*
X0060504Y0055880D01*
X0060476Y0055860D01*
X0060446Y0055843D01*
X0060414Y0055830D01*
X0060381Y0055821D01*
X0060347Y0055815D01*
X0060313Y0055813D01*
X0060279Y0055815D01*
X0060245Y0055821D01*
X0060212Y0055830D01*
X0060180Y0055843D01*
X0060150Y0055860D01*
X0060122Y0055880D01*
X0060097Y0055903D01*
X0060074Y0055928D01*
X0060054Y0055956D01*
X0060037Y0055986D01*
X0060024Y0056018D01*
X0060015Y0056051D01*
X0060009Y0056085D01*
X0060007Y0056119D01*
X0061496Y0055813D02*
X0062107Y0055813D01*
X0061496Y0055813D02*
X0062015Y0056424D01*
X0061832Y0056913D02*
X0061798Y0056911D01*
X0061764Y0056906D01*
X0061731Y0056898D01*
X0061699Y0056887D01*
X0061668Y0056873D01*
X0061638Y0056855D01*
X0061611Y0056835D01*
X0061585Y0056812D01*
X0061562Y0056787D01*
X0061541Y0056760D01*
X0061523Y0056731D01*
X0061508Y0056701D01*
X0061496Y0056669D01*
X0062015Y0056424D02*
X0062039Y0056449D01*
X0062059Y0056477D01*
X0062076Y0056506D01*
X0062089Y0056538D01*
X0062099Y0056570D01*
X0062105Y0056604D01*
X0062107Y0056638D01*
X0062105Y0056669D01*
X0062100Y0056699D01*
X0062092Y0056729D01*
X0062080Y0056757D01*
X0062065Y0056784D01*
X0062047Y0056809D01*
X0062026Y0056832D01*
X0062003Y0056853D01*
X0061978Y0056871D01*
X0061951Y0056886D01*
X0061923Y0056898D01*
X0061893Y0056906D01*
X0061863Y0056911D01*
X0061832Y0056913D01*
X0056423Y0085502D02*
X0056057Y0085502D01*
X0056423Y0085502D02*
X0056452Y0085504D01*
X0056481Y0085509D01*
X0056510Y0085518D01*
X0056536Y0085530D01*
X0056562Y0085545D01*
X0056585Y0085563D01*
X0056606Y0085584D01*
X0056624Y0085607D01*
X0056639Y0085633D01*
X0056651Y0085659D01*
X0056660Y0085688D01*
X0056665Y0085717D01*
X0056667Y0085746D01*
X0056668Y0085746D02*
X0056668Y0085869D01*
X0056667Y0085869D02*
X0056665Y0085898D01*
X0056660Y0085927D01*
X0056651Y0085956D01*
X0056639Y0085982D01*
X0056624Y0086008D01*
X0056606Y0086031D01*
X0056585Y0086052D01*
X0056562Y0086070D01*
X0056536Y0086085D01*
X0056510Y0086097D01*
X0056481Y0086106D01*
X0056452Y0086111D01*
X0056423Y0086113D01*
X0056057Y0086113D01*
X0056057Y0086602D01*
X0056668Y0086602D01*
X0055335Y0086602D02*
X0055091Y0086602D01*
X0055062Y0086600D01*
X0055033Y0086595D01*
X0055004Y0086586D01*
X0054978Y0086574D01*
X0054952Y0086559D01*
X0054929Y0086541D01*
X0054908Y0086520D01*
X0054890Y0086497D01*
X0054875Y0086471D01*
X0054863Y0086445D01*
X0054854Y0086416D01*
X0054849Y0086387D01*
X0054847Y0086358D01*
X0054846Y0086358D02*
X0054846Y0085746D01*
X0054847Y0085746D02*
X0054849Y0085717D01*
X0054854Y0085688D01*
X0054863Y0085659D01*
X0054875Y0085633D01*
X0054890Y0085607D01*
X0054908Y0085584D01*
X0054929Y0085563D01*
X0054952Y0085545D01*
X0054978Y0085530D01*
X0055004Y0085518D01*
X0055033Y0085509D01*
X0055062Y0085504D01*
X0055091Y0085502D01*
X0055335Y0085502D01*
X0026394Y0096942D02*
X0025783Y0096942D01*
X0026027Y0097797D01*
X0026210Y0097186D02*
X0026210Y0096697D01*
X0024976Y0096697D02*
X0024732Y0097186D01*
X0024671Y0097186D02*
X0024365Y0097186D01*
X0024671Y0097186D02*
X0024705Y0097188D01*
X0024739Y0097194D01*
X0024772Y0097203D01*
X0024804Y0097216D01*
X0024834Y0097233D01*
X0024862Y0097253D01*
X0024887Y0097276D01*
X0024910Y0097301D01*
X0024930Y0097329D01*
X0024947Y0097359D01*
X0024960Y0097391D01*
X0024969Y0097424D01*
X0024975Y0097458D01*
X0024977Y0097492D01*
X0024975Y0097526D01*
X0024969Y0097560D01*
X0024960Y0097593D01*
X0024947Y0097625D01*
X0024930Y0097655D01*
X0024910Y0097683D01*
X0024887Y0097708D01*
X0024862Y0097731D01*
X0024834Y0097751D01*
X0024804Y0097768D01*
X0024772Y0097781D01*
X0024739Y0097790D01*
X0024705Y0097796D01*
X0024671Y0097798D01*
X0024671Y0097797D02*
X0024365Y0097797D01*
X0024365Y0096697D01*
X0024365Y0098863D02*
X0024365Y0099963D01*
X0024671Y0099963D01*
X0024705Y0099961D01*
X0024739Y0099955D01*
X0024772Y0099946D01*
X0024804Y0099933D01*
X0024834Y0099916D01*
X0024862Y0099896D01*
X0024887Y0099873D01*
X0024910Y0099848D01*
X0024930Y0099820D01*
X0024947Y0099790D01*
X0024960Y0099758D01*
X0024969Y0099725D01*
X0024975Y0099691D01*
X0024977Y0099657D01*
X0024975Y0099623D01*
X0024969Y0099589D01*
X0024960Y0099556D01*
X0024947Y0099524D01*
X0024930Y0099494D01*
X0024910Y0099466D01*
X0024887Y0099441D01*
X0024862Y0099418D01*
X0024834Y0099398D01*
X0024804Y0099381D01*
X0024772Y0099368D01*
X0024739Y0099359D01*
X0024705Y0099353D01*
X0024671Y0099351D01*
X0024365Y0099351D01*
X0024732Y0099351D02*
X0024977Y0098863D01*
X0025783Y0098863D02*
X0026088Y0098863D01*
X0026088Y0098862D02*
X0026122Y0098864D01*
X0026156Y0098870D01*
X0026189Y0098879D01*
X0026221Y0098892D01*
X0026251Y0098909D01*
X0026279Y0098929D01*
X0026304Y0098952D01*
X0026327Y0098977D01*
X0026347Y0099005D01*
X0026364Y0099035D01*
X0026377Y0099067D01*
X0026386Y0099100D01*
X0026392Y0099134D01*
X0026394Y0099168D01*
X0026392Y0099202D01*
X0026386Y0099236D01*
X0026377Y0099269D01*
X0026364Y0099301D01*
X0026347Y0099331D01*
X0026327Y0099359D01*
X0026304Y0099384D01*
X0026279Y0099407D01*
X0026251Y0099427D01*
X0026221Y0099444D01*
X0026189Y0099457D01*
X0026156Y0099466D01*
X0026122Y0099472D01*
X0026088Y0099474D01*
X0026149Y0099474D02*
X0025905Y0099474D01*
X0026149Y0099474D02*
X0026178Y0099476D01*
X0026207Y0099481D01*
X0026236Y0099490D01*
X0026262Y0099502D01*
X0026288Y0099517D01*
X0026311Y0099535D01*
X0026332Y0099556D01*
X0026350Y0099579D01*
X0026365Y0099605D01*
X0026377Y0099631D01*
X0026386Y0099660D01*
X0026391Y0099689D01*
X0026393Y0099718D01*
X0026391Y0099747D01*
X0026386Y0099776D01*
X0026377Y0099805D01*
X0026365Y0099831D01*
X0026350Y0099857D01*
X0026332Y0099880D01*
X0026311Y0099901D01*
X0026288Y0099919D01*
X0026262Y0099934D01*
X0026236Y0099946D01*
X0026207Y0099955D01*
X0026178Y0099960D01*
X0026149Y0099962D01*
X0026149Y0099963D02*
X0025783Y0099963D01*
X0020448Y0102540D02*
X0020446Y0102506D01*
X0020440Y0102472D01*
X0020431Y0102439D01*
X0020418Y0102407D01*
X0020401Y0102377D01*
X0020381Y0102349D01*
X0020358Y0102324D01*
X0020333Y0102301D01*
X0020305Y0102281D01*
X0020275Y0102264D01*
X0020243Y0102251D01*
X0020210Y0102242D01*
X0020176Y0102236D01*
X0020142Y0102234D01*
X0020108Y0102236D01*
X0020074Y0102242D01*
X0020041Y0102251D01*
X0020009Y0102264D01*
X0019979Y0102281D01*
X0019951Y0102301D01*
X0019926Y0102324D01*
X0019903Y0102349D01*
X0019883Y0102377D01*
X0019866Y0102407D01*
X0019853Y0102439D01*
X0019844Y0102472D01*
X0019838Y0102506D01*
X0019836Y0102540D01*
X0019838Y0102574D01*
X0019844Y0102608D01*
X0019853Y0102641D01*
X0019866Y0102673D01*
X0019883Y0102703D01*
X0019903Y0102731D01*
X0019926Y0102756D01*
X0019951Y0102779D01*
X0019979Y0102799D01*
X0020009Y0102816D01*
X0020041Y0102829D01*
X0020074Y0102838D01*
X0020108Y0102844D01*
X0020142Y0102846D01*
X0020176Y0102844D01*
X0020210Y0102838D01*
X0020243Y0102829D01*
X0020275Y0102816D01*
X0020305Y0102799D01*
X0020333Y0102779D01*
X0020358Y0102756D01*
X0020381Y0102731D01*
X0020401Y0102703D01*
X0020418Y0102673D01*
X0020431Y0102641D01*
X0020440Y0102608D01*
X0020446Y0102574D01*
X0020448Y0102540D01*
X0020386Y0103090D02*
X0020384Y0103061D01*
X0020379Y0103032D01*
X0020370Y0103003D01*
X0020358Y0102977D01*
X0020343Y0102951D01*
X0020325Y0102928D01*
X0020304Y0102907D01*
X0020281Y0102889D01*
X0020255Y0102874D01*
X0020229Y0102862D01*
X0020200Y0102853D01*
X0020171Y0102848D01*
X0020142Y0102846D01*
X0020113Y0102848D01*
X0020084Y0102853D01*
X0020055Y0102862D01*
X0020029Y0102874D01*
X0020003Y0102889D01*
X0019980Y0102907D01*
X0019959Y0102928D01*
X0019941Y0102951D01*
X0019926Y0102977D01*
X0019914Y0103003D01*
X0019905Y0103032D01*
X0019900Y0103061D01*
X0019898Y0103090D01*
X0019900Y0103119D01*
X0019905Y0103148D01*
X0019914Y0103177D01*
X0019926Y0103203D01*
X0019941Y0103229D01*
X0019959Y0103252D01*
X0019980Y0103273D01*
X0020003Y0103291D01*
X0020029Y0103306D01*
X0020055Y0103318D01*
X0020084Y0103327D01*
X0020113Y0103332D01*
X0020142Y0103334D01*
X0020171Y0103332D01*
X0020200Y0103327D01*
X0020229Y0103318D01*
X0020255Y0103306D01*
X0020281Y0103291D01*
X0020304Y0103273D01*
X0020325Y0103252D01*
X0020343Y0103229D01*
X0020358Y0103203D01*
X0020370Y0103177D01*
X0020379Y0103148D01*
X0020384Y0103119D01*
X0020386Y0103090D01*
X0019115Y0103334D02*
X0018870Y0103334D01*
X0018841Y0103332D01*
X0018812Y0103327D01*
X0018783Y0103318D01*
X0018757Y0103306D01*
X0018731Y0103291D01*
X0018708Y0103273D01*
X0018687Y0103252D01*
X0018669Y0103229D01*
X0018654Y0103203D01*
X0018642Y0103177D01*
X0018633Y0103148D01*
X0018628Y0103119D01*
X0018626Y0103090D01*
X0018626Y0102479D01*
X0018628Y0102450D01*
X0018633Y0102421D01*
X0018642Y0102392D01*
X0018654Y0102366D01*
X0018669Y0102340D01*
X0018687Y0102317D01*
X0018708Y0102296D01*
X0018731Y0102278D01*
X0018757Y0102263D01*
X0018783Y0102251D01*
X0018812Y0102242D01*
X0018841Y0102237D01*
X0018870Y0102235D01*
X0018870Y0102234D02*
X0019115Y0102234D01*
X0019115Y0131959D02*
X0018870Y0131959D01*
X0018841Y0131961D01*
X0018812Y0131966D01*
X0018783Y0131975D01*
X0018757Y0131987D01*
X0018731Y0132002D01*
X0018708Y0132020D01*
X0018687Y0132041D01*
X0018669Y0132064D01*
X0018654Y0132090D01*
X0018642Y0132116D01*
X0018633Y0132145D01*
X0018628Y0132174D01*
X0018626Y0132203D01*
X0018626Y0132814D01*
X0018628Y0132843D01*
X0018633Y0132872D01*
X0018642Y0132901D01*
X0018654Y0132927D01*
X0018669Y0132953D01*
X0018687Y0132976D01*
X0018708Y0132997D01*
X0018731Y0133015D01*
X0018757Y0133030D01*
X0018783Y0133042D01*
X0018812Y0133051D01*
X0018841Y0133056D01*
X0018870Y0133058D01*
X0018870Y0133059D02*
X0019115Y0133059D01*
X0019836Y0133059D02*
X0020447Y0133059D01*
X0020142Y0131959D01*
X0019836Y0132936D02*
X0019836Y0133059D01*
X0038746Y0136902D02*
X0038746Y0137513D01*
X0038748Y0137542D01*
X0038753Y0137571D01*
X0038762Y0137600D01*
X0038774Y0137626D01*
X0038789Y0137652D01*
X0038807Y0137675D01*
X0038828Y0137696D01*
X0038851Y0137714D01*
X0038877Y0137729D01*
X0038903Y0137741D01*
X0038932Y0137750D01*
X0038961Y0137755D01*
X0038990Y0137757D01*
X0038990Y0137758D02*
X0039234Y0137758D01*
X0039956Y0137269D02*
X0039956Y0136963D01*
X0039955Y0136963D02*
X0039957Y0136929D01*
X0039963Y0136895D01*
X0039972Y0136862D01*
X0039985Y0136830D01*
X0040002Y0136800D01*
X0040022Y0136772D01*
X0040045Y0136747D01*
X0040070Y0136724D01*
X0040098Y0136704D01*
X0040128Y0136687D01*
X0040160Y0136674D01*
X0040193Y0136665D01*
X0040227Y0136659D01*
X0040261Y0136657D01*
X0040295Y0136659D01*
X0040329Y0136665D01*
X0040362Y0136674D01*
X0040394Y0136687D01*
X0040424Y0136704D01*
X0040452Y0136724D01*
X0040477Y0136747D01*
X0040500Y0136772D01*
X0040520Y0136800D01*
X0040537Y0136830D01*
X0040550Y0136862D01*
X0040559Y0136895D01*
X0040565Y0136929D01*
X0040567Y0136963D01*
X0040567Y0137025D01*
X0040566Y0137025D02*
X0040564Y0137054D01*
X0040559Y0137083D01*
X0040550Y0137112D01*
X0040538Y0137138D01*
X0040523Y0137164D01*
X0040505Y0137187D01*
X0040484Y0137208D01*
X0040461Y0137226D01*
X0040435Y0137241D01*
X0040409Y0137253D01*
X0040380Y0137262D01*
X0040351Y0137267D01*
X0040322Y0137269D01*
X0039956Y0137269D01*
X0039958Y0137312D01*
X0039963Y0137354D01*
X0039973Y0137396D01*
X0039985Y0137436D01*
X0040002Y0137476D01*
X0040022Y0137513D01*
X0040044Y0137549D01*
X0040070Y0137583D01*
X0040099Y0137615D01*
X0040131Y0137644D01*
X0040165Y0137670D01*
X0040200Y0137692D01*
X0040238Y0137712D01*
X0040278Y0137729D01*
X0040318Y0137741D01*
X0040360Y0137751D01*
X0040402Y0137756D01*
X0040445Y0137758D01*
X0039234Y0136658D02*
X0038990Y0136658D01*
X0038961Y0136660D01*
X0038932Y0136665D01*
X0038903Y0136674D01*
X0038877Y0136686D01*
X0038851Y0136701D01*
X0038828Y0136719D01*
X0038807Y0136740D01*
X0038789Y0136763D01*
X0038774Y0136789D01*
X0038762Y0136815D01*
X0038753Y0136844D01*
X0038748Y0136873D01*
X0038746Y0136902D01*
X0050516Y0137077D02*
X0050516Y0138177D01*
X0050821Y0138177D01*
X0050855Y0138175D01*
X0050889Y0138169D01*
X0050922Y0138160D01*
X0050954Y0138147D01*
X0050984Y0138130D01*
X0051012Y0138110D01*
X0051037Y0138087D01*
X0051060Y0138062D01*
X0051080Y0138034D01*
X0051097Y0138004D01*
X0051110Y0137972D01*
X0051119Y0137939D01*
X0051125Y0137905D01*
X0051127Y0137871D01*
X0051125Y0137837D01*
X0051119Y0137803D01*
X0051110Y0137770D01*
X0051097Y0137738D01*
X0051080Y0137708D01*
X0051060Y0137680D01*
X0051037Y0137655D01*
X0051012Y0137632D01*
X0050984Y0137612D01*
X0050954Y0137595D01*
X0050922Y0137582D01*
X0050889Y0137573D01*
X0050855Y0137567D01*
X0050821Y0137565D01*
X0050821Y0137566D02*
X0050516Y0137566D01*
X0050882Y0137566D02*
X0051127Y0137077D01*
X0051933Y0137077D02*
X0052544Y0137077D01*
X0051933Y0137077D02*
X0052452Y0137688D01*
X0052269Y0138176D02*
X0052235Y0138174D01*
X0052201Y0138169D01*
X0052168Y0138161D01*
X0052136Y0138150D01*
X0052105Y0138136D01*
X0052075Y0138118D01*
X0052048Y0138098D01*
X0052022Y0138075D01*
X0051999Y0138050D01*
X0051978Y0138023D01*
X0051960Y0137994D01*
X0051945Y0137964D01*
X0051933Y0137932D01*
X0052452Y0137688D02*
X0052476Y0137713D01*
X0052496Y0137741D01*
X0052513Y0137770D01*
X0052526Y0137802D01*
X0052536Y0137834D01*
X0052542Y0137868D01*
X0052544Y0137902D01*
X0052542Y0137933D01*
X0052537Y0137963D01*
X0052529Y0137993D01*
X0052517Y0138021D01*
X0052502Y0138048D01*
X0052484Y0138073D01*
X0052463Y0138096D01*
X0052440Y0138117D01*
X0052415Y0138135D01*
X0052388Y0138150D01*
X0052360Y0138162D01*
X0052330Y0138170D01*
X0052300Y0138175D01*
X0052269Y0138177D01*
X0115652Y0116647D02*
X0115652Y0116036D01*
X0115654Y0116007D01*
X0115659Y0115978D01*
X0115668Y0115949D01*
X0115680Y0115923D01*
X0115695Y0115897D01*
X0115713Y0115874D01*
X0115734Y0115853D01*
X0115757Y0115835D01*
X0115783Y0115820D01*
X0115809Y0115808D01*
X0115838Y0115799D01*
X0115867Y0115794D01*
X0115896Y0115792D01*
X0116141Y0115792D01*
X0116862Y0115792D02*
X0117473Y0115792D01*
X0117168Y0115792D02*
X0117168Y0116892D01*
X0116862Y0116647D01*
X0116141Y0116892D02*
X0115896Y0116892D01*
X0115896Y0116891D02*
X0115867Y0116889D01*
X0115838Y0116884D01*
X0115809Y0116875D01*
X0115783Y0116863D01*
X0115757Y0116848D01*
X0115734Y0116830D01*
X0115713Y0116809D01*
X0115695Y0116786D01*
X0115680Y0116760D01*
X0115668Y0116734D01*
X0115659Y0116705D01*
X0115654Y0116676D01*
X0115652Y0116647D01*
X0118302Y0116647D02*
X0118608Y0116892D01*
X0118608Y0115792D01*
X0118913Y0115792D02*
X0118302Y0115792D01*
X0119020Y0112980D02*
X0119325Y0112980D01*
X0119020Y0112980D02*
X0119020Y0111880D01*
X0119020Y0112369D02*
X0119325Y0112369D01*
X0119386Y0112369D02*
X0119631Y0111880D01*
X0119325Y0112368D02*
X0119359Y0112370D01*
X0119393Y0112376D01*
X0119426Y0112385D01*
X0119458Y0112398D01*
X0119488Y0112415D01*
X0119516Y0112435D01*
X0119541Y0112458D01*
X0119564Y0112483D01*
X0119584Y0112511D01*
X0119601Y0112541D01*
X0119614Y0112573D01*
X0119623Y0112606D01*
X0119629Y0112640D01*
X0119631Y0112674D01*
X0119629Y0112708D01*
X0119623Y0112742D01*
X0119614Y0112775D01*
X0119601Y0112807D01*
X0119584Y0112837D01*
X0119564Y0112865D01*
X0119541Y0112890D01*
X0119516Y0112913D01*
X0119488Y0112933D01*
X0119458Y0112950D01*
X0119426Y0112963D01*
X0119393Y0112972D01*
X0119359Y0112978D01*
X0119325Y0112980D01*
X0120498Y0112735D02*
X0120500Y0112706D01*
X0120505Y0112677D01*
X0120514Y0112648D01*
X0120526Y0112622D01*
X0120541Y0112596D01*
X0120559Y0112573D01*
X0120580Y0112552D01*
X0120603Y0112534D01*
X0120629Y0112519D01*
X0120655Y0112507D01*
X0120684Y0112498D01*
X0120713Y0112493D01*
X0120742Y0112491D01*
X0120771Y0112493D01*
X0120800Y0112498D01*
X0120829Y0112507D01*
X0120855Y0112519D01*
X0120881Y0112534D01*
X0120904Y0112552D01*
X0120925Y0112573D01*
X0120943Y0112596D01*
X0120958Y0112622D01*
X0120970Y0112648D01*
X0120979Y0112677D01*
X0120984Y0112706D01*
X0120986Y0112735D01*
X0120984Y0112764D01*
X0120979Y0112793D01*
X0120970Y0112822D01*
X0120958Y0112848D01*
X0120943Y0112874D01*
X0120925Y0112897D01*
X0120904Y0112918D01*
X0120881Y0112936D01*
X0120855Y0112951D01*
X0120829Y0112963D01*
X0120800Y0112972D01*
X0120771Y0112977D01*
X0120742Y0112979D01*
X0120713Y0112977D01*
X0120684Y0112972D01*
X0120655Y0112963D01*
X0120629Y0112951D01*
X0120603Y0112936D01*
X0120580Y0112918D01*
X0120559Y0112897D01*
X0120541Y0112874D01*
X0120526Y0112848D01*
X0120514Y0112822D01*
X0120505Y0112793D01*
X0120500Y0112764D01*
X0120498Y0112735D01*
X0120436Y0112185D02*
X0120438Y0112151D01*
X0120444Y0112117D01*
X0120453Y0112084D01*
X0120466Y0112052D01*
X0120483Y0112022D01*
X0120503Y0111994D01*
X0120526Y0111969D01*
X0120551Y0111946D01*
X0120579Y0111926D01*
X0120609Y0111909D01*
X0120641Y0111896D01*
X0120674Y0111887D01*
X0120708Y0111881D01*
X0120742Y0111879D01*
X0120776Y0111881D01*
X0120810Y0111887D01*
X0120843Y0111896D01*
X0120875Y0111909D01*
X0120905Y0111926D01*
X0120933Y0111946D01*
X0120958Y0111969D01*
X0120981Y0111994D01*
X0121001Y0112022D01*
X0121018Y0112052D01*
X0121031Y0112084D01*
X0121040Y0112117D01*
X0121046Y0112151D01*
X0121048Y0112185D01*
X0121046Y0112219D01*
X0121040Y0112253D01*
X0121031Y0112286D01*
X0121018Y0112318D01*
X0121001Y0112348D01*
X0120981Y0112376D01*
X0120958Y0112401D01*
X0120933Y0112424D01*
X0120905Y0112444D01*
X0120875Y0112461D01*
X0120843Y0112474D01*
X0120810Y0112483D01*
X0120776Y0112489D01*
X0120742Y0112491D01*
X0120708Y0112489D01*
X0120674Y0112483D01*
X0120641Y0112474D01*
X0120609Y0112461D01*
X0120579Y0112444D01*
X0120551Y0112424D01*
X0120526Y0112401D01*
X0120503Y0112376D01*
X0120483Y0112348D01*
X0120466Y0112318D01*
X0120453Y0112286D01*
X0120444Y0112253D01*
X0120438Y0112219D01*
X0120436Y0112185D01*
X0118883Y0104909D02*
X0118577Y0103809D01*
X0118272Y0104787D02*
X0118272Y0104909D01*
X0118883Y0104909D01*
X0117160Y0104909D02*
X0116854Y0104909D01*
X0116854Y0103809D01*
X0116854Y0104298D02*
X0117160Y0104298D01*
X0117221Y0104298D02*
X0117465Y0103809D01*
X0117160Y0104297D02*
X0117194Y0104299D01*
X0117228Y0104305D01*
X0117261Y0104314D01*
X0117293Y0104327D01*
X0117323Y0104344D01*
X0117351Y0104364D01*
X0117376Y0104387D01*
X0117399Y0104412D01*
X0117419Y0104440D01*
X0117436Y0104470D01*
X0117449Y0104502D01*
X0117458Y0104535D01*
X0117464Y0104569D01*
X0117466Y0104603D01*
X0117464Y0104637D01*
X0117458Y0104671D01*
X0117449Y0104704D01*
X0117436Y0104736D01*
X0117419Y0104766D01*
X0117399Y0104794D01*
X0117376Y0104819D01*
X0117351Y0104842D01*
X0117323Y0104862D01*
X0117293Y0104879D01*
X0117261Y0104892D01*
X0117228Y0104901D01*
X0117194Y0104907D01*
X0117160Y0104909D01*
X0136172Y0126815D02*
X0136417Y0126815D01*
X0136172Y0126816D02*
X0136143Y0126818D01*
X0136114Y0126823D01*
X0136085Y0126832D01*
X0136059Y0126844D01*
X0136033Y0126859D01*
X0136010Y0126877D01*
X0135989Y0126898D01*
X0135971Y0126921D01*
X0135956Y0126947D01*
X0135944Y0126973D01*
X0135935Y0127002D01*
X0135930Y0127031D01*
X0135928Y0127060D01*
X0135928Y0127671D01*
X0135930Y0127700D01*
X0135935Y0127729D01*
X0135944Y0127758D01*
X0135956Y0127784D01*
X0135971Y0127810D01*
X0135989Y0127833D01*
X0136010Y0127854D01*
X0136033Y0127872D01*
X0136059Y0127887D01*
X0136085Y0127899D01*
X0136114Y0127908D01*
X0136143Y0127913D01*
X0136172Y0127915D01*
X0136417Y0127915D01*
X0137138Y0127671D02*
X0137443Y0127915D01*
X0137443Y0126815D01*
X0137138Y0126815D02*
X0137749Y0126815D01*
X0139097Y0126968D02*
X0139121Y0127021D01*
X0139142Y0127076D01*
X0139159Y0127133D01*
X0139172Y0127190D01*
X0139181Y0127248D01*
X0139187Y0127306D01*
X0139189Y0127365D01*
X0138577Y0127365D02*
X0138579Y0127424D01*
X0138585Y0127482D01*
X0138594Y0127540D01*
X0138607Y0127597D01*
X0138624Y0127654D01*
X0138645Y0127709D01*
X0138669Y0127762D01*
X0138883Y0127915D02*
X0138911Y0127913D01*
X0138938Y0127908D01*
X0138965Y0127900D01*
X0138991Y0127888D01*
X0139014Y0127873D01*
X0139036Y0127855D01*
X0139056Y0127835D01*
X0139072Y0127813D01*
X0139086Y0127788D01*
X0139097Y0127762D01*
X0139128Y0127671D02*
X0138639Y0127060D01*
X0138669Y0126968D02*
X0138680Y0126942D01*
X0138694Y0126917D01*
X0138711Y0126895D01*
X0138730Y0126875D01*
X0138752Y0126857D01*
X0138775Y0126842D01*
X0138801Y0126830D01*
X0138828Y0126822D01*
X0138855Y0126817D01*
X0138883Y0126815D01*
X0138911Y0126817D01*
X0138938Y0126822D01*
X0138965Y0126830D01*
X0138991Y0126842D01*
X0139014Y0126857D01*
X0139036Y0126875D01*
X0139055Y0126895D01*
X0139072Y0126917D01*
X0139086Y0126942D01*
X0139097Y0126968D01*
X0138670Y0126968D02*
X0138646Y0127021D01*
X0138625Y0127076D01*
X0138608Y0127133D01*
X0138595Y0127190D01*
X0138586Y0127248D01*
X0138580Y0127306D01*
X0138578Y0127365D01*
X0139189Y0127365D02*
X0139187Y0127424D01*
X0139181Y0127482D01*
X0139172Y0127540D01*
X0139159Y0127597D01*
X0139142Y0127653D01*
X0139121Y0127708D01*
X0139097Y0127762D01*
X0138883Y0127915D02*
X0138855Y0127913D01*
X0138828Y0127908D01*
X0138801Y0127900D01*
X0138775Y0127888D01*
X0138752Y0127873D01*
X0138730Y0127855D01*
X0138711Y0127835D01*
X0138694Y0127813D01*
X0138680Y0127788D01*
X0138669Y0127762D01*
X0150345Y0114136D02*
X0150590Y0114136D01*
X0150345Y0114135D02*
X0150316Y0114133D01*
X0150287Y0114128D01*
X0150258Y0114119D01*
X0150232Y0114107D01*
X0150206Y0114092D01*
X0150183Y0114074D01*
X0150162Y0114053D01*
X0150144Y0114030D01*
X0150129Y0114004D01*
X0150117Y0113978D01*
X0150108Y0113949D01*
X0150103Y0113920D01*
X0150101Y0113891D01*
X0150101Y0113280D01*
X0150103Y0113251D01*
X0150108Y0113222D01*
X0150117Y0113193D01*
X0150129Y0113167D01*
X0150144Y0113141D01*
X0150162Y0113118D01*
X0150183Y0113097D01*
X0150206Y0113079D01*
X0150232Y0113064D01*
X0150258Y0113052D01*
X0150287Y0113043D01*
X0150316Y0113038D01*
X0150345Y0113036D01*
X0150590Y0113036D01*
X0151311Y0113036D02*
X0151922Y0113036D01*
X0151617Y0113036D02*
X0151617Y0114136D01*
X0151311Y0113891D01*
X0152751Y0113036D02*
X0153362Y0113036D01*
X0152751Y0113036D02*
X0153271Y0113647D01*
X0153087Y0114136D02*
X0153053Y0114134D01*
X0153019Y0114129D01*
X0152986Y0114121D01*
X0152954Y0114110D01*
X0152923Y0114096D01*
X0152893Y0114078D01*
X0152866Y0114058D01*
X0152840Y0114035D01*
X0152817Y0114010D01*
X0152796Y0113983D01*
X0152778Y0113954D01*
X0152763Y0113924D01*
X0152751Y0113892D01*
X0153270Y0113647D02*
X0153294Y0113672D01*
X0153314Y0113700D01*
X0153331Y0113729D01*
X0153344Y0113761D01*
X0153354Y0113793D01*
X0153360Y0113827D01*
X0153362Y0113861D01*
X0153360Y0113892D01*
X0153355Y0113922D01*
X0153347Y0113952D01*
X0153335Y0113980D01*
X0153320Y0114007D01*
X0153302Y0114032D01*
X0153281Y0114055D01*
X0153258Y0114076D01*
X0153233Y0114094D01*
X0153206Y0114109D01*
X0153178Y0114121D01*
X0153148Y0114129D01*
X0153118Y0114134D01*
X0153087Y0114136D01*
X0150611Y0104122D02*
X0150366Y0104122D01*
X0150366Y0104121D02*
X0150337Y0104119D01*
X0150308Y0104114D01*
X0150279Y0104105D01*
X0150253Y0104093D01*
X0150227Y0104078D01*
X0150204Y0104060D01*
X0150183Y0104039D01*
X0150165Y0104016D01*
X0150150Y0103990D01*
X0150138Y0103964D01*
X0150129Y0103935D01*
X0150124Y0103906D01*
X0150122Y0103877D01*
X0150122Y0103266D01*
X0150124Y0103237D01*
X0150129Y0103208D01*
X0150138Y0103179D01*
X0150150Y0103153D01*
X0150165Y0103127D01*
X0150183Y0103104D01*
X0150204Y0103083D01*
X0150227Y0103065D01*
X0150253Y0103050D01*
X0150279Y0103038D01*
X0150308Y0103029D01*
X0150337Y0103024D01*
X0150366Y0103022D01*
X0150611Y0103022D01*
X0151454Y0103022D02*
X0151497Y0103024D01*
X0151539Y0103029D01*
X0151581Y0103039D01*
X0151621Y0103051D01*
X0151661Y0103068D01*
X0151699Y0103088D01*
X0151734Y0103110D01*
X0151768Y0103136D01*
X0151800Y0103165D01*
X0151829Y0103197D01*
X0151855Y0103231D01*
X0151877Y0103267D01*
X0151897Y0103304D01*
X0151914Y0103344D01*
X0151926Y0103384D01*
X0151936Y0103426D01*
X0151941Y0103468D01*
X0151943Y0103511D01*
X0151943Y0103816D01*
X0151944Y0103816D02*
X0151942Y0103850D01*
X0151936Y0103884D01*
X0151927Y0103917D01*
X0151914Y0103949D01*
X0151897Y0103979D01*
X0151877Y0104007D01*
X0151854Y0104032D01*
X0151829Y0104055D01*
X0151801Y0104075D01*
X0151771Y0104092D01*
X0151739Y0104105D01*
X0151706Y0104114D01*
X0151672Y0104120D01*
X0151638Y0104122D01*
X0151604Y0104120D01*
X0151570Y0104114D01*
X0151537Y0104105D01*
X0151505Y0104092D01*
X0151475Y0104075D01*
X0151447Y0104055D01*
X0151422Y0104032D01*
X0151399Y0104007D01*
X0151379Y0103979D01*
X0151362Y0103949D01*
X0151349Y0103917D01*
X0151340Y0103884D01*
X0151334Y0103850D01*
X0151332Y0103816D01*
X0151332Y0103755D01*
X0151333Y0103755D02*
X0151335Y0103726D01*
X0151340Y0103697D01*
X0151349Y0103668D01*
X0151361Y0103642D01*
X0151376Y0103616D01*
X0151394Y0103593D01*
X0151415Y0103572D01*
X0151438Y0103554D01*
X0151464Y0103539D01*
X0151490Y0103527D01*
X0151519Y0103518D01*
X0151548Y0103513D01*
X0151577Y0103511D01*
X0151943Y0103511D01*
D12*
X0145657Y0142885D02*
X0145184Y0142885D01*
X0145184Y0144585D01*
X0145657Y0144585D01*
X0145698Y0144583D01*
X0145739Y0144578D01*
X0145779Y0144569D01*
X0145818Y0144557D01*
X0145856Y0144541D01*
X0145893Y0144522D01*
X0145928Y0144500D01*
X0145960Y0144475D01*
X0145991Y0144447D01*
X0146019Y0144416D01*
X0146044Y0144384D01*
X0146066Y0144349D01*
X0146085Y0144312D01*
X0146101Y0144274D01*
X0146113Y0144235D01*
X0146122Y0144195D01*
X0146127Y0144154D01*
X0146129Y0144113D01*
X0146129Y0143358D01*
X0146127Y0143317D01*
X0146122Y0143276D01*
X0146113Y0143236D01*
X0146101Y0143197D01*
X0146085Y0143159D01*
X0146066Y0143122D01*
X0146044Y0143087D01*
X0146019Y0143055D01*
X0145991Y0143024D01*
X0145960Y0142996D01*
X0145928Y0142971D01*
X0145893Y0142949D01*
X0145856Y0142930D01*
X0145818Y0142914D01*
X0145779Y0142902D01*
X0145739Y0142893D01*
X0145698Y0142888D01*
X0145657Y0142886D01*
X0143825Y0142885D02*
X0143825Y0144585D01*
X0142880Y0144585D02*
X0143825Y0142885D01*
X0142880Y0142885D02*
X0142880Y0144585D01*
X0141521Y0144585D02*
X0140954Y0144585D01*
X0140954Y0144586D02*
X0140917Y0144584D01*
X0140880Y0144579D01*
X0140844Y0144570D01*
X0140809Y0144557D01*
X0140776Y0144541D01*
X0140744Y0144522D01*
X0140714Y0144500D01*
X0140687Y0144475D01*
X0140662Y0144448D01*
X0140640Y0144418D01*
X0140621Y0144386D01*
X0140605Y0144353D01*
X0140592Y0144318D01*
X0140583Y0144282D01*
X0140578Y0144245D01*
X0140576Y0144208D01*
X0140576Y0143263D01*
X0140578Y0143226D01*
X0140583Y0143189D01*
X0140592Y0143153D01*
X0140605Y0143118D01*
X0140621Y0143085D01*
X0140640Y0143053D01*
X0140662Y0143023D01*
X0140687Y0142996D01*
X0140714Y0142971D01*
X0140744Y0142949D01*
X0140776Y0142930D01*
X0140809Y0142914D01*
X0140844Y0142901D01*
X0140880Y0142892D01*
X0140917Y0142887D01*
X0140954Y0142885D01*
X0141521Y0142885D01*
X0141521Y0143830D01*
X0141237Y0143830D01*
X0123571Y0144389D02*
X0123004Y0142689D01*
X0122438Y0144389D01*
X0120939Y0144389D02*
X0120372Y0144389D01*
X0120939Y0144389D02*
X0120976Y0144387D01*
X0121013Y0144382D01*
X0121049Y0144373D01*
X0121084Y0144360D01*
X0121117Y0144344D01*
X0121149Y0144325D01*
X0121179Y0144303D01*
X0121206Y0144278D01*
X0121231Y0144251D01*
X0121253Y0144221D01*
X0121272Y0144189D01*
X0121288Y0144156D01*
X0121301Y0144121D01*
X0121310Y0144085D01*
X0121315Y0144048D01*
X0121317Y0144011D01*
X0121315Y0143974D01*
X0121310Y0143937D01*
X0121301Y0143901D01*
X0121288Y0143866D01*
X0121272Y0143833D01*
X0121253Y0143801D01*
X0121231Y0143771D01*
X0121206Y0143744D01*
X0121179Y0143719D01*
X0121149Y0143697D01*
X0121117Y0143678D01*
X0121084Y0143662D01*
X0121049Y0143649D01*
X0121013Y0143640D01*
X0120976Y0143635D01*
X0120939Y0143633D01*
X0120561Y0143633D01*
X0120844Y0143633D02*
X0120886Y0143631D01*
X0120928Y0143625D01*
X0120970Y0143616D01*
X0121010Y0143603D01*
X0121049Y0143586D01*
X0121086Y0143566D01*
X0121121Y0143543D01*
X0121155Y0143516D01*
X0121185Y0143487D01*
X0121213Y0143455D01*
X0121238Y0143421D01*
X0121260Y0143385D01*
X0121278Y0143347D01*
X0121293Y0143307D01*
X0121304Y0143266D01*
X0121312Y0143224D01*
X0121316Y0143182D01*
X0121316Y0143140D01*
X0121312Y0143098D01*
X0121304Y0143056D01*
X0121293Y0143015D01*
X0121278Y0142975D01*
X0121260Y0142937D01*
X0121238Y0142901D01*
X0121213Y0142867D01*
X0121185Y0142835D01*
X0121155Y0142806D01*
X0121121Y0142779D01*
X0121086Y0142756D01*
X0121049Y0142736D01*
X0121010Y0142719D01*
X0120970Y0142706D01*
X0120928Y0142697D01*
X0120886Y0142691D01*
X0120844Y0142689D01*
X0120372Y0142689D01*
X0119379Y0142689D02*
X0119285Y0142689D01*
X0119285Y0142783D01*
X0119379Y0142783D01*
X0119379Y0142689D01*
X0117820Y0142689D02*
X0117348Y0142689D01*
X0117820Y0142689D02*
X0117862Y0142691D01*
X0117904Y0142697D01*
X0117946Y0142706D01*
X0117986Y0142719D01*
X0118025Y0142736D01*
X0118062Y0142756D01*
X0118097Y0142779D01*
X0118131Y0142806D01*
X0118161Y0142835D01*
X0118189Y0142867D01*
X0118214Y0142901D01*
X0118236Y0142937D01*
X0118254Y0142975D01*
X0118269Y0143015D01*
X0118280Y0143056D01*
X0118288Y0143098D01*
X0118292Y0143140D01*
X0118292Y0143182D01*
X0118288Y0143224D01*
X0118280Y0143266D01*
X0118269Y0143307D01*
X0118254Y0143347D01*
X0118236Y0143385D01*
X0118214Y0143421D01*
X0118189Y0143455D01*
X0118161Y0143487D01*
X0118131Y0143516D01*
X0118097Y0143543D01*
X0118062Y0143566D01*
X0118025Y0143586D01*
X0117986Y0143603D01*
X0117946Y0143616D01*
X0117904Y0143625D01*
X0117862Y0143631D01*
X0117820Y0143633D01*
X0117915Y0143633D02*
X0117537Y0143633D01*
X0117915Y0143633D02*
X0117952Y0143635D01*
X0117989Y0143640D01*
X0118025Y0143649D01*
X0118060Y0143662D01*
X0118093Y0143678D01*
X0118125Y0143697D01*
X0118155Y0143719D01*
X0118182Y0143744D01*
X0118207Y0143771D01*
X0118229Y0143801D01*
X0118248Y0143833D01*
X0118264Y0143866D01*
X0118277Y0143901D01*
X0118286Y0143937D01*
X0118291Y0143974D01*
X0118293Y0144011D01*
X0118291Y0144048D01*
X0118286Y0144085D01*
X0118277Y0144121D01*
X0118264Y0144156D01*
X0118248Y0144189D01*
X0118229Y0144221D01*
X0118207Y0144251D01*
X0118182Y0144278D01*
X0118155Y0144303D01*
X0118125Y0144325D01*
X0118093Y0144344D01*
X0118060Y0144360D01*
X0118025Y0144373D01*
X0117989Y0144382D01*
X0117952Y0144387D01*
X0117915Y0144389D01*
X0117348Y0144389D01*
X0098196Y0137302D02*
X0098763Y0135602D01*
X0098621Y0136027D02*
X0097771Y0136027D01*
X0097630Y0135602D02*
X0098196Y0137302D01*
X0096437Y0136830D02*
X0096437Y0136074D01*
X0096436Y0136074D02*
X0096434Y0136033D01*
X0096429Y0135992D01*
X0096420Y0135952D01*
X0096408Y0135913D01*
X0096392Y0135875D01*
X0096373Y0135838D01*
X0096351Y0135803D01*
X0096326Y0135771D01*
X0096298Y0135740D01*
X0096267Y0135712D01*
X0096235Y0135687D01*
X0096200Y0135665D01*
X0096163Y0135646D01*
X0096125Y0135630D01*
X0096086Y0135618D01*
X0096046Y0135609D01*
X0096005Y0135604D01*
X0095964Y0135602D01*
X0095492Y0135602D01*
X0095492Y0137302D01*
X0095964Y0137302D01*
X0096005Y0137300D01*
X0096046Y0137295D01*
X0096086Y0137286D01*
X0096125Y0137274D01*
X0096163Y0137258D01*
X0096200Y0137239D01*
X0096235Y0137217D01*
X0096267Y0137192D01*
X0096298Y0137164D01*
X0096326Y0137133D01*
X0096351Y0137101D01*
X0096373Y0137066D01*
X0096392Y0137029D01*
X0096408Y0136991D01*
X0096420Y0136952D01*
X0096429Y0136912D01*
X0096434Y0136871D01*
X0096436Y0136830D01*
X0094088Y0136310D02*
X0093568Y0136594D01*
X0093757Y0137302D02*
X0093808Y0137300D01*
X0093858Y0137295D01*
X0093908Y0137286D01*
X0093957Y0137273D01*
X0094005Y0137257D01*
X0094052Y0137238D01*
X0094097Y0137215D01*
X0094140Y0137189D01*
X0094182Y0137160D01*
X0093568Y0136593D02*
X0093538Y0136613D01*
X0093509Y0136636D01*
X0093483Y0136661D01*
X0093460Y0136688D01*
X0093439Y0136718D01*
X0093421Y0136749D01*
X0093406Y0136782D01*
X0093394Y0136817D01*
X0093386Y0136852D01*
X0093381Y0136888D01*
X0093379Y0136924D01*
X0093381Y0136961D01*
X0093386Y0136998D01*
X0093395Y0137034D01*
X0093408Y0137069D01*
X0093424Y0137102D01*
X0093443Y0137134D01*
X0093465Y0137164D01*
X0093490Y0137191D01*
X0093517Y0137216D01*
X0093547Y0137238D01*
X0093579Y0137257D01*
X0093612Y0137273D01*
X0093647Y0137286D01*
X0093683Y0137295D01*
X0093720Y0137300D01*
X0093757Y0137302D01*
X0093332Y0135838D02*
X0093371Y0135802D01*
X0093411Y0135769D01*
X0093454Y0135738D01*
X0093498Y0135710D01*
X0093544Y0135685D01*
X0093592Y0135663D01*
X0093641Y0135645D01*
X0093691Y0135629D01*
X0093742Y0135617D01*
X0093794Y0135609D01*
X0093847Y0135604D01*
X0093899Y0135602D01*
X0093936Y0135604D01*
X0093973Y0135609D01*
X0094009Y0135618D01*
X0094044Y0135631D01*
X0094077Y0135647D01*
X0094109Y0135666D01*
X0094139Y0135688D01*
X0094166Y0135713D01*
X0094191Y0135740D01*
X0094213Y0135770D01*
X0094232Y0135802D01*
X0094248Y0135835D01*
X0094261Y0135870D01*
X0094270Y0135906D01*
X0094275Y0135943D01*
X0094277Y0135980D01*
X0094275Y0136016D01*
X0094270Y0136052D01*
X0094262Y0136087D01*
X0094250Y0136122D01*
X0094235Y0136155D01*
X0094217Y0136186D01*
X0094196Y0136216D01*
X0094173Y0136243D01*
X0094147Y0136268D01*
X0094118Y0136291D01*
X0094088Y0136311D01*
X0088018Y0135602D02*
X0087263Y0135602D01*
X0087263Y0137302D01*
X0086122Y0137302D02*
X0085744Y0137302D01*
X0085707Y0137300D01*
X0085670Y0137295D01*
X0085634Y0137286D01*
X0085599Y0137273D01*
X0085566Y0137257D01*
X0085534Y0137238D01*
X0085504Y0137216D01*
X0085477Y0137191D01*
X0085452Y0137164D01*
X0085430Y0137134D01*
X0085411Y0137102D01*
X0085395Y0137069D01*
X0085382Y0137034D01*
X0085373Y0136998D01*
X0085368Y0136961D01*
X0085366Y0136924D01*
X0085366Y0135980D01*
X0085368Y0135943D01*
X0085373Y0135906D01*
X0085382Y0135870D01*
X0085395Y0135835D01*
X0085411Y0135802D01*
X0085430Y0135770D01*
X0085452Y0135740D01*
X0085477Y0135713D01*
X0085504Y0135688D01*
X0085534Y0135666D01*
X0085566Y0135647D01*
X0085599Y0135631D01*
X0085634Y0135618D01*
X0085670Y0135609D01*
X0085707Y0135604D01*
X0085744Y0135602D01*
X0086122Y0135602D01*
X0084048Y0136310D02*
X0083529Y0136594D01*
X0083718Y0137302D02*
X0083769Y0137300D01*
X0083819Y0137295D01*
X0083869Y0137286D01*
X0083918Y0137273D01*
X0083966Y0137257D01*
X0084013Y0137238D01*
X0084058Y0137215D01*
X0084101Y0137189D01*
X0084143Y0137160D01*
X0083529Y0136593D02*
X0083499Y0136613D01*
X0083470Y0136636D01*
X0083444Y0136661D01*
X0083421Y0136688D01*
X0083400Y0136718D01*
X0083382Y0136749D01*
X0083367Y0136782D01*
X0083355Y0136817D01*
X0083347Y0136852D01*
X0083342Y0136888D01*
X0083340Y0136924D01*
X0083342Y0136961D01*
X0083347Y0136998D01*
X0083356Y0137034D01*
X0083369Y0137069D01*
X0083385Y0137102D01*
X0083404Y0137134D01*
X0083426Y0137164D01*
X0083451Y0137191D01*
X0083478Y0137216D01*
X0083508Y0137238D01*
X0083540Y0137257D01*
X0083573Y0137273D01*
X0083608Y0137286D01*
X0083644Y0137295D01*
X0083681Y0137300D01*
X0083718Y0137302D01*
X0083293Y0135838D02*
X0083332Y0135802D01*
X0083372Y0135769D01*
X0083415Y0135738D01*
X0083459Y0135710D01*
X0083505Y0135685D01*
X0083553Y0135663D01*
X0083602Y0135645D01*
X0083652Y0135629D01*
X0083703Y0135617D01*
X0083755Y0135609D01*
X0083808Y0135604D01*
X0083860Y0135602D01*
X0083897Y0135604D01*
X0083934Y0135609D01*
X0083970Y0135618D01*
X0084005Y0135631D01*
X0084038Y0135647D01*
X0084070Y0135666D01*
X0084100Y0135688D01*
X0084127Y0135713D01*
X0084152Y0135740D01*
X0084174Y0135770D01*
X0084193Y0135802D01*
X0084209Y0135835D01*
X0084222Y0135870D01*
X0084231Y0135906D01*
X0084236Y0135943D01*
X0084238Y0135980D01*
X0084236Y0136016D01*
X0084231Y0136052D01*
X0084223Y0136087D01*
X0084211Y0136122D01*
X0084196Y0136155D01*
X0084178Y0136186D01*
X0084157Y0136216D01*
X0084134Y0136243D01*
X0084108Y0136268D01*
X0084079Y0136291D01*
X0084049Y0136311D01*
X0078886Y0137302D02*
X0078319Y0135602D01*
X0077753Y0137302D01*
X0076254Y0137302D02*
X0075687Y0137302D01*
X0076254Y0137302D02*
X0076291Y0137300D01*
X0076328Y0137295D01*
X0076364Y0137286D01*
X0076399Y0137273D01*
X0076432Y0137257D01*
X0076464Y0137238D01*
X0076494Y0137216D01*
X0076521Y0137191D01*
X0076546Y0137164D01*
X0076568Y0137134D01*
X0076587Y0137102D01*
X0076603Y0137069D01*
X0076616Y0137034D01*
X0076625Y0136998D01*
X0076630Y0136961D01*
X0076632Y0136924D01*
X0076630Y0136887D01*
X0076625Y0136850D01*
X0076616Y0136814D01*
X0076603Y0136779D01*
X0076587Y0136746D01*
X0076568Y0136714D01*
X0076546Y0136684D01*
X0076521Y0136657D01*
X0076494Y0136632D01*
X0076464Y0136610D01*
X0076432Y0136591D01*
X0076399Y0136575D01*
X0076364Y0136562D01*
X0076328Y0136553D01*
X0076291Y0136548D01*
X0076254Y0136546D01*
X0075876Y0136546D01*
X0076159Y0136546D02*
X0076201Y0136544D01*
X0076243Y0136538D01*
X0076285Y0136529D01*
X0076325Y0136516D01*
X0076364Y0136499D01*
X0076401Y0136479D01*
X0076436Y0136456D01*
X0076470Y0136429D01*
X0076500Y0136400D01*
X0076528Y0136368D01*
X0076553Y0136334D01*
X0076575Y0136298D01*
X0076593Y0136260D01*
X0076608Y0136220D01*
X0076619Y0136179D01*
X0076627Y0136137D01*
X0076631Y0136095D01*
X0076631Y0136053D01*
X0076627Y0136011D01*
X0076619Y0135969D01*
X0076608Y0135928D01*
X0076593Y0135888D01*
X0076575Y0135850D01*
X0076553Y0135814D01*
X0076528Y0135780D01*
X0076500Y0135748D01*
X0076470Y0135719D01*
X0076436Y0135692D01*
X0076401Y0135669D01*
X0076364Y0135649D01*
X0076325Y0135632D01*
X0076285Y0135619D01*
X0076243Y0135610D01*
X0076201Y0135604D01*
X0076159Y0135602D01*
X0075687Y0135602D01*
X0074694Y0135602D02*
X0074600Y0135602D01*
X0074600Y0135696D01*
X0074694Y0135696D01*
X0074694Y0135602D01*
X0073135Y0135602D02*
X0072663Y0135602D01*
X0073135Y0135602D02*
X0073177Y0135604D01*
X0073219Y0135610D01*
X0073261Y0135619D01*
X0073301Y0135632D01*
X0073340Y0135649D01*
X0073377Y0135669D01*
X0073412Y0135692D01*
X0073446Y0135719D01*
X0073476Y0135748D01*
X0073504Y0135780D01*
X0073529Y0135814D01*
X0073551Y0135850D01*
X0073569Y0135888D01*
X0073584Y0135928D01*
X0073595Y0135969D01*
X0073603Y0136011D01*
X0073607Y0136053D01*
X0073607Y0136095D01*
X0073603Y0136137D01*
X0073595Y0136179D01*
X0073584Y0136220D01*
X0073569Y0136260D01*
X0073551Y0136298D01*
X0073529Y0136334D01*
X0073504Y0136368D01*
X0073476Y0136400D01*
X0073446Y0136429D01*
X0073412Y0136456D01*
X0073377Y0136479D01*
X0073340Y0136499D01*
X0073301Y0136516D01*
X0073261Y0136529D01*
X0073219Y0136538D01*
X0073177Y0136544D01*
X0073135Y0136546D01*
X0073230Y0136546D02*
X0072852Y0136546D01*
X0073230Y0136546D02*
X0073267Y0136548D01*
X0073304Y0136553D01*
X0073340Y0136562D01*
X0073375Y0136575D01*
X0073408Y0136591D01*
X0073440Y0136610D01*
X0073470Y0136632D01*
X0073497Y0136657D01*
X0073522Y0136684D01*
X0073544Y0136714D01*
X0073563Y0136746D01*
X0073579Y0136779D01*
X0073592Y0136814D01*
X0073601Y0136850D01*
X0073606Y0136887D01*
X0073608Y0136924D01*
X0073606Y0136961D01*
X0073601Y0136998D01*
X0073592Y0137034D01*
X0073579Y0137069D01*
X0073563Y0137102D01*
X0073544Y0137134D01*
X0073522Y0137164D01*
X0073497Y0137191D01*
X0073470Y0137216D01*
X0073440Y0137238D01*
X0073408Y0137257D01*
X0073375Y0137273D01*
X0073340Y0137286D01*
X0073304Y0137295D01*
X0073267Y0137300D01*
X0073230Y0137302D01*
X0072663Y0137302D01*
X0068176Y0136830D02*
X0068176Y0136074D01*
X0068174Y0136033D01*
X0068169Y0135992D01*
X0068160Y0135952D01*
X0068148Y0135913D01*
X0068132Y0135875D01*
X0068113Y0135838D01*
X0068091Y0135803D01*
X0068066Y0135771D01*
X0068038Y0135740D01*
X0068007Y0135712D01*
X0067975Y0135687D01*
X0067940Y0135665D01*
X0067903Y0135646D01*
X0067865Y0135630D01*
X0067826Y0135618D01*
X0067786Y0135609D01*
X0067745Y0135604D01*
X0067704Y0135602D01*
X0067232Y0135602D01*
X0067232Y0137302D01*
X0067704Y0137302D01*
X0067745Y0137300D01*
X0067786Y0137295D01*
X0067826Y0137286D01*
X0067865Y0137274D01*
X0067903Y0137258D01*
X0067940Y0137239D01*
X0067975Y0137217D01*
X0068007Y0137192D01*
X0068038Y0137164D01*
X0068066Y0137133D01*
X0068091Y0137101D01*
X0068113Y0137066D01*
X0068132Y0137029D01*
X0068148Y0136991D01*
X0068160Y0136952D01*
X0068169Y0136912D01*
X0068174Y0136871D01*
X0068176Y0136830D01*
X0065872Y0137302D02*
X0065872Y0135602D01*
X0064928Y0137302D01*
X0064928Y0135602D01*
X0063568Y0135602D02*
X0063568Y0136546D01*
X0063285Y0136546D01*
X0062623Y0136924D02*
X0062625Y0136961D01*
X0062630Y0136998D01*
X0062639Y0137034D01*
X0062652Y0137069D01*
X0062668Y0137102D01*
X0062687Y0137134D01*
X0062709Y0137164D01*
X0062734Y0137191D01*
X0062761Y0137216D01*
X0062791Y0137238D01*
X0062823Y0137257D01*
X0062856Y0137273D01*
X0062891Y0137286D01*
X0062927Y0137295D01*
X0062964Y0137300D01*
X0063001Y0137302D01*
X0063568Y0137302D01*
X0062624Y0136924D02*
X0062624Y0135980D01*
X0062623Y0135980D02*
X0062625Y0135943D01*
X0062630Y0135906D01*
X0062639Y0135870D01*
X0062652Y0135835D01*
X0062668Y0135802D01*
X0062687Y0135770D01*
X0062709Y0135740D01*
X0062734Y0135713D01*
X0062761Y0135688D01*
X0062791Y0135666D01*
X0062823Y0135647D01*
X0062856Y0135631D01*
X0062891Y0135618D01*
X0062927Y0135609D01*
X0062964Y0135604D01*
X0063001Y0135602D01*
X0063568Y0135602D01*
X0053119Y0142492D02*
X0053119Y0144192D01*
X0052647Y0144192D02*
X0053591Y0144192D01*
X0051458Y0143200D02*
X0050939Y0143483D01*
X0051128Y0144191D02*
X0051179Y0144189D01*
X0051229Y0144184D01*
X0051279Y0144175D01*
X0051328Y0144162D01*
X0051376Y0144146D01*
X0051423Y0144127D01*
X0051468Y0144104D01*
X0051511Y0144078D01*
X0051553Y0144049D01*
X0050939Y0143483D02*
X0050909Y0143503D01*
X0050880Y0143526D01*
X0050854Y0143551D01*
X0050831Y0143578D01*
X0050810Y0143608D01*
X0050792Y0143639D01*
X0050777Y0143672D01*
X0050765Y0143707D01*
X0050757Y0143742D01*
X0050752Y0143778D01*
X0050750Y0143814D01*
X0050752Y0143851D01*
X0050757Y0143888D01*
X0050766Y0143924D01*
X0050779Y0143959D01*
X0050795Y0143992D01*
X0050814Y0144024D01*
X0050836Y0144054D01*
X0050861Y0144081D01*
X0050888Y0144106D01*
X0050918Y0144128D01*
X0050950Y0144147D01*
X0050983Y0144163D01*
X0051018Y0144176D01*
X0051054Y0144185D01*
X0051091Y0144190D01*
X0051128Y0144192D01*
X0050703Y0142728D02*
X0050742Y0142692D01*
X0050782Y0142659D01*
X0050825Y0142628D01*
X0050869Y0142600D01*
X0050915Y0142575D01*
X0050963Y0142553D01*
X0051012Y0142535D01*
X0051062Y0142519D01*
X0051113Y0142507D01*
X0051165Y0142499D01*
X0051218Y0142494D01*
X0051270Y0142492D01*
X0051307Y0142494D01*
X0051344Y0142499D01*
X0051380Y0142508D01*
X0051415Y0142521D01*
X0051448Y0142537D01*
X0051480Y0142556D01*
X0051510Y0142578D01*
X0051537Y0142603D01*
X0051562Y0142630D01*
X0051584Y0142660D01*
X0051603Y0142692D01*
X0051619Y0142725D01*
X0051632Y0142760D01*
X0051641Y0142796D01*
X0051646Y0142833D01*
X0051648Y0142870D01*
X0051646Y0142906D01*
X0051641Y0142942D01*
X0051633Y0142977D01*
X0051621Y0143012D01*
X0051606Y0143045D01*
X0051588Y0143076D01*
X0051567Y0143106D01*
X0051544Y0143133D01*
X0051518Y0143158D01*
X0051489Y0143181D01*
X0051459Y0143201D01*
X0049592Y0142492D02*
X0049214Y0143247D01*
X0049119Y0143247D02*
X0048647Y0143247D01*
X0049119Y0143248D02*
X0049161Y0143250D01*
X0049203Y0143256D01*
X0049245Y0143265D01*
X0049285Y0143278D01*
X0049324Y0143295D01*
X0049361Y0143315D01*
X0049396Y0143338D01*
X0049430Y0143365D01*
X0049460Y0143394D01*
X0049488Y0143426D01*
X0049513Y0143460D01*
X0049535Y0143496D01*
X0049553Y0143534D01*
X0049568Y0143574D01*
X0049579Y0143615D01*
X0049587Y0143657D01*
X0049591Y0143699D01*
X0049591Y0143741D01*
X0049587Y0143783D01*
X0049579Y0143825D01*
X0049568Y0143866D01*
X0049553Y0143906D01*
X0049535Y0143944D01*
X0049513Y0143980D01*
X0049488Y0144014D01*
X0049460Y0144046D01*
X0049430Y0144075D01*
X0049396Y0144102D01*
X0049361Y0144125D01*
X0049324Y0144145D01*
X0049285Y0144162D01*
X0049245Y0144175D01*
X0049203Y0144184D01*
X0049161Y0144190D01*
X0049119Y0144192D01*
X0048647Y0144192D01*
X0048647Y0142492D01*
X0037762Y0142492D02*
X0037195Y0143531D01*
X0036817Y0143153D02*
X0037762Y0144192D01*
X0036817Y0144192D02*
X0036817Y0142492D01*
X0035636Y0142492D02*
X0034881Y0142492D01*
X0034881Y0144192D01*
X0033740Y0144192D02*
X0033362Y0144192D01*
X0033325Y0144190D01*
X0033288Y0144185D01*
X0033252Y0144176D01*
X0033217Y0144163D01*
X0033184Y0144147D01*
X0033152Y0144128D01*
X0033122Y0144106D01*
X0033095Y0144081D01*
X0033070Y0144054D01*
X0033048Y0144024D01*
X0033029Y0143992D01*
X0033013Y0143959D01*
X0033000Y0143924D01*
X0032991Y0143888D01*
X0032986Y0143851D01*
X0032984Y0143814D01*
X0032984Y0142870D01*
X0032986Y0142833D01*
X0032991Y0142796D01*
X0033000Y0142760D01*
X0033013Y0142725D01*
X0033029Y0142692D01*
X0033048Y0142660D01*
X0033070Y0142630D01*
X0033095Y0142603D01*
X0033122Y0142578D01*
X0033152Y0142556D01*
X0033184Y0142537D01*
X0033217Y0142521D01*
X0033252Y0142508D01*
X0033288Y0142499D01*
X0033325Y0142494D01*
X0033362Y0142492D01*
X0033740Y0142492D01*
X0031401Y0142492D02*
X0031779Y0144192D01*
X0031023Y0143625D02*
X0031401Y0142492D01*
X0030645Y0142492D02*
X0031023Y0143625D01*
X0030267Y0144192D02*
X0030645Y0142492D01*
X0028930Y0143200D02*
X0028411Y0143483D01*
X0028600Y0144191D02*
X0028651Y0144189D01*
X0028701Y0144184D01*
X0028751Y0144175D01*
X0028800Y0144162D01*
X0028848Y0144146D01*
X0028895Y0144127D01*
X0028940Y0144104D01*
X0028983Y0144078D01*
X0029025Y0144049D01*
X0028411Y0143483D02*
X0028381Y0143503D01*
X0028352Y0143526D01*
X0028326Y0143551D01*
X0028303Y0143578D01*
X0028282Y0143608D01*
X0028264Y0143639D01*
X0028249Y0143672D01*
X0028237Y0143707D01*
X0028229Y0143742D01*
X0028224Y0143778D01*
X0028222Y0143814D01*
X0028224Y0143851D01*
X0028229Y0143888D01*
X0028238Y0143924D01*
X0028251Y0143959D01*
X0028267Y0143992D01*
X0028286Y0144024D01*
X0028308Y0144054D01*
X0028333Y0144081D01*
X0028360Y0144106D01*
X0028390Y0144128D01*
X0028422Y0144147D01*
X0028455Y0144163D01*
X0028490Y0144176D01*
X0028526Y0144185D01*
X0028563Y0144190D01*
X0028600Y0144192D01*
X0028174Y0142728D02*
X0028213Y0142692D01*
X0028253Y0142659D01*
X0028296Y0142628D01*
X0028340Y0142600D01*
X0028386Y0142575D01*
X0028434Y0142553D01*
X0028483Y0142535D01*
X0028533Y0142519D01*
X0028584Y0142507D01*
X0028636Y0142499D01*
X0028689Y0142494D01*
X0028741Y0142492D01*
X0028778Y0142494D01*
X0028815Y0142499D01*
X0028851Y0142508D01*
X0028886Y0142521D01*
X0028919Y0142537D01*
X0028951Y0142556D01*
X0028981Y0142578D01*
X0029008Y0142603D01*
X0029033Y0142630D01*
X0029055Y0142660D01*
X0029074Y0142692D01*
X0029090Y0142725D01*
X0029103Y0142760D01*
X0029112Y0142796D01*
X0029117Y0142833D01*
X0029119Y0142870D01*
X0029120Y0142870D02*
X0029118Y0142906D01*
X0029113Y0142942D01*
X0029105Y0142977D01*
X0029093Y0143012D01*
X0029078Y0143045D01*
X0029060Y0143076D01*
X0029039Y0143106D01*
X0029016Y0143133D01*
X0028990Y0143158D01*
X0028961Y0143181D01*
X0028931Y0143201D01*
X0020023Y0142964D02*
X0020023Y0143720D01*
X0020021Y0143762D01*
X0020015Y0143804D01*
X0020006Y0143846D01*
X0019993Y0143886D01*
X0019976Y0143925D01*
X0019956Y0143962D01*
X0019933Y0143997D01*
X0019906Y0144031D01*
X0019877Y0144061D01*
X0019845Y0144089D01*
X0019811Y0144114D01*
X0019775Y0144136D01*
X0019737Y0144154D01*
X0019697Y0144169D01*
X0019656Y0144180D01*
X0019614Y0144188D01*
X0019572Y0144192D01*
X0019530Y0144192D01*
X0019488Y0144188D01*
X0019446Y0144180D01*
X0019405Y0144169D01*
X0019365Y0144154D01*
X0019327Y0144136D01*
X0019291Y0144114D01*
X0019257Y0144089D01*
X0019225Y0144061D01*
X0019196Y0144031D01*
X0019169Y0143997D01*
X0019146Y0143962D01*
X0019126Y0143925D01*
X0019109Y0143886D01*
X0019096Y0143846D01*
X0019087Y0143804D01*
X0019081Y0143762D01*
X0019079Y0143720D01*
X0019079Y0142964D01*
X0019081Y0142922D01*
X0019087Y0142880D01*
X0019096Y0142838D01*
X0019109Y0142798D01*
X0019126Y0142759D01*
X0019146Y0142722D01*
X0019169Y0142687D01*
X0019196Y0142653D01*
X0019225Y0142623D01*
X0019257Y0142595D01*
X0019291Y0142570D01*
X0019327Y0142548D01*
X0019365Y0142530D01*
X0019405Y0142515D01*
X0019446Y0142504D01*
X0019488Y0142496D01*
X0019530Y0142492D01*
X0019572Y0142492D01*
X0019614Y0142496D01*
X0019656Y0142504D01*
X0019697Y0142515D01*
X0019737Y0142530D01*
X0019775Y0142548D01*
X0019811Y0142570D01*
X0019845Y0142595D01*
X0019877Y0142623D01*
X0019906Y0142653D01*
X0019933Y0142687D01*
X0019956Y0142722D01*
X0019976Y0142759D01*
X0019993Y0142798D01*
X0020006Y0142838D01*
X0020015Y0142880D01*
X0020021Y0142922D01*
X0020023Y0142964D01*
X0018012Y0142492D02*
X0017634Y0142492D01*
X0017823Y0142492D02*
X0017823Y0144192D01*
X0017634Y0144192D02*
X0018012Y0144192D01*
X0016496Y0143720D02*
X0016496Y0142964D01*
X0016495Y0142964D02*
X0016493Y0142923D01*
X0016488Y0142882D01*
X0016479Y0142842D01*
X0016467Y0142803D01*
X0016451Y0142765D01*
X0016432Y0142728D01*
X0016410Y0142693D01*
X0016385Y0142661D01*
X0016357Y0142630D01*
X0016326Y0142602D01*
X0016294Y0142577D01*
X0016259Y0142555D01*
X0016222Y0142536D01*
X0016184Y0142520D01*
X0016145Y0142508D01*
X0016105Y0142499D01*
X0016064Y0142494D01*
X0016023Y0142492D01*
X0015551Y0142492D01*
X0015551Y0144192D01*
X0016023Y0144192D01*
X0016064Y0144190D01*
X0016105Y0144185D01*
X0016145Y0144176D01*
X0016184Y0144164D01*
X0016222Y0144148D01*
X0016259Y0144129D01*
X0016294Y0144107D01*
X0016326Y0144082D01*
X0016357Y0144054D01*
X0016385Y0144023D01*
X0016410Y0143991D01*
X0016432Y0143956D01*
X0016451Y0143919D01*
X0016467Y0143881D01*
X0016479Y0143842D01*
X0016488Y0143802D01*
X0016493Y0143761D01*
X0016495Y0143720D01*
X0014259Y0144192D02*
X0013881Y0142492D01*
X0013503Y0143625D01*
X0013126Y0142492D01*
X0012748Y0144192D01*
X0011411Y0143200D02*
X0010891Y0143483D01*
X0011080Y0144191D02*
X0011131Y0144189D01*
X0011181Y0144184D01*
X0011231Y0144175D01*
X0011280Y0144162D01*
X0011328Y0144146D01*
X0011375Y0144127D01*
X0011420Y0144104D01*
X0011463Y0144078D01*
X0011505Y0144049D01*
X0010891Y0143483D02*
X0010861Y0143503D01*
X0010832Y0143526D01*
X0010806Y0143551D01*
X0010783Y0143578D01*
X0010762Y0143608D01*
X0010744Y0143639D01*
X0010729Y0143672D01*
X0010717Y0143707D01*
X0010709Y0143742D01*
X0010704Y0143778D01*
X0010702Y0143814D01*
X0010704Y0143851D01*
X0010709Y0143888D01*
X0010718Y0143924D01*
X0010731Y0143959D01*
X0010747Y0143992D01*
X0010766Y0144024D01*
X0010788Y0144054D01*
X0010813Y0144081D01*
X0010840Y0144106D01*
X0010870Y0144128D01*
X0010902Y0144147D01*
X0010935Y0144163D01*
X0010970Y0144176D01*
X0011006Y0144185D01*
X0011043Y0144190D01*
X0011080Y0144192D01*
X0010655Y0142728D02*
X0010694Y0142692D01*
X0010734Y0142659D01*
X0010777Y0142628D01*
X0010821Y0142600D01*
X0010867Y0142575D01*
X0010915Y0142553D01*
X0010964Y0142535D01*
X0011014Y0142519D01*
X0011065Y0142507D01*
X0011117Y0142499D01*
X0011170Y0142494D01*
X0011222Y0142492D01*
X0011259Y0142494D01*
X0011296Y0142499D01*
X0011332Y0142508D01*
X0011367Y0142521D01*
X0011400Y0142537D01*
X0011432Y0142556D01*
X0011462Y0142578D01*
X0011489Y0142603D01*
X0011514Y0142630D01*
X0011536Y0142660D01*
X0011555Y0142692D01*
X0011571Y0142725D01*
X0011584Y0142760D01*
X0011593Y0142796D01*
X0011598Y0142833D01*
X0011600Y0142870D01*
X0011598Y0142906D01*
X0011593Y0142942D01*
X0011585Y0142977D01*
X0011573Y0143012D01*
X0011558Y0143045D01*
X0011540Y0143076D01*
X0011519Y0143106D01*
X0011496Y0143133D01*
X0011470Y0143158D01*
X0011441Y0143181D01*
X0011411Y0143201D01*
X0011836Y0118574D02*
X0012403Y0117771D01*
X0012403Y0116874D01*
X0012403Y0117771D02*
X0012970Y0118574D01*
X0014091Y0118196D02*
X0014563Y0118574D01*
X0014563Y0116874D01*
X0014091Y0116874D02*
X0015035Y0116874D01*
X0059474Y0102912D02*
X0059474Y0101684D01*
X0059476Y0101642D01*
X0059482Y0101600D01*
X0059491Y0101558D01*
X0059504Y0101518D01*
X0059521Y0101479D01*
X0059541Y0101442D01*
X0059564Y0101407D01*
X0059591Y0101373D01*
X0059620Y0101343D01*
X0059652Y0101315D01*
X0059686Y0101290D01*
X0059722Y0101268D01*
X0059760Y0101250D01*
X0059800Y0101235D01*
X0059841Y0101224D01*
X0059883Y0101216D01*
X0059925Y0101212D01*
X0059967Y0101212D01*
X0060009Y0101216D01*
X0060051Y0101224D01*
X0060092Y0101235D01*
X0060132Y0101250D01*
X0060170Y0101268D01*
X0060206Y0101290D01*
X0060240Y0101315D01*
X0060272Y0101343D01*
X0060301Y0101373D01*
X0060328Y0101407D01*
X0060351Y0101442D01*
X0060371Y0101479D01*
X0060388Y0101518D01*
X0060401Y0101558D01*
X0060410Y0101600D01*
X0060416Y0101642D01*
X0060418Y0101684D01*
X0060418Y0102912D01*
X0061706Y0102912D02*
X0062273Y0102912D01*
X0062310Y0102910D01*
X0062347Y0102905D01*
X0062383Y0102896D01*
X0062418Y0102883D01*
X0062451Y0102867D01*
X0062483Y0102848D01*
X0062513Y0102826D01*
X0062540Y0102801D01*
X0062565Y0102774D01*
X0062587Y0102744D01*
X0062606Y0102712D01*
X0062622Y0102679D01*
X0062635Y0102644D01*
X0062644Y0102608D01*
X0062649Y0102571D01*
X0062651Y0102534D01*
X0062649Y0102497D01*
X0062644Y0102460D01*
X0062635Y0102424D01*
X0062622Y0102389D01*
X0062606Y0102356D01*
X0062587Y0102324D01*
X0062565Y0102294D01*
X0062540Y0102267D01*
X0062513Y0102242D01*
X0062483Y0102220D01*
X0062451Y0102201D01*
X0062418Y0102185D01*
X0062383Y0102172D01*
X0062347Y0102163D01*
X0062310Y0102158D01*
X0062273Y0102156D01*
X0062273Y0102157D02*
X0061895Y0102157D01*
X0062178Y0102156D02*
X0062220Y0102154D01*
X0062262Y0102148D01*
X0062304Y0102139D01*
X0062344Y0102126D01*
X0062383Y0102109D01*
X0062420Y0102089D01*
X0062455Y0102066D01*
X0062489Y0102039D01*
X0062519Y0102010D01*
X0062547Y0101978D01*
X0062572Y0101944D01*
X0062594Y0101908D01*
X0062612Y0101870D01*
X0062627Y0101830D01*
X0062638Y0101789D01*
X0062646Y0101747D01*
X0062650Y0101705D01*
X0062650Y0101663D01*
X0062646Y0101621D01*
X0062638Y0101579D01*
X0062627Y0101538D01*
X0062612Y0101498D01*
X0062594Y0101460D01*
X0062572Y0101424D01*
X0062547Y0101390D01*
X0062519Y0101358D01*
X0062489Y0101329D01*
X0062455Y0101302D01*
X0062420Y0101279D01*
X0062383Y0101259D01*
X0062344Y0101242D01*
X0062304Y0101229D01*
X0062262Y0101220D01*
X0062220Y0101214D01*
X0062178Y0101212D01*
X0061706Y0101212D01*
X0087427Y0100373D02*
X0087946Y0100090D01*
X0087757Y0099382D02*
X0087705Y0099384D01*
X0087652Y0099389D01*
X0087600Y0099397D01*
X0087549Y0099409D01*
X0087499Y0099425D01*
X0087450Y0099443D01*
X0087402Y0099465D01*
X0087356Y0099490D01*
X0087312Y0099518D01*
X0087269Y0099549D01*
X0087229Y0099582D01*
X0087190Y0099618D01*
X0087946Y0100090D02*
X0087976Y0100070D01*
X0088005Y0100047D01*
X0088031Y0100022D01*
X0088054Y0099995D01*
X0088075Y0099965D01*
X0088093Y0099934D01*
X0088108Y0099901D01*
X0088120Y0099866D01*
X0088128Y0099831D01*
X0088133Y0099795D01*
X0088135Y0099759D01*
X0088133Y0099722D01*
X0088128Y0099685D01*
X0088119Y0099649D01*
X0088106Y0099614D01*
X0088090Y0099581D01*
X0088071Y0099549D01*
X0088049Y0099519D01*
X0088024Y0099492D01*
X0087997Y0099467D01*
X0087967Y0099445D01*
X0087935Y0099426D01*
X0087902Y0099410D01*
X0087867Y0099397D01*
X0087831Y0099388D01*
X0087794Y0099383D01*
X0087757Y0099381D01*
X0088041Y0100939D02*
X0087999Y0100968D01*
X0087956Y0100994D01*
X0087911Y0101017D01*
X0087864Y0101036D01*
X0087816Y0101052D01*
X0087767Y0101065D01*
X0087717Y0101074D01*
X0087667Y0101079D01*
X0087616Y0101081D01*
X0087616Y0101082D02*
X0087579Y0101080D01*
X0087542Y0101075D01*
X0087506Y0101066D01*
X0087471Y0101053D01*
X0087438Y0101037D01*
X0087406Y0101018D01*
X0087376Y0100996D01*
X0087349Y0100971D01*
X0087324Y0100944D01*
X0087302Y0100914D01*
X0087283Y0100882D01*
X0087267Y0100849D01*
X0087254Y0100814D01*
X0087245Y0100778D01*
X0087240Y0100741D01*
X0087238Y0100704D01*
X0087237Y0100704D02*
X0087239Y0100668D01*
X0087244Y0100632D01*
X0087252Y0100597D01*
X0087264Y0100562D01*
X0087279Y0100529D01*
X0087297Y0100498D01*
X0087318Y0100468D01*
X0087341Y0100441D01*
X0087367Y0100416D01*
X0087396Y0100393D01*
X0087426Y0100373D01*
X0089264Y0100704D02*
X0089264Y0099759D01*
X0089266Y0099722D01*
X0089271Y0099685D01*
X0089280Y0099649D01*
X0089293Y0099614D01*
X0089309Y0099581D01*
X0089328Y0099549D01*
X0089350Y0099519D01*
X0089375Y0099492D01*
X0089402Y0099467D01*
X0089432Y0099445D01*
X0089464Y0099426D01*
X0089497Y0099410D01*
X0089532Y0099397D01*
X0089568Y0099388D01*
X0089605Y0099383D01*
X0089642Y0099381D01*
X0090020Y0099381D01*
X0091160Y0099381D02*
X0091160Y0101081D01*
X0090020Y0101081D02*
X0089642Y0101081D01*
X0089642Y0101082D02*
X0089605Y0101080D01*
X0089568Y0101075D01*
X0089532Y0101066D01*
X0089497Y0101053D01*
X0089464Y0101037D01*
X0089432Y0101018D01*
X0089402Y0100996D01*
X0089375Y0100971D01*
X0089350Y0100944D01*
X0089328Y0100914D01*
X0089309Y0100882D01*
X0089293Y0100849D01*
X0089280Y0100814D01*
X0089271Y0100778D01*
X0089266Y0100741D01*
X0089264Y0100704D01*
X0091160Y0099381D02*
X0091916Y0099381D01*
X0092055Y0090845D02*
X0092621Y0089145D01*
X0092480Y0089570D02*
X0091630Y0089570D01*
X0091488Y0089145D02*
X0092055Y0090845D01*
X0090295Y0090373D02*
X0090295Y0089617D01*
X0090293Y0089576D01*
X0090288Y0089535D01*
X0090279Y0089495D01*
X0090267Y0089456D01*
X0090251Y0089418D01*
X0090232Y0089381D01*
X0090210Y0089346D01*
X0090185Y0089314D01*
X0090157Y0089283D01*
X0090126Y0089255D01*
X0090094Y0089230D01*
X0090059Y0089208D01*
X0090022Y0089189D01*
X0089984Y0089173D01*
X0089945Y0089161D01*
X0089905Y0089152D01*
X0089864Y0089147D01*
X0089823Y0089145D01*
X0089351Y0089145D01*
X0089351Y0090845D01*
X0089823Y0090845D01*
X0089864Y0090843D01*
X0089905Y0090838D01*
X0089945Y0090829D01*
X0089984Y0090817D01*
X0090022Y0090801D01*
X0090059Y0090782D01*
X0090094Y0090760D01*
X0090126Y0090735D01*
X0090157Y0090707D01*
X0090185Y0090676D01*
X0090210Y0090644D01*
X0090232Y0090609D01*
X0090251Y0090572D01*
X0090267Y0090534D01*
X0090279Y0090495D01*
X0090288Y0090455D01*
X0090293Y0090414D01*
X0090295Y0090373D01*
X0087946Y0089854D02*
X0087427Y0090137D01*
X0087616Y0090845D02*
X0087667Y0090843D01*
X0087717Y0090838D01*
X0087767Y0090829D01*
X0087816Y0090816D01*
X0087864Y0090800D01*
X0087911Y0090781D01*
X0087956Y0090758D01*
X0087999Y0090732D01*
X0088041Y0090703D01*
X0087426Y0090136D02*
X0087396Y0090156D01*
X0087367Y0090179D01*
X0087341Y0090204D01*
X0087318Y0090231D01*
X0087297Y0090261D01*
X0087279Y0090292D01*
X0087264Y0090325D01*
X0087252Y0090360D01*
X0087244Y0090395D01*
X0087239Y0090431D01*
X0087237Y0090467D01*
X0087238Y0090467D02*
X0087240Y0090504D01*
X0087245Y0090541D01*
X0087254Y0090577D01*
X0087267Y0090612D01*
X0087283Y0090645D01*
X0087302Y0090677D01*
X0087324Y0090707D01*
X0087349Y0090734D01*
X0087376Y0090759D01*
X0087406Y0090781D01*
X0087438Y0090800D01*
X0087471Y0090816D01*
X0087506Y0090829D01*
X0087542Y0090838D01*
X0087579Y0090843D01*
X0087616Y0090845D01*
X0087190Y0089381D02*
X0087229Y0089345D01*
X0087269Y0089312D01*
X0087312Y0089281D01*
X0087356Y0089253D01*
X0087402Y0089228D01*
X0087450Y0089206D01*
X0087499Y0089188D01*
X0087549Y0089172D01*
X0087600Y0089160D01*
X0087652Y0089152D01*
X0087705Y0089147D01*
X0087757Y0089145D01*
X0087794Y0089147D01*
X0087831Y0089152D01*
X0087867Y0089161D01*
X0087902Y0089174D01*
X0087935Y0089190D01*
X0087967Y0089209D01*
X0087997Y0089231D01*
X0088024Y0089256D01*
X0088049Y0089283D01*
X0088071Y0089313D01*
X0088090Y0089345D01*
X0088106Y0089378D01*
X0088119Y0089413D01*
X0088128Y0089449D01*
X0088133Y0089486D01*
X0088135Y0089523D01*
X0088133Y0089559D01*
X0088128Y0089595D01*
X0088120Y0089630D01*
X0088108Y0089665D01*
X0088093Y0089698D01*
X0088075Y0089729D01*
X0088054Y0089759D01*
X0088031Y0089786D01*
X0088005Y0089811D01*
X0087976Y0089834D01*
X0087946Y0089854D01*
X0110458Y0039499D02*
X0110458Y0038271D01*
X0110460Y0038229D01*
X0110466Y0038187D01*
X0110475Y0038145D01*
X0110488Y0038105D01*
X0110505Y0038066D01*
X0110525Y0038029D01*
X0110548Y0037994D01*
X0110575Y0037960D01*
X0110604Y0037930D01*
X0110636Y0037902D01*
X0110670Y0037877D01*
X0110706Y0037855D01*
X0110744Y0037837D01*
X0110784Y0037822D01*
X0110825Y0037811D01*
X0110867Y0037803D01*
X0110909Y0037799D01*
X0110951Y0037799D01*
X0110993Y0037803D01*
X0111035Y0037811D01*
X0111076Y0037822D01*
X0111116Y0037837D01*
X0111154Y0037855D01*
X0111190Y0037877D01*
X0111224Y0037902D01*
X0111256Y0037930D01*
X0111285Y0037960D01*
X0111312Y0037994D01*
X0111335Y0038029D01*
X0111355Y0038066D01*
X0111372Y0038105D01*
X0111385Y0038145D01*
X0111394Y0038187D01*
X0111400Y0038229D01*
X0111402Y0038271D01*
X0111403Y0038271D02*
X0111403Y0039499D01*
X0113068Y0039499D02*
X0112690Y0038177D01*
X0113635Y0038177D01*
X0113351Y0038554D02*
X0113351Y0037799D01*
X0071295Y0008008D02*
X0070728Y0008008D01*
X0071295Y0008009D02*
X0071332Y0008007D01*
X0071369Y0008002D01*
X0071405Y0007993D01*
X0071440Y0007980D01*
X0071473Y0007964D01*
X0071505Y0007945D01*
X0071535Y0007923D01*
X0071562Y0007898D01*
X0071587Y0007871D01*
X0071609Y0007841D01*
X0071628Y0007809D01*
X0071644Y0007776D01*
X0071657Y0007741D01*
X0071666Y0007705D01*
X0071671Y0007668D01*
X0071673Y0007631D01*
X0071671Y0007594D01*
X0071666Y0007557D01*
X0071657Y0007521D01*
X0071644Y0007486D01*
X0071628Y0007453D01*
X0071609Y0007421D01*
X0071587Y0007391D01*
X0071562Y0007364D01*
X0071535Y0007339D01*
X0071505Y0007317D01*
X0071473Y0007298D01*
X0071440Y0007282D01*
X0071405Y0007269D01*
X0071369Y0007260D01*
X0071332Y0007255D01*
X0071295Y0007253D01*
X0070917Y0007253D01*
X0071200Y0007253D02*
X0071242Y0007251D01*
X0071284Y0007245D01*
X0071326Y0007236D01*
X0071366Y0007223D01*
X0071405Y0007206D01*
X0071442Y0007186D01*
X0071477Y0007163D01*
X0071511Y0007136D01*
X0071541Y0007107D01*
X0071569Y0007075D01*
X0071594Y0007041D01*
X0071616Y0007005D01*
X0071634Y0006967D01*
X0071649Y0006927D01*
X0071660Y0006886D01*
X0071668Y0006844D01*
X0071672Y0006802D01*
X0071672Y0006760D01*
X0071668Y0006718D01*
X0071660Y0006676D01*
X0071649Y0006635D01*
X0071634Y0006595D01*
X0071616Y0006557D01*
X0071594Y0006521D01*
X0071569Y0006487D01*
X0071541Y0006455D01*
X0071511Y0006426D01*
X0071477Y0006399D01*
X0071442Y0006376D01*
X0071405Y0006356D01*
X0071366Y0006339D01*
X0071326Y0006326D01*
X0071284Y0006317D01*
X0071242Y0006311D01*
X0071200Y0006309D01*
X0071200Y0006308D02*
X0070728Y0006308D01*
X0069512Y0006308D02*
X0068568Y0006308D01*
X0069040Y0006308D02*
X0069040Y0008008D01*
X0068568Y0007631D01*
X0067509Y0008008D02*
X0067131Y0008008D01*
X0067131Y0008009D02*
X0067094Y0008007D01*
X0067057Y0008002D01*
X0067021Y0007993D01*
X0066986Y0007980D01*
X0066953Y0007964D01*
X0066921Y0007945D01*
X0066891Y0007923D01*
X0066864Y0007898D01*
X0066839Y0007871D01*
X0066817Y0007841D01*
X0066798Y0007809D01*
X0066782Y0007776D01*
X0066769Y0007741D01*
X0066760Y0007705D01*
X0066755Y0007668D01*
X0066753Y0007631D01*
X0066753Y0006686D01*
X0066755Y0006649D01*
X0066760Y0006612D01*
X0066769Y0006576D01*
X0066782Y0006541D01*
X0066798Y0006508D01*
X0066817Y0006476D01*
X0066839Y0006446D01*
X0066864Y0006419D01*
X0066891Y0006394D01*
X0066921Y0006372D01*
X0066953Y0006353D01*
X0066986Y0006337D01*
X0067021Y0006324D01*
X0067057Y0006315D01*
X0067094Y0006310D01*
X0067131Y0006308D01*
X0067509Y0006308D01*
X0075025Y0150759D02*
X0075497Y0150759D01*
X0075025Y0150759D02*
X0075025Y0152459D01*
X0075497Y0152459D01*
X0075538Y0152457D01*
X0075579Y0152452D01*
X0075619Y0152443D01*
X0075658Y0152431D01*
X0075696Y0152415D01*
X0075733Y0152396D01*
X0075768Y0152374D01*
X0075800Y0152349D01*
X0075831Y0152321D01*
X0075859Y0152290D01*
X0075884Y0152258D01*
X0075906Y0152223D01*
X0075925Y0152186D01*
X0075941Y0152148D01*
X0075953Y0152109D01*
X0075962Y0152069D01*
X0075967Y0152028D01*
X0075969Y0151987D01*
X0075970Y0151987D02*
X0075970Y0151232D01*
X0075969Y0151232D02*
X0075967Y0151191D01*
X0075962Y0151150D01*
X0075953Y0151110D01*
X0075941Y0151071D01*
X0075925Y0151033D01*
X0075906Y0150996D01*
X0075884Y0150961D01*
X0075859Y0150929D01*
X0075831Y0150898D01*
X0075800Y0150870D01*
X0075768Y0150845D01*
X0075733Y0150823D01*
X0075696Y0150804D01*
X0075658Y0150788D01*
X0075619Y0150776D01*
X0075579Y0150767D01*
X0075538Y0150762D01*
X0075497Y0150760D01*
X0077109Y0150759D02*
X0077486Y0150759D01*
X0077297Y0150759D02*
X0077297Y0152459D01*
X0077109Y0152459D02*
X0077486Y0152459D01*
X0078717Y0151751D02*
X0079237Y0151468D01*
X0079048Y0150760D02*
X0078996Y0150762D01*
X0078943Y0150767D01*
X0078891Y0150775D01*
X0078840Y0150787D01*
X0078790Y0150803D01*
X0078741Y0150821D01*
X0078693Y0150843D01*
X0078647Y0150868D01*
X0078603Y0150896D01*
X0078560Y0150927D01*
X0078520Y0150960D01*
X0078481Y0150996D01*
X0079237Y0151468D02*
X0079267Y0151448D01*
X0079296Y0151425D01*
X0079322Y0151400D01*
X0079345Y0151373D01*
X0079366Y0151343D01*
X0079384Y0151312D01*
X0079399Y0151279D01*
X0079411Y0151244D01*
X0079419Y0151209D01*
X0079424Y0151173D01*
X0079426Y0151137D01*
X0079424Y0151100D01*
X0079419Y0151063D01*
X0079410Y0151027D01*
X0079397Y0150992D01*
X0079381Y0150959D01*
X0079362Y0150927D01*
X0079340Y0150897D01*
X0079315Y0150870D01*
X0079288Y0150845D01*
X0079258Y0150823D01*
X0079226Y0150804D01*
X0079193Y0150788D01*
X0079158Y0150775D01*
X0079122Y0150766D01*
X0079085Y0150761D01*
X0079048Y0150759D01*
X0079331Y0152317D02*
X0079289Y0152346D01*
X0079246Y0152372D01*
X0079201Y0152395D01*
X0079154Y0152414D01*
X0079106Y0152430D01*
X0079057Y0152443D01*
X0079007Y0152452D01*
X0078957Y0152457D01*
X0078906Y0152459D01*
X0078906Y0152460D02*
X0078869Y0152458D01*
X0078832Y0152453D01*
X0078796Y0152444D01*
X0078761Y0152431D01*
X0078728Y0152415D01*
X0078696Y0152396D01*
X0078666Y0152374D01*
X0078639Y0152349D01*
X0078614Y0152322D01*
X0078592Y0152292D01*
X0078573Y0152260D01*
X0078557Y0152227D01*
X0078544Y0152192D01*
X0078535Y0152156D01*
X0078530Y0152119D01*
X0078528Y0152082D01*
X0078530Y0152046D01*
X0078535Y0152010D01*
X0078543Y0151975D01*
X0078555Y0151940D01*
X0078570Y0151907D01*
X0078588Y0151876D01*
X0078609Y0151846D01*
X0078632Y0151819D01*
X0078658Y0151794D01*
X0078687Y0151771D01*
X0078717Y0151751D01*
X0080715Y0151515D02*
X0081188Y0151515D01*
X0081230Y0151517D01*
X0081272Y0151523D01*
X0081314Y0151532D01*
X0081354Y0151545D01*
X0081393Y0151562D01*
X0081430Y0151582D01*
X0081465Y0151605D01*
X0081499Y0151632D01*
X0081529Y0151661D01*
X0081557Y0151693D01*
X0081582Y0151727D01*
X0081604Y0151763D01*
X0081622Y0151801D01*
X0081637Y0151841D01*
X0081648Y0151882D01*
X0081656Y0151924D01*
X0081660Y0151966D01*
X0081660Y0152008D01*
X0081656Y0152050D01*
X0081648Y0152092D01*
X0081637Y0152133D01*
X0081622Y0152173D01*
X0081604Y0152211D01*
X0081582Y0152247D01*
X0081557Y0152281D01*
X0081529Y0152313D01*
X0081499Y0152342D01*
X0081465Y0152369D01*
X0081430Y0152392D01*
X0081393Y0152412D01*
X0081354Y0152429D01*
X0081314Y0152442D01*
X0081272Y0152451D01*
X0081230Y0152457D01*
X0081188Y0152459D01*
X0080715Y0152459D01*
X0080715Y0150759D01*
X0082811Y0150759D02*
X0083567Y0150759D01*
X0082811Y0150759D02*
X0082811Y0152459D01*
X0084648Y0151184D02*
X0085498Y0151184D01*
X0085640Y0150759D02*
X0085073Y0152459D01*
X0084507Y0150759D01*
X0087233Y0150759D02*
X0087233Y0151657D01*
X0087800Y0152459D01*
X0087233Y0151657D02*
X0086667Y0152459D01*
D13*
X0017589Y0037758D03*
D14*
X0087299Y0079015D02*
X0087910Y0079015D01*
X0087958Y0079017D01*
X0088006Y0079023D01*
X0088053Y0079032D01*
X0088099Y0079045D01*
X0088144Y0079062D01*
X0088187Y0079082D01*
X0088229Y0079105D01*
X0088269Y0079132D01*
X0088307Y0079161D01*
X0088342Y0079194D01*
X0088375Y0079229D01*
X0088404Y0079267D01*
X0088431Y0079307D01*
X0088454Y0079349D01*
X0088474Y0079392D01*
X0088491Y0079437D01*
X0088504Y0079483D01*
X0088513Y0079530D01*
X0088519Y0079578D01*
X0088521Y0079626D01*
X0088519Y0079674D01*
X0088513Y0079722D01*
X0088504Y0079769D01*
X0088491Y0079815D01*
X0088474Y0079860D01*
X0088454Y0079903D01*
X0088431Y0079945D01*
X0088404Y0079985D01*
X0088375Y0080023D01*
X0088342Y0080058D01*
X0088307Y0080091D01*
X0088269Y0080120D01*
X0088229Y0080147D01*
X0088187Y0080170D01*
X0088144Y0080190D01*
X0088099Y0080207D01*
X0088053Y0080220D01*
X0088006Y0080229D01*
X0087958Y0080235D01*
X0087910Y0080237D01*
X0088032Y0080237D02*
X0087543Y0080237D01*
X0088032Y0080237D02*
X0088075Y0080239D01*
X0088117Y0080244D01*
X0088159Y0080254D01*
X0088199Y0080266D01*
X0088239Y0080283D01*
X0088277Y0080303D01*
X0088312Y0080325D01*
X0088346Y0080351D01*
X0088378Y0080380D01*
X0088407Y0080412D01*
X0088433Y0080446D01*
X0088455Y0080482D01*
X0088475Y0080519D01*
X0088492Y0080559D01*
X0088504Y0080599D01*
X0088514Y0080641D01*
X0088519Y0080683D01*
X0088521Y0080726D01*
X0088519Y0080769D01*
X0088514Y0080811D01*
X0088504Y0080853D01*
X0088492Y0080893D01*
X0088475Y0080933D01*
X0088455Y0080971D01*
X0088433Y0081006D01*
X0088407Y0081040D01*
X0088378Y0081072D01*
X0088346Y0081101D01*
X0088312Y0081127D01*
X0088277Y0081149D01*
X0088239Y0081169D01*
X0088199Y0081186D01*
X0088159Y0081198D01*
X0088117Y0081208D01*
X0088075Y0081213D01*
X0088032Y0081215D01*
X0087299Y0081215D01*
X0089361Y0079137D02*
X0089483Y0079137D01*
X0089483Y0079015D01*
X0089361Y0079015D01*
X0089361Y0079137D01*
X0090323Y0079015D02*
X0090934Y0079015D01*
X0090982Y0079017D01*
X0091030Y0079023D01*
X0091077Y0079032D01*
X0091123Y0079045D01*
X0091168Y0079062D01*
X0091211Y0079082D01*
X0091253Y0079105D01*
X0091293Y0079132D01*
X0091331Y0079161D01*
X0091366Y0079194D01*
X0091399Y0079229D01*
X0091428Y0079267D01*
X0091455Y0079307D01*
X0091478Y0079349D01*
X0091498Y0079392D01*
X0091515Y0079437D01*
X0091528Y0079483D01*
X0091537Y0079530D01*
X0091543Y0079578D01*
X0091545Y0079626D01*
X0091543Y0079674D01*
X0091537Y0079722D01*
X0091528Y0079769D01*
X0091515Y0079815D01*
X0091498Y0079860D01*
X0091478Y0079903D01*
X0091455Y0079945D01*
X0091428Y0079985D01*
X0091399Y0080023D01*
X0091366Y0080058D01*
X0091331Y0080091D01*
X0091293Y0080120D01*
X0091253Y0080147D01*
X0091211Y0080170D01*
X0091168Y0080190D01*
X0091123Y0080207D01*
X0091077Y0080220D01*
X0091030Y0080229D01*
X0090982Y0080235D01*
X0090934Y0080237D01*
X0091056Y0080237D02*
X0090567Y0080237D01*
X0091056Y0080237D02*
X0091099Y0080239D01*
X0091141Y0080244D01*
X0091183Y0080254D01*
X0091223Y0080266D01*
X0091263Y0080283D01*
X0091301Y0080303D01*
X0091336Y0080325D01*
X0091370Y0080351D01*
X0091402Y0080380D01*
X0091431Y0080412D01*
X0091457Y0080446D01*
X0091479Y0080482D01*
X0091499Y0080519D01*
X0091516Y0080559D01*
X0091528Y0080599D01*
X0091538Y0080641D01*
X0091543Y0080683D01*
X0091545Y0080726D01*
X0091543Y0080769D01*
X0091538Y0080811D01*
X0091528Y0080853D01*
X0091516Y0080893D01*
X0091499Y0080933D01*
X0091479Y0080971D01*
X0091457Y0081006D01*
X0091431Y0081040D01*
X0091402Y0081072D01*
X0091370Y0081101D01*
X0091336Y0081127D01*
X0091301Y0081149D01*
X0091263Y0081169D01*
X0091223Y0081186D01*
X0091183Y0081198D01*
X0091141Y0081208D01*
X0091099Y0081213D01*
X0091056Y0081215D01*
X0090323Y0081215D01*
X0092361Y0081215D02*
X0093094Y0079015D01*
X0093827Y0081215D01*
X0092160Y0118620D02*
X0091549Y0118620D01*
X0091549Y0120820D01*
X0092160Y0120820D01*
X0092208Y0120818D01*
X0092256Y0120812D01*
X0092303Y0120803D01*
X0092349Y0120790D01*
X0092394Y0120773D01*
X0092437Y0120753D01*
X0092479Y0120730D01*
X0092519Y0120703D01*
X0092557Y0120674D01*
X0092592Y0120641D01*
X0092625Y0120606D01*
X0092654Y0120568D01*
X0092681Y0120528D01*
X0092704Y0120486D01*
X0092724Y0120443D01*
X0092741Y0120398D01*
X0092754Y0120352D01*
X0092763Y0120305D01*
X0092769Y0120257D01*
X0092771Y0120209D01*
X0092771Y0119231D01*
X0092769Y0119183D01*
X0092763Y0119135D01*
X0092754Y0119088D01*
X0092741Y0119042D01*
X0092724Y0118997D01*
X0092704Y0118954D01*
X0092681Y0118912D01*
X0092654Y0118872D01*
X0092625Y0118834D01*
X0092592Y0118799D01*
X0092557Y0118766D01*
X0092519Y0118737D01*
X0092479Y0118710D01*
X0092437Y0118687D01*
X0092394Y0118667D01*
X0092349Y0118650D01*
X0092303Y0118637D01*
X0092256Y0118628D01*
X0092208Y0118622D01*
X0092160Y0118620D01*
X0090467Y0118620D02*
X0090467Y0120820D01*
X0089245Y0120820D02*
X0089245Y0118620D01*
X0088163Y0118620D02*
X0087429Y0118620D01*
X0087386Y0118622D01*
X0087344Y0118627D01*
X0087302Y0118637D01*
X0087262Y0118649D01*
X0087222Y0118666D01*
X0087185Y0118686D01*
X0087149Y0118708D01*
X0087115Y0118734D01*
X0087083Y0118763D01*
X0087054Y0118795D01*
X0087028Y0118829D01*
X0087006Y0118865D01*
X0086986Y0118902D01*
X0086969Y0118942D01*
X0086957Y0118982D01*
X0086947Y0119024D01*
X0086942Y0119066D01*
X0086940Y0119109D01*
X0086941Y0119109D02*
X0086941Y0120331D01*
X0086940Y0120331D02*
X0086942Y0120374D01*
X0086947Y0120416D01*
X0086957Y0120458D01*
X0086969Y0120498D01*
X0086986Y0120538D01*
X0087006Y0120575D01*
X0087028Y0120611D01*
X0087054Y0120645D01*
X0087083Y0120677D01*
X0087115Y0120706D01*
X0087149Y0120732D01*
X0087184Y0120754D01*
X0087222Y0120774D01*
X0087262Y0120791D01*
X0087302Y0120803D01*
X0087344Y0120813D01*
X0087386Y0120818D01*
X0087429Y0120820D01*
X0088163Y0120820D01*
X0088163Y0119842D02*
X0088163Y0118620D01*
X0088163Y0119842D02*
X0087796Y0119842D01*
X0089245Y0120820D02*
X0090467Y0118620D01*
D15*
X0008391Y0010744D02*
X0008391Y0007044D01*
X0010035Y0007044D01*
X0009624Y0009099D02*
X0008391Y0009099D01*
X0008391Y0010744D02*
X0010035Y0010744D01*
X0011367Y0009921D02*
X0011369Y0009977D01*
X0011375Y0010033D01*
X0011384Y0010088D01*
X0011397Y0010143D01*
X0011414Y0010196D01*
X0011435Y0010248D01*
X0011459Y0010299D01*
X0011487Y0010348D01*
X0011517Y0010395D01*
X0011551Y0010440D01*
X0011588Y0010482D01*
X0011628Y0010522D01*
X0011670Y0010559D01*
X0011715Y0010593D01*
X0011762Y0010623D01*
X0011811Y0010651D01*
X0011862Y0010675D01*
X0011914Y0010696D01*
X0011967Y0010713D01*
X0012022Y0010726D01*
X0012077Y0010735D01*
X0012133Y0010741D01*
X0012189Y0010743D01*
X0011366Y0009921D02*
X0011368Y0009867D01*
X0011373Y0009813D01*
X0011382Y0009759D01*
X0011394Y0009707D01*
X0011410Y0009655D01*
X0011428Y0009604D01*
X0011451Y0009555D01*
X0011476Y0009507D01*
X0011504Y0009461D01*
X0011536Y0009416D01*
X0011570Y0009374D01*
X0011607Y0009335D01*
X0011646Y0009297D01*
X0011688Y0009263D01*
X0011731Y0009231D01*
X0011777Y0009202D01*
X0011778Y0009202D02*
X0012908Y0008585D01*
X0012497Y0007044D02*
X0012416Y0007046D01*
X0012336Y0007051D01*
X0012256Y0007061D01*
X0012176Y0007074D01*
X0012097Y0007091D01*
X0012019Y0007111D01*
X0011942Y0007135D01*
X0011866Y0007163D01*
X0011792Y0007194D01*
X0011719Y0007228D01*
X0011648Y0007266D01*
X0011578Y0007307D01*
X0011511Y0007351D01*
X0011445Y0007398D01*
X0011382Y0007449D01*
X0011322Y0007502D01*
X0011264Y0007558D01*
X0012908Y0008585D02*
X0012954Y0008556D01*
X0012997Y0008524D01*
X0013039Y0008490D01*
X0013078Y0008452D01*
X0013115Y0008413D01*
X0013149Y0008371D01*
X0013181Y0008326D01*
X0013209Y0008280D01*
X0013234Y0008232D01*
X0013257Y0008183D01*
X0013275Y0008132D01*
X0013291Y0008080D01*
X0013303Y0008028D01*
X0013312Y0007974D01*
X0013317Y0007920D01*
X0013319Y0007866D01*
X0013317Y0007810D01*
X0013311Y0007754D01*
X0013302Y0007699D01*
X0013289Y0007644D01*
X0013272Y0007591D01*
X0013251Y0007539D01*
X0013227Y0007488D01*
X0013199Y0007439D01*
X0013169Y0007392D01*
X0013135Y0007347D01*
X0013098Y0007305D01*
X0013058Y0007265D01*
X0013016Y0007228D01*
X0012971Y0007194D01*
X0012924Y0007164D01*
X0012875Y0007136D01*
X0012824Y0007112D01*
X0012772Y0007091D01*
X0012719Y0007074D01*
X0012664Y0007061D01*
X0012609Y0007052D01*
X0012553Y0007046D01*
X0012497Y0007044D01*
X0013114Y0010436D02*
X0013052Y0010480D01*
X0012988Y0010521D01*
X0012922Y0010559D01*
X0012853Y0010593D01*
X0012784Y0010625D01*
X0012713Y0010652D01*
X0012640Y0010676D01*
X0012567Y0010697D01*
X0012492Y0010714D01*
X0012417Y0010727D01*
X0012341Y0010736D01*
X0012265Y0010742D01*
X0012189Y0010744D01*
X0014915Y0010744D02*
X0014915Y0007044D01*
X0014915Y0008688D02*
X0015943Y0008688D01*
X0016006Y0008690D01*
X0016069Y0008696D01*
X0016132Y0008706D01*
X0016194Y0008719D01*
X0016255Y0008736D01*
X0016314Y0008757D01*
X0016373Y0008782D01*
X0016429Y0008810D01*
X0016484Y0008842D01*
X0016537Y0008877D01*
X0016587Y0008915D01*
X0016636Y0008956D01*
X0016681Y0009000D01*
X0016724Y0009047D01*
X0016763Y0009096D01*
X0016800Y0009148D01*
X0016833Y0009202D01*
X0016863Y0009258D01*
X0016890Y0009315D01*
X0016913Y0009374D01*
X0016932Y0009435D01*
X0016947Y0009496D01*
X0016959Y0009558D01*
X0016967Y0009621D01*
X0016971Y0009684D01*
X0016971Y0009748D01*
X0016967Y0009811D01*
X0016959Y0009874D01*
X0016947Y0009936D01*
X0016932Y0009997D01*
X0016913Y0010058D01*
X0016890Y0010117D01*
X0016863Y0010174D01*
X0016833Y0010230D01*
X0016800Y0010284D01*
X0016763Y0010336D01*
X0016724Y0010385D01*
X0016681Y0010432D01*
X0016636Y0010476D01*
X0016587Y0010517D01*
X0016537Y0010555D01*
X0016484Y0010590D01*
X0016429Y0010622D01*
X0016373Y0010650D01*
X0016314Y0010675D01*
X0016255Y0010696D01*
X0016194Y0010713D01*
X0016132Y0010726D01*
X0016069Y0010736D01*
X0016006Y0010742D01*
X0015943Y0010744D01*
X0014915Y0010744D01*
X0018470Y0010744D02*
X0018470Y0007044D01*
X0020115Y0007044D01*
X0021606Y0007044D02*
X0021606Y0010744D01*
X0022634Y0010744D01*
X0022697Y0010742D01*
X0022760Y0010736D01*
X0022823Y0010726D01*
X0022885Y0010713D01*
X0022946Y0010696D01*
X0023005Y0010675D01*
X0023064Y0010650D01*
X0023120Y0010622D01*
X0023175Y0010590D01*
X0023228Y0010555D01*
X0023278Y0010517D01*
X0023327Y0010476D01*
X0023372Y0010432D01*
X0023415Y0010385D01*
X0023454Y0010336D01*
X0023491Y0010284D01*
X0023524Y0010230D01*
X0023554Y0010174D01*
X0023581Y0010117D01*
X0023604Y0010058D01*
X0023623Y0009997D01*
X0023638Y0009936D01*
X0023650Y0009874D01*
X0023658Y0009811D01*
X0023662Y0009748D01*
X0023662Y0009684D01*
X0023658Y0009621D01*
X0023650Y0009558D01*
X0023638Y0009496D01*
X0023623Y0009435D01*
X0023604Y0009374D01*
X0023581Y0009315D01*
X0023554Y0009258D01*
X0023524Y0009202D01*
X0023491Y0009148D01*
X0023454Y0009096D01*
X0023415Y0009047D01*
X0023372Y0009000D01*
X0023327Y0008956D01*
X0023278Y0008915D01*
X0023228Y0008877D01*
X0023175Y0008842D01*
X0023120Y0008810D01*
X0023064Y0008782D01*
X0023005Y0008757D01*
X0022946Y0008736D01*
X0022885Y0008719D01*
X0022823Y0008706D01*
X0022760Y0008696D01*
X0022697Y0008690D01*
X0022634Y0008688D01*
X0021606Y0008688D01*
X0022839Y0008688D02*
X0023662Y0007044D01*
X0025971Y0007044D02*
X0025971Y0010744D01*
X0024944Y0010744D02*
X0026999Y0010744D01*
X0028304Y0009716D02*
X0028304Y0008071D01*
X0028303Y0008071D02*
X0028305Y0008008D01*
X0028311Y0007945D01*
X0028321Y0007882D01*
X0028334Y0007820D01*
X0028351Y0007759D01*
X0028372Y0007700D01*
X0028397Y0007641D01*
X0028425Y0007585D01*
X0028457Y0007530D01*
X0028492Y0007477D01*
X0028530Y0007427D01*
X0028571Y0007378D01*
X0028615Y0007333D01*
X0028662Y0007290D01*
X0028711Y0007251D01*
X0028763Y0007214D01*
X0028817Y0007181D01*
X0028873Y0007151D01*
X0028930Y0007124D01*
X0028989Y0007101D01*
X0029050Y0007082D01*
X0029111Y0007067D01*
X0029173Y0007055D01*
X0029236Y0007047D01*
X0029299Y0007043D01*
X0029363Y0007043D01*
X0029426Y0007047D01*
X0029489Y0007055D01*
X0029551Y0007067D01*
X0029612Y0007082D01*
X0029673Y0007101D01*
X0029732Y0007124D01*
X0029789Y0007151D01*
X0029845Y0007181D01*
X0029899Y0007214D01*
X0029951Y0007251D01*
X0030000Y0007290D01*
X0030047Y0007333D01*
X0030091Y0007378D01*
X0030132Y0007427D01*
X0030170Y0007477D01*
X0030205Y0007530D01*
X0030237Y0007585D01*
X0030265Y0007641D01*
X0030290Y0007700D01*
X0030311Y0007759D01*
X0030328Y0007820D01*
X0030341Y0007882D01*
X0030351Y0007945D01*
X0030357Y0008008D01*
X0030359Y0008071D01*
X0030359Y0009716D01*
X0030357Y0009779D01*
X0030351Y0009842D01*
X0030341Y0009905D01*
X0030328Y0009967D01*
X0030311Y0010028D01*
X0030290Y0010087D01*
X0030265Y0010146D01*
X0030237Y0010202D01*
X0030205Y0010257D01*
X0030170Y0010310D01*
X0030132Y0010360D01*
X0030091Y0010409D01*
X0030047Y0010454D01*
X0030000Y0010497D01*
X0029951Y0010536D01*
X0029899Y0010573D01*
X0029845Y0010606D01*
X0029789Y0010636D01*
X0029732Y0010663D01*
X0029673Y0010686D01*
X0029612Y0010705D01*
X0029551Y0010720D01*
X0029489Y0010732D01*
X0029426Y0010740D01*
X0029363Y0010744D01*
X0029299Y0010744D01*
X0029236Y0010740D01*
X0029173Y0010732D01*
X0029111Y0010720D01*
X0029050Y0010705D01*
X0028989Y0010686D01*
X0028930Y0010663D01*
X0028873Y0010636D01*
X0028817Y0010606D01*
X0028763Y0010573D01*
X0028711Y0010536D01*
X0028662Y0010497D01*
X0028615Y0010454D01*
X0028571Y0010409D01*
X0028530Y0010360D01*
X0028492Y0010310D01*
X0028457Y0010257D01*
X0028425Y0010202D01*
X0028397Y0010146D01*
X0028372Y0010087D01*
X0028351Y0010028D01*
X0028334Y0009967D01*
X0028321Y0009905D01*
X0028311Y0009842D01*
X0028305Y0009779D01*
X0028303Y0009716D01*
X0033687Y0010744D02*
X0034509Y0007044D01*
X0035331Y0009510D01*
X0036154Y0007044D01*
X0036976Y0010744D01*
X0039411Y0010744D02*
X0040645Y0007044D01*
X0040336Y0007969D02*
X0038486Y0007969D01*
X0038178Y0007044D02*
X0039411Y0010744D01*
X0041744Y0010744D02*
X0043799Y0010744D01*
X0042771Y0010744D02*
X0042771Y0007044D01*
X0045093Y0007866D02*
X0045093Y0009921D01*
X0045094Y0009921D02*
X0045096Y0009977D01*
X0045102Y0010033D01*
X0045111Y0010088D01*
X0045124Y0010143D01*
X0045141Y0010196D01*
X0045162Y0010248D01*
X0045186Y0010299D01*
X0045214Y0010348D01*
X0045244Y0010395D01*
X0045278Y0010440D01*
X0045315Y0010482D01*
X0045355Y0010522D01*
X0045397Y0010559D01*
X0045442Y0010593D01*
X0045489Y0010623D01*
X0045538Y0010651D01*
X0045589Y0010675D01*
X0045641Y0010696D01*
X0045694Y0010713D01*
X0045749Y0010726D01*
X0045804Y0010735D01*
X0045860Y0010741D01*
X0045916Y0010743D01*
X0045916Y0010744D02*
X0046738Y0010744D01*
X0048223Y0010744D02*
X0048223Y0007044D01*
X0046738Y0007044D02*
X0045916Y0007044D01*
X0045860Y0007046D01*
X0045804Y0007052D01*
X0045749Y0007061D01*
X0045694Y0007074D01*
X0045641Y0007091D01*
X0045589Y0007112D01*
X0045538Y0007136D01*
X0045489Y0007164D01*
X0045442Y0007194D01*
X0045397Y0007228D01*
X0045355Y0007265D01*
X0045315Y0007305D01*
X0045278Y0007347D01*
X0045244Y0007392D01*
X0045214Y0007439D01*
X0045186Y0007488D01*
X0045162Y0007539D01*
X0045141Y0007591D01*
X0045124Y0007644D01*
X0045111Y0007699D01*
X0045102Y0007754D01*
X0045096Y0007810D01*
X0045094Y0007866D01*
X0048223Y0009099D02*
X0050279Y0009099D01*
X0050279Y0010744D02*
X0050279Y0007044D01*
X0020115Y0010744D02*
X0018470Y0010744D01*
X0018470Y0009099D02*
X0019704Y0009099D01*
D16*
X0052691Y0009144D02*
X0053191Y0007644D01*
X0053691Y0009144D01*
X0054214Y0008810D02*
X0054631Y0009144D01*
X0054631Y0007644D01*
X0055047Y0007644D02*
X0054214Y0007644D01*
M02*
