G75*
%MOIN*%
%OFA0B0*%
%FSLAX25Y25*%
%IPPOS*%
%LPD*%
%AMOC8*
5,1,8,0,0,1.08239X$1,22.5*
%
%ADD10C,0.03500*%
%ADD11R,0.05512X0.02362*%
%ADD12R,0.06299X0.04724*%
%ADD13R,0.03150X0.02756*%
%ADD14R,0.01575X0.01378*%
%ADD15R,0.01378X0.01575*%
%ADD16R,0.04800X0.03600*%
%ADD17R,0.01024X0.03110*%
%ADD18R,0.03110X0.01024*%
%ADD19R,0.08465X0.08071*%
%ADD20C,0.00039*%
%ADD21C,0.07400*%
%ADD22R,0.01102X0.01693*%
%ADD23R,0.01693X0.01102*%
%ADD24R,0.03937X0.01969*%
%ADD25R,0.04724X0.02165*%
%ADD26R,0.05906X0.01102*%
%ADD27R,0.01102X0.05906*%
%ADD28R,0.03150X0.05512*%
%ADD29R,0.03150X0.04724*%
%ADD30R,0.04724X0.03150*%
%ADD31R,0.05512X0.03150*%
%ADD32R,0.07480X0.09350*%
%ADD33R,0.07480X0.04626*%
%ADD34R,0.08268X0.05807*%
%ADD35R,0.05433X0.01772*%
%ADD36R,0.07087X0.03937*%
%ADD37C,0.00787*%
%ADD38C,0.03150*%
%ADD39C,0.01000*%
D10*
X0015620Y0147063D03*
X0033337Y0147063D03*
X0050896Y0147063D03*
X0119951Y0147063D03*
X0143258Y0147220D03*
D11*
X0027530Y0036827D03*
X0027530Y0032890D03*
D12*
X0042490Y0027772D03*
X0042490Y0041945D03*
D13*
X0043502Y0060251D03*
X0043502Y0065763D03*
X0013889Y0059636D03*
X0013889Y0054124D03*
D14*
X0023494Y0057299D03*
X0023494Y0059661D03*
X0051053Y0057693D03*
X0051053Y0055331D03*
X0119951Y0116354D03*
X0119951Y0118717D03*
X0137667Y0122260D03*
X0137667Y0124622D03*
X0147510Y0114780D03*
X0147510Y0112417D03*
X0147510Y0104937D03*
X0147510Y0102575D03*
X0043179Y0136039D03*
X0043179Y0138402D03*
D15*
X0020738Y0129346D03*
X0018376Y0129346D03*
X0018376Y0105724D03*
X0020738Y0105724D03*
X0049872Y0086039D03*
X0052234Y0086039D03*
X0069557Y0011236D03*
X0071919Y0011236D03*
D16*
X0017589Y0028408D03*
X0017589Y0041308D03*
D17*
X0128809Y0101906D03*
X0130778Y0101906D03*
X0132746Y0101906D03*
X0134715Y0101906D03*
X0136683Y0101906D03*
X0138652Y0101906D03*
X0138652Y0117417D03*
X0136683Y0117417D03*
X0134715Y0117417D03*
X0132746Y0117417D03*
X0130778Y0117417D03*
X0128809Y0117417D03*
D18*
X0125974Y0114583D03*
X0125974Y0112614D03*
X0125974Y0110646D03*
X0125974Y0108677D03*
X0125974Y0106709D03*
X0125974Y0104740D03*
X0141486Y0104740D03*
X0141486Y0106709D03*
X0141486Y0108677D03*
X0141486Y0110646D03*
X0141486Y0112614D03*
X0141486Y0114583D03*
D19*
X0133730Y0109661D03*
D20*
X0128317Y0109659D02*
X0139144Y0109659D01*
X0139144Y0109661D02*
X0139144Y0114091D01*
X0128317Y0114091D01*
X0128344Y0114294D01*
X0128422Y0114484D01*
X0128548Y0114647D01*
X0128711Y0114772D01*
X0128901Y0114851D01*
X0129104Y0114878D01*
X0138356Y0114878D01*
X0138560Y0114851D01*
X0138750Y0114772D01*
X0138913Y0114647D01*
X0139038Y0114484D01*
X0139117Y0114294D01*
X0139144Y0114091D01*
X0139144Y0114053D02*
X0128317Y0114053D01*
X0128317Y0114091D02*
X0128317Y0105626D01*
X0129498Y0104445D01*
X0138356Y0104445D01*
X0138560Y0104472D01*
X0138750Y0104550D01*
X0138913Y0104676D01*
X0139038Y0104839D01*
X0139117Y0105028D01*
X0139144Y0105232D01*
X0139144Y0109661D01*
X0139144Y0109697D02*
X0128317Y0109697D01*
X0128317Y0109734D02*
X0139144Y0109734D01*
X0139144Y0109772D02*
X0128317Y0109772D01*
X0128317Y0109810D02*
X0139144Y0109810D01*
X0139144Y0109848D02*
X0128317Y0109848D01*
X0128317Y0109886D02*
X0139144Y0109886D01*
X0139144Y0109924D02*
X0128317Y0109924D01*
X0128317Y0109962D02*
X0139144Y0109962D01*
X0139144Y0110000D02*
X0128317Y0110000D01*
X0128317Y0110038D02*
X0139144Y0110038D01*
X0139144Y0110075D02*
X0128317Y0110075D01*
X0128317Y0110113D02*
X0139144Y0110113D01*
X0139144Y0110151D02*
X0128317Y0110151D01*
X0128317Y0110189D02*
X0139144Y0110189D01*
X0139144Y0110227D02*
X0128317Y0110227D01*
X0128317Y0110265D02*
X0139144Y0110265D01*
X0139144Y0110303D02*
X0128317Y0110303D01*
X0128317Y0110341D02*
X0139144Y0110341D01*
X0139144Y0110378D02*
X0128317Y0110378D01*
X0128317Y0110416D02*
X0139144Y0110416D01*
X0139144Y0110454D02*
X0128317Y0110454D01*
X0128317Y0110492D02*
X0139144Y0110492D01*
X0139144Y0110530D02*
X0128317Y0110530D01*
X0128317Y0110568D02*
X0139144Y0110568D01*
X0139144Y0110606D02*
X0128317Y0110606D01*
X0128317Y0110644D02*
X0139144Y0110644D01*
X0139144Y0110682D02*
X0128317Y0110682D01*
X0128317Y0110719D02*
X0139144Y0110719D01*
X0139144Y0110757D02*
X0128317Y0110757D01*
X0128317Y0110795D02*
X0139144Y0110795D01*
X0139144Y0110833D02*
X0128317Y0110833D01*
X0128317Y0110871D02*
X0139144Y0110871D01*
X0139144Y0110909D02*
X0128317Y0110909D01*
X0128317Y0110947D02*
X0139144Y0110947D01*
X0139144Y0110985D02*
X0128317Y0110985D01*
X0128317Y0111022D02*
X0139144Y0111022D01*
X0139144Y0111060D02*
X0128317Y0111060D01*
X0128317Y0111098D02*
X0139144Y0111098D01*
X0139144Y0111136D02*
X0128317Y0111136D01*
X0128317Y0111174D02*
X0139144Y0111174D01*
X0139144Y0111212D02*
X0128317Y0111212D01*
X0128317Y0111250D02*
X0139144Y0111250D01*
X0139144Y0111288D02*
X0128317Y0111288D01*
X0128317Y0111326D02*
X0139144Y0111326D01*
X0139144Y0111363D02*
X0128317Y0111363D01*
X0128317Y0111401D02*
X0139144Y0111401D01*
X0139144Y0111439D02*
X0128317Y0111439D01*
X0128317Y0111477D02*
X0139144Y0111477D01*
X0139144Y0111515D02*
X0128317Y0111515D01*
X0128317Y0111553D02*
X0139144Y0111553D01*
X0139144Y0111591D02*
X0128317Y0111591D01*
X0128317Y0111629D02*
X0139144Y0111629D01*
X0139144Y0111666D02*
X0128317Y0111666D01*
X0128317Y0111704D02*
X0139144Y0111704D01*
X0139144Y0111742D02*
X0128317Y0111742D01*
X0128317Y0111780D02*
X0139144Y0111780D01*
X0139144Y0111818D02*
X0128317Y0111818D01*
X0128317Y0111856D02*
X0139144Y0111856D01*
X0139144Y0111894D02*
X0128317Y0111894D01*
X0128317Y0111932D02*
X0139144Y0111932D01*
X0139144Y0111970D02*
X0128317Y0111970D01*
X0128317Y0112007D02*
X0139144Y0112007D01*
X0139144Y0112045D02*
X0128317Y0112045D01*
X0128317Y0112083D02*
X0139144Y0112083D01*
X0139144Y0112121D02*
X0128317Y0112121D01*
X0128317Y0112159D02*
X0139144Y0112159D01*
X0139144Y0112197D02*
X0128317Y0112197D01*
X0128317Y0112235D02*
X0139144Y0112235D01*
X0139144Y0112273D02*
X0128317Y0112273D01*
X0128317Y0112310D02*
X0139144Y0112310D01*
X0139144Y0112348D02*
X0128317Y0112348D01*
X0128317Y0112386D02*
X0139144Y0112386D01*
X0139144Y0112424D02*
X0128317Y0112424D01*
X0128317Y0112462D02*
X0139144Y0112462D01*
X0139144Y0112500D02*
X0128317Y0112500D01*
X0128317Y0112538D02*
X0139144Y0112538D01*
X0139144Y0112576D02*
X0128317Y0112576D01*
X0128317Y0112613D02*
X0139144Y0112613D01*
X0139144Y0112651D02*
X0128317Y0112651D01*
X0128317Y0112689D02*
X0139144Y0112689D01*
X0139144Y0112727D02*
X0128317Y0112727D01*
X0128317Y0112765D02*
X0139144Y0112765D01*
X0139144Y0112803D02*
X0128317Y0112803D01*
X0128317Y0112841D02*
X0139144Y0112841D01*
X0139144Y0112879D02*
X0128317Y0112879D01*
X0128317Y0112917D02*
X0139144Y0112917D01*
X0139144Y0112954D02*
X0128317Y0112954D01*
X0128317Y0112992D02*
X0139144Y0112992D01*
X0139144Y0113030D02*
X0128317Y0113030D01*
X0128317Y0113068D02*
X0139144Y0113068D01*
X0139144Y0113106D02*
X0128317Y0113106D01*
X0128317Y0113144D02*
X0139144Y0113144D01*
X0139144Y0113182D02*
X0128317Y0113182D01*
X0128317Y0113220D02*
X0139144Y0113220D01*
X0139144Y0113257D02*
X0128317Y0113257D01*
X0128317Y0113295D02*
X0139144Y0113295D01*
X0139144Y0113333D02*
X0128317Y0113333D01*
X0128317Y0113371D02*
X0139144Y0113371D01*
X0139144Y0113409D02*
X0128317Y0113409D01*
X0128317Y0113447D02*
X0139144Y0113447D01*
X0139144Y0113485D02*
X0128317Y0113485D01*
X0128317Y0113523D02*
X0139144Y0113523D01*
X0139144Y0113561D02*
X0128317Y0113561D01*
X0128317Y0113598D02*
X0139144Y0113598D01*
X0139144Y0113636D02*
X0128317Y0113636D01*
X0128317Y0113674D02*
X0139144Y0113674D01*
X0139144Y0113712D02*
X0128317Y0113712D01*
X0128317Y0113750D02*
X0139144Y0113750D01*
X0139144Y0113788D02*
X0128317Y0113788D01*
X0128317Y0113826D02*
X0139144Y0113826D01*
X0139144Y0113864D02*
X0128317Y0113864D01*
X0128317Y0113901D02*
X0139144Y0113901D01*
X0139144Y0113939D02*
X0128317Y0113939D01*
X0128317Y0113977D02*
X0139144Y0113977D01*
X0139144Y0114015D02*
X0128317Y0114015D01*
X0128322Y0114129D02*
X0139139Y0114129D01*
X0139134Y0114167D02*
X0128327Y0114167D01*
X0128332Y0114205D02*
X0139129Y0114205D01*
X0139124Y0114242D02*
X0128337Y0114242D01*
X0128342Y0114280D02*
X0139119Y0114280D01*
X0139107Y0114318D02*
X0128354Y0114318D01*
X0128369Y0114356D02*
X0139091Y0114356D01*
X0139076Y0114394D02*
X0128385Y0114394D01*
X0128401Y0114432D02*
X0139060Y0114432D01*
X0139044Y0114470D02*
X0128416Y0114470D01*
X0128440Y0114508D02*
X0139020Y0114508D01*
X0138991Y0114545D02*
X0128469Y0114545D01*
X0128498Y0114583D02*
X0138962Y0114583D01*
X0138933Y0114621D02*
X0128527Y0114621D01*
X0128563Y0114659D02*
X0138898Y0114659D01*
X0138848Y0114697D02*
X0128612Y0114697D01*
X0128662Y0114735D02*
X0138799Y0114735D01*
X0138749Y0114773D02*
X0128711Y0114773D01*
X0128803Y0114811D02*
X0138658Y0114811D01*
X0138566Y0114848D02*
X0128894Y0114848D01*
X0128317Y0109621D02*
X0139144Y0109621D01*
X0139144Y0109583D02*
X0128317Y0109583D01*
X0128317Y0109545D02*
X0139144Y0109545D01*
X0139144Y0109507D02*
X0128317Y0109507D01*
X0128317Y0109469D02*
X0139144Y0109469D01*
X0139144Y0109431D02*
X0128317Y0109431D01*
X0128317Y0109394D02*
X0139144Y0109394D01*
X0139144Y0109356D02*
X0128317Y0109356D01*
X0128317Y0109318D02*
X0139144Y0109318D01*
X0139144Y0109280D02*
X0128317Y0109280D01*
X0128317Y0109242D02*
X0139144Y0109242D01*
X0139144Y0109204D02*
X0128317Y0109204D01*
X0128317Y0109166D02*
X0139144Y0109166D01*
X0139144Y0109128D02*
X0128317Y0109128D01*
X0128317Y0109091D02*
X0139144Y0109091D01*
X0139144Y0109053D02*
X0128317Y0109053D01*
X0128317Y0109015D02*
X0139144Y0109015D01*
X0139144Y0108977D02*
X0128317Y0108977D01*
X0128317Y0108939D02*
X0139144Y0108939D01*
X0139144Y0108901D02*
X0128317Y0108901D01*
X0128317Y0108863D02*
X0139144Y0108863D01*
X0139144Y0108825D02*
X0128317Y0108825D01*
X0128317Y0108787D02*
X0139144Y0108787D01*
X0139144Y0108750D02*
X0128317Y0108750D01*
X0128317Y0108712D02*
X0139144Y0108712D01*
X0139144Y0108674D02*
X0128317Y0108674D01*
X0128317Y0108636D02*
X0139144Y0108636D01*
X0139144Y0108598D02*
X0128317Y0108598D01*
X0128317Y0108560D02*
X0139144Y0108560D01*
X0139144Y0108522D02*
X0128317Y0108522D01*
X0128317Y0108484D02*
X0139144Y0108484D01*
X0139144Y0108447D02*
X0128317Y0108447D01*
X0128317Y0108409D02*
X0139144Y0108409D01*
X0139144Y0108371D02*
X0128317Y0108371D01*
X0128317Y0108333D02*
X0139144Y0108333D01*
X0139144Y0108295D02*
X0128317Y0108295D01*
X0128317Y0108257D02*
X0139144Y0108257D01*
X0139144Y0108219D02*
X0128317Y0108219D01*
X0128317Y0108181D02*
X0139144Y0108181D01*
X0139144Y0108143D02*
X0128317Y0108143D01*
X0128317Y0108106D02*
X0139144Y0108106D01*
X0139144Y0108068D02*
X0128317Y0108068D01*
X0128317Y0108030D02*
X0139144Y0108030D01*
X0139144Y0107992D02*
X0128317Y0107992D01*
X0128317Y0107954D02*
X0139144Y0107954D01*
X0139144Y0107916D02*
X0128317Y0107916D01*
X0128317Y0107878D02*
X0139144Y0107878D01*
X0139144Y0107840D02*
X0128317Y0107840D01*
X0128317Y0107803D02*
X0139144Y0107803D01*
X0139144Y0107765D02*
X0128317Y0107765D01*
X0128317Y0107727D02*
X0139144Y0107727D01*
X0139144Y0107689D02*
X0128317Y0107689D01*
X0128317Y0107651D02*
X0139144Y0107651D01*
X0139144Y0107613D02*
X0128317Y0107613D01*
X0128317Y0107575D02*
X0139144Y0107575D01*
X0139144Y0107537D02*
X0128317Y0107537D01*
X0128317Y0107499D02*
X0139144Y0107499D01*
X0139144Y0107462D02*
X0128317Y0107462D01*
X0128317Y0107424D02*
X0139144Y0107424D01*
X0139144Y0107386D02*
X0128317Y0107386D01*
X0128317Y0107348D02*
X0139144Y0107348D01*
X0139144Y0107310D02*
X0128317Y0107310D01*
X0128317Y0107272D02*
X0139144Y0107272D01*
X0139144Y0107234D02*
X0128317Y0107234D01*
X0128317Y0107196D02*
X0139144Y0107196D01*
X0139144Y0107159D02*
X0128317Y0107159D01*
X0128317Y0107121D02*
X0139144Y0107121D01*
X0139144Y0107083D02*
X0128317Y0107083D01*
X0128317Y0107045D02*
X0139144Y0107045D01*
X0139144Y0107007D02*
X0128317Y0107007D01*
X0128317Y0106969D02*
X0139144Y0106969D01*
X0139144Y0106931D02*
X0128317Y0106931D01*
X0128317Y0106893D02*
X0139144Y0106893D01*
X0139144Y0106856D02*
X0128317Y0106856D01*
X0128317Y0106818D02*
X0139144Y0106818D01*
X0139144Y0106780D02*
X0128317Y0106780D01*
X0128317Y0106742D02*
X0139144Y0106742D01*
X0139144Y0106704D02*
X0128317Y0106704D01*
X0128317Y0106666D02*
X0139144Y0106666D01*
X0139144Y0106628D02*
X0128317Y0106628D01*
X0128317Y0106590D02*
X0139144Y0106590D01*
X0139144Y0106552D02*
X0128317Y0106552D01*
X0128317Y0106515D02*
X0139144Y0106515D01*
X0139144Y0106477D02*
X0128317Y0106477D01*
X0128317Y0106439D02*
X0139144Y0106439D01*
X0139144Y0106401D02*
X0128317Y0106401D01*
X0128317Y0106363D02*
X0139144Y0106363D01*
X0139144Y0106325D02*
X0128317Y0106325D01*
X0128317Y0106287D02*
X0139144Y0106287D01*
X0139144Y0106249D02*
X0128317Y0106249D01*
X0128317Y0106212D02*
X0139144Y0106212D01*
X0139144Y0106174D02*
X0128317Y0106174D01*
X0128317Y0106136D02*
X0139144Y0106136D01*
X0139144Y0106098D02*
X0128317Y0106098D01*
X0128317Y0106060D02*
X0139144Y0106060D01*
X0139144Y0106022D02*
X0128317Y0106022D01*
X0128317Y0105984D02*
X0139144Y0105984D01*
X0139144Y0105946D02*
X0128317Y0105946D01*
X0128317Y0105908D02*
X0139144Y0105908D01*
X0139144Y0105871D02*
X0128317Y0105871D01*
X0128317Y0105833D02*
X0139144Y0105833D01*
X0139144Y0105795D02*
X0128317Y0105795D01*
X0128317Y0105757D02*
X0139144Y0105757D01*
X0139144Y0105719D02*
X0128317Y0105719D01*
X0128317Y0105681D02*
X0139144Y0105681D01*
X0139144Y0105643D02*
X0128317Y0105643D01*
X0128337Y0105605D02*
X0139144Y0105605D01*
X0139144Y0105568D02*
X0128375Y0105568D01*
X0128413Y0105530D02*
X0139144Y0105530D01*
X0139144Y0105492D02*
X0128451Y0105492D01*
X0128489Y0105454D02*
X0139144Y0105454D01*
X0139144Y0105416D02*
X0128527Y0105416D01*
X0128565Y0105378D02*
X0139144Y0105378D01*
X0139144Y0105340D02*
X0128603Y0105340D01*
X0128641Y0105302D02*
X0139144Y0105302D01*
X0139144Y0105264D02*
X0128678Y0105264D01*
X0128716Y0105227D02*
X0139143Y0105227D01*
X0139138Y0105189D02*
X0128754Y0105189D01*
X0128792Y0105151D02*
X0139133Y0105151D01*
X0139128Y0105113D02*
X0128830Y0105113D01*
X0128868Y0105075D02*
X0139123Y0105075D01*
X0139118Y0105037D02*
X0128906Y0105037D01*
X0128944Y0104999D02*
X0139105Y0104999D01*
X0139089Y0104961D02*
X0128981Y0104961D01*
X0129019Y0104924D02*
X0139073Y0104924D01*
X0139058Y0104886D02*
X0129057Y0104886D01*
X0129095Y0104848D02*
X0139042Y0104848D01*
X0139016Y0104810D02*
X0129133Y0104810D01*
X0129171Y0104772D02*
X0138987Y0104772D01*
X0138958Y0104734D02*
X0129209Y0104734D01*
X0129247Y0104696D02*
X0138929Y0104696D01*
X0138891Y0104658D02*
X0129285Y0104658D01*
X0129322Y0104621D02*
X0138841Y0104621D01*
X0138792Y0104583D02*
X0129360Y0104583D01*
X0129398Y0104545D02*
X0138736Y0104545D01*
X0138645Y0104507D02*
X0129436Y0104507D01*
X0129474Y0104469D02*
X0138539Y0104469D01*
D21*
X0100266Y0099976D03*
X0100266Y0089976D03*
X0080581Y0080134D03*
X0080581Y0119504D03*
X0085581Y0143874D03*
X0095581Y0143874D03*
X0075581Y0143874D03*
X0065581Y0143874D03*
D22*
X0030404Y0091945D03*
X0028396Y0091945D03*
X0028396Y0088008D03*
X0030404Y0088008D03*
X0030404Y0072260D03*
X0028396Y0072260D03*
X0030364Y0068323D03*
X0032372Y0068323D03*
X0024498Y0052575D03*
X0022490Y0052575D03*
D23*
X0049085Y0136217D03*
X0049085Y0138224D03*
X0119951Y0110665D03*
X0119951Y0108657D03*
X0119951Y0104760D03*
X0119951Y0102752D03*
D24*
X0037667Y0060252D03*
X0037667Y0056512D03*
X0037667Y0052772D03*
X0029006Y0052772D03*
X0029006Y0060252D03*
D25*
X0055777Y0060252D03*
X0055777Y0056512D03*
X0055777Y0052772D03*
X0066014Y0052772D03*
X0066014Y0060252D03*
D26*
X0067785Y0100803D03*
X0067785Y0102772D03*
X0067785Y0104740D03*
X0067785Y0106709D03*
X0067785Y0108677D03*
X0067785Y0110646D03*
X0067785Y0112614D03*
X0067785Y0114583D03*
X0067785Y0116551D03*
X0067785Y0118520D03*
X0067785Y0120488D03*
X0067785Y0122457D03*
X0034321Y0122457D03*
X0034321Y0120488D03*
X0034321Y0118520D03*
X0034321Y0116551D03*
X0034321Y0114583D03*
X0034321Y0112614D03*
X0034321Y0110646D03*
X0034321Y0108677D03*
X0034321Y0106709D03*
X0034321Y0104740D03*
X0034321Y0102772D03*
X0034321Y0100803D03*
D27*
X0040226Y0094898D03*
X0042195Y0094898D03*
X0044163Y0094898D03*
X0046132Y0094898D03*
X0048100Y0094898D03*
X0050069Y0094898D03*
X0052037Y0094898D03*
X0054006Y0094898D03*
X0055974Y0094898D03*
X0057943Y0094898D03*
X0059911Y0094898D03*
X0061880Y0094898D03*
X0061880Y0128362D03*
X0059911Y0128362D03*
X0057943Y0128362D03*
X0055974Y0128362D03*
X0054006Y0128362D03*
X0052037Y0128362D03*
X0050069Y0128362D03*
X0048100Y0128362D03*
X0046132Y0128362D03*
X0044163Y0128362D03*
X0042195Y0128362D03*
X0040226Y0128362D03*
D28*
X0087470Y0067142D03*
X0092195Y0067142D03*
X0096919Y0067142D03*
X0101644Y0067142D03*
X0106368Y0067142D03*
X0111093Y0067142D03*
X0115817Y0067142D03*
X0120541Y0067142D03*
X0125266Y0067142D03*
X0129990Y0067142D03*
X0134715Y0067142D03*
X0134715Y0010449D03*
X0129990Y0010449D03*
X0125266Y0010449D03*
X0120541Y0010449D03*
X0115817Y0010449D03*
X0111093Y0010449D03*
X0106368Y0010449D03*
X0101644Y0010449D03*
X0096919Y0010449D03*
X0092195Y0010449D03*
X0087470Y0010449D03*
D29*
X0082746Y0010055D03*
X0082746Y0067535D03*
D30*
X0077628Y0062417D03*
X0077628Y0015173D03*
D31*
X0078022Y0019898D03*
X0078022Y0024622D03*
X0078022Y0029346D03*
X0078022Y0034071D03*
X0078022Y0038795D03*
X0078022Y0043520D03*
X0078022Y0048244D03*
X0078022Y0052969D03*
X0078022Y0057693D03*
D32*
X0009715Y0068667D03*
X0009715Y0091600D03*
D33*
X0009715Y0083431D03*
X0009715Y0076837D03*
D34*
X0018770Y0070439D03*
X0018770Y0089829D03*
D35*
X0020187Y0085252D03*
X0020187Y0082693D03*
X0020187Y0080134D03*
X0020187Y0077575D03*
X0020187Y0075016D03*
D36*
X0019557Y0112614D03*
X0019557Y0122457D03*
D37*
X0004203Y0156512D02*
X0004203Y0003756D01*
X0135699Y0003756D01*
X0135699Y0006299D01*
X0135108Y0006299D01*
X0135108Y0010055D01*
X0134321Y0010055D01*
X0134321Y0006299D01*
X0132956Y0006299D01*
X0132602Y0006394D01*
X0132352Y0006538D01*
X0132103Y0006394D01*
X0131748Y0006299D01*
X0130384Y0006299D01*
X0130384Y0010055D01*
X0130384Y0010842D01*
X0134321Y0010842D01*
X0134321Y0010055D01*
X0131746Y0010055D01*
X0130384Y0010055D01*
X0129596Y0010055D01*
X0127022Y0010055D01*
X0125659Y0010055D01*
X0125659Y0006299D01*
X0127024Y0006299D01*
X0127378Y0006394D01*
X0127628Y0006538D01*
X0127877Y0006394D01*
X0128232Y0006299D01*
X0129596Y0006299D01*
X0129596Y0010055D01*
X0129596Y0010842D01*
X0125659Y0010842D01*
X0125659Y0010055D01*
X0124872Y0010055D01*
X0124872Y0006299D01*
X0123507Y0006299D01*
X0123153Y0006394D01*
X0122904Y0006538D01*
X0122654Y0006394D01*
X0122300Y0006299D01*
X0120935Y0006299D01*
X0120935Y0010055D01*
X0120148Y0010055D01*
X0120148Y0006299D01*
X0118783Y0006299D01*
X0118429Y0006394D01*
X0118179Y0006538D01*
X0117930Y0006394D01*
X0117575Y0006299D01*
X0116211Y0006299D01*
X0116211Y0010055D01*
X0116211Y0010842D01*
X0120148Y0010842D01*
X0120148Y0010055D01*
X0117573Y0010055D01*
X0116211Y0010055D01*
X0115423Y0010055D01*
X0115423Y0006299D01*
X0114059Y0006299D01*
X0113704Y0006394D01*
X0113386Y0006578D01*
X0113304Y0006660D01*
X0113157Y0006512D01*
X0109028Y0006512D01*
X0108730Y0006810D01*
X0108432Y0006512D01*
X0104304Y0006512D01*
X0104006Y0006810D01*
X0103708Y0006512D01*
X0099580Y0006512D01*
X0099281Y0006810D01*
X0098983Y0006512D01*
X0097525Y0006512D01*
X0095450Y0004437D01*
X0076341Y0004437D01*
X0075356Y0005422D01*
X0071510Y0009268D01*
X0070988Y0009268D01*
X0070784Y0009150D01*
X0070430Y0009055D01*
X0069557Y0009055D01*
X0069557Y0011236D01*
X0069557Y0011236D01*
X0067474Y0011236D01*
X0067474Y0010265D01*
X0067569Y0009911D01*
X0067753Y0009593D01*
X0068012Y0009334D01*
X0068330Y0009150D01*
X0068685Y0009055D01*
X0069557Y0009055D01*
X0069557Y0011236D01*
X0069557Y0011236D01*
X0067474Y0011236D01*
X0067474Y0012207D01*
X0067569Y0012562D01*
X0067753Y0012879D01*
X0068012Y0013139D01*
X0068330Y0013322D01*
X0068685Y0013417D01*
X0069557Y0013417D01*
X0069557Y0011236D01*
X0069557Y0011236D01*
X0069557Y0013417D01*
X0070430Y0013417D01*
X0070784Y0013322D01*
X0070988Y0013205D01*
X0071510Y0013205D01*
X0072297Y0013992D01*
X0072297Y0041600D01*
X0074085Y0043387D01*
X0074085Y0043701D01*
X0074036Y0043701D01*
X0073282Y0044455D01*
X0072297Y0045440D01*
X0072297Y0051591D01*
X0069557Y0054331D01*
X0069557Y0051200D01*
X0068866Y0050508D01*
X0063163Y0050508D01*
X0062471Y0051200D01*
X0062471Y0054344D01*
X0063163Y0055035D01*
X0068853Y0055035D01*
X0065901Y0057988D01*
X0063163Y0057988D01*
X0062471Y0058680D01*
X0062471Y0061824D01*
X0063163Y0062516D01*
X0068866Y0062516D01*
X0068887Y0062495D01*
X0069177Y0062785D01*
X0070190Y0063205D01*
X0071286Y0063205D01*
X0072299Y0062785D01*
X0073075Y0062010D01*
X0073494Y0060997D01*
X0073494Y0059901D01*
X0073075Y0058888D01*
X0072299Y0058112D01*
X0071286Y0057693D01*
X0070951Y0057693D01*
X0073881Y0054762D01*
X0073967Y0055081D01*
X0074151Y0055399D01*
X0074232Y0055481D01*
X0074085Y0055629D01*
X0074085Y0059757D01*
X0074232Y0059905D01*
X0074151Y0059987D01*
X0073967Y0060305D01*
X0073872Y0060659D01*
X0073872Y0062024D01*
X0077234Y0062024D01*
X0077234Y0062811D01*
X0073872Y0062811D01*
X0073872Y0064176D01*
X0073967Y0064530D01*
X0074151Y0064848D01*
X0074410Y0065107D01*
X0074728Y0065291D01*
X0075082Y0065386D01*
X0077234Y0065386D01*
X0077234Y0062811D01*
X0078022Y0062811D01*
X0081384Y0062811D01*
X0081384Y0063780D01*
X0082352Y0063780D01*
X0082352Y0067142D01*
X0079778Y0067142D01*
X0079778Y0065386D01*
X0078022Y0065386D01*
X0078022Y0062811D01*
X0078022Y0062024D01*
X0081384Y0062024D01*
X0081384Y0060659D01*
X0081315Y0060401D01*
X0081959Y0059757D01*
X0081959Y0055629D01*
X0081811Y0055481D01*
X0081893Y0055399D01*
X0082076Y0055081D01*
X0082171Y0054727D01*
X0082171Y0053362D01*
X0078415Y0053362D01*
X0078415Y0052575D01*
X0078415Y0048638D01*
X0077628Y0048638D01*
X0077628Y0051213D01*
X0077628Y0052575D01*
X0078415Y0052575D01*
X0082171Y0052575D01*
X0082171Y0051210D01*
X0082076Y0050856D01*
X0081932Y0050606D01*
X0082076Y0050357D01*
X0082171Y0050002D01*
X0082171Y0048638D01*
X0078415Y0048638D01*
X0078415Y0047850D01*
X0082171Y0047850D01*
X0082171Y0046486D01*
X0082076Y0046131D01*
X0081893Y0045814D01*
X0081811Y0045732D01*
X0081959Y0045584D01*
X0081959Y0041456D01*
X0081811Y0041308D01*
X0081893Y0041226D01*
X0082076Y0040908D01*
X0082171Y0040554D01*
X0082171Y0039189D01*
X0078415Y0039189D01*
X0078415Y0038402D01*
X0082171Y0038402D01*
X0082171Y0037037D01*
X0082076Y0036683D01*
X0081893Y0036365D01*
X0081811Y0036283D01*
X0081959Y0036135D01*
X0081959Y0032007D01*
X0081660Y0031709D01*
X0081959Y0031410D01*
X0081959Y0027282D01*
X0081660Y0026984D01*
X0081959Y0026686D01*
X0081959Y0022558D01*
X0081660Y0022260D01*
X0081959Y0021962D01*
X0081959Y0017834D01*
X0081315Y0017190D01*
X0081384Y0016932D01*
X0081384Y0015567D01*
X0078022Y0015567D01*
X0078022Y0014780D01*
X0081384Y0014780D01*
X0081384Y0013811D01*
X0082352Y0013811D01*
X0082352Y0010449D01*
X0082352Y0009661D01*
X0079778Y0009661D01*
X0079778Y0007799D01*
X0077734Y0007799D01*
X0074297Y0011236D01*
X0074675Y0011614D01*
X0075265Y0012205D01*
X0077234Y0012205D01*
X0077234Y0014779D01*
X0078022Y0014779D01*
X0078022Y0012205D01*
X0079778Y0012205D01*
X0079778Y0010449D01*
X0082352Y0010449D01*
X0083140Y0010449D01*
X0083140Y0013811D01*
X0084504Y0013811D01*
X0084762Y0013742D01*
X0085406Y0014386D01*
X0089534Y0014386D01*
X0089833Y0014088D01*
X0090131Y0014386D01*
X0094259Y0014386D01*
X0094557Y0014088D01*
X0094855Y0014386D01*
X0098983Y0014386D01*
X0099281Y0014088D01*
X0099580Y0014386D01*
X0103708Y0014386D01*
X0104006Y0014088D01*
X0104304Y0014386D01*
X0108432Y0014386D01*
X0108730Y0014088D01*
X0109028Y0014386D01*
X0113157Y0014386D01*
X0113304Y0014238D01*
X0113386Y0014320D01*
X0113704Y0014503D01*
X0114059Y0014598D01*
X0115423Y0014598D01*
X0115423Y0010843D01*
X0116211Y0010843D01*
X0116211Y0014598D01*
X0117575Y0014598D01*
X0117930Y0014503D01*
X0118179Y0014359D01*
X0118429Y0014503D01*
X0118783Y0014598D01*
X0120148Y0014598D01*
X0120148Y0010843D01*
X0120935Y0010843D01*
X0120935Y0014598D01*
X0122300Y0014598D01*
X0122654Y0014503D01*
X0122904Y0014359D01*
X0123153Y0014503D01*
X0123507Y0014598D01*
X0124872Y0014598D01*
X0124872Y0010843D01*
X0125659Y0010843D01*
X0125659Y0014598D01*
X0127024Y0014598D01*
X0127378Y0014503D01*
X0127628Y0014359D01*
X0127877Y0014503D01*
X0128232Y0014598D01*
X0129596Y0014598D01*
X0129596Y0010843D01*
X0130384Y0010843D01*
X0130384Y0014598D01*
X0131748Y0014598D01*
X0132103Y0014503D01*
X0132352Y0014359D01*
X0132602Y0014503D01*
X0132956Y0014598D01*
X0134321Y0014598D01*
X0134321Y0010843D01*
X0135108Y0010843D01*
X0135108Y0014598D01*
X0135699Y0014598D01*
X0135699Y0062992D01*
X0135108Y0062992D01*
X0135108Y0066748D01*
X0134321Y0066748D01*
X0134321Y0062992D01*
X0132956Y0062992D01*
X0132602Y0063087D01*
X0132352Y0063231D01*
X0132103Y0063087D01*
X0131748Y0062992D01*
X0130384Y0062992D01*
X0130384Y0066748D01*
X0130384Y0067535D01*
X0134321Y0067535D01*
X0134321Y0066748D01*
X0131746Y0066748D01*
X0130384Y0066748D01*
X0129596Y0066748D01*
X0129596Y0062992D01*
X0128232Y0062992D01*
X0127877Y0063087D01*
X0127560Y0063271D01*
X0127478Y0063353D01*
X0127330Y0063205D01*
X0123202Y0063205D01*
X0122904Y0063503D01*
X0122605Y0063205D01*
X0118477Y0063205D01*
X0118179Y0063503D01*
X0117881Y0063205D01*
X0113753Y0063205D01*
X0113455Y0063503D01*
X0113157Y0063205D01*
X0109028Y0063205D01*
X0108730Y0063503D01*
X0108432Y0063205D01*
X0104304Y0063205D01*
X0104006Y0063503D01*
X0103708Y0063205D01*
X0099580Y0063205D01*
X0099281Y0063503D01*
X0098983Y0063205D01*
X0094855Y0063205D01*
X0094557Y0063503D01*
X0094259Y0063205D01*
X0090131Y0063205D01*
X0089833Y0063503D01*
X0089534Y0063205D01*
X0085406Y0063205D01*
X0084762Y0063849D01*
X0084504Y0063780D01*
X0083140Y0063780D01*
X0083140Y0067142D01*
X0082352Y0067142D01*
X0082352Y0067929D01*
X0079778Y0067929D01*
X0079778Y0070081D01*
X0079873Y0070436D01*
X0080056Y0070753D01*
X0080316Y0071013D01*
X0080633Y0071196D01*
X0080988Y0071291D01*
X0082352Y0071291D01*
X0082352Y0067929D01*
X0083140Y0067929D01*
X0083140Y0071291D01*
X0084504Y0071291D01*
X0084859Y0071196D01*
X0085177Y0071013D01*
X0085259Y0070931D01*
X0085406Y0071079D01*
X0089534Y0071079D01*
X0089833Y0070781D01*
X0090131Y0071079D01*
X0094259Y0071079D01*
X0094557Y0070781D01*
X0094855Y0071079D01*
X0098983Y0071079D01*
X0099281Y0070781D01*
X0099580Y0071079D01*
X0103157Y0071079D01*
X0100558Y0073678D01*
X0049376Y0073678D01*
X0042589Y0080466D01*
X0042589Y0090764D01*
X0039186Y0090764D01*
X0038494Y0091456D01*
X0038494Y0096450D01*
X0038061Y0096017D01*
X0038061Y0088756D01*
X0038823Y0087994D01*
X0039242Y0086981D01*
X0039242Y0085885D01*
X0038823Y0084872D01*
X0038047Y0084097D01*
X0037034Y0083677D01*
X0035938Y0083677D01*
X0034925Y0084097D01*
X0034911Y0084110D01*
X0034911Y0078537D01*
X0033989Y0077615D01*
X0032015Y0075641D01*
X0032015Y0073716D01*
X0032136Y0073596D01*
X0032136Y0070924D01*
X0031978Y0070767D01*
X0031978Y0070563D01*
X0032372Y0070563D01*
X0032372Y0068323D01*
X0032372Y0068323D01*
X0032372Y0070563D01*
X0033107Y0070563D01*
X0033461Y0070468D01*
X0033779Y0070285D01*
X0034038Y0070025D01*
X0034222Y0069707D01*
X0034317Y0069353D01*
X0034317Y0068323D01*
X0032372Y0068323D01*
X0032372Y0068323D01*
X0034317Y0068323D01*
X0034317Y0067293D01*
X0034222Y0066938D01*
X0034038Y0066621D01*
X0033779Y0066361D01*
X0033461Y0066178D01*
X0033107Y0066083D01*
X0032372Y0066083D01*
X0032372Y0068323D01*
X0032372Y0068323D01*
X0032372Y0066083D01*
X0031637Y0066083D01*
X0031283Y0066178D01*
X0031079Y0066295D01*
X0029363Y0066295D01*
X0031166Y0064492D01*
X0033246Y0064492D01*
X0035320Y0062417D01*
X0040125Y0062417D01*
X0040609Y0061933D01*
X0040746Y0061933D01*
X0040746Y0062118D01*
X0041438Y0062810D01*
X0045566Y0062810D01*
X0046258Y0062118D01*
X0046258Y0058384D01*
X0045566Y0057692D01*
X0043320Y0057692D01*
X0042604Y0056976D01*
X0042604Y0051769D01*
X0046842Y0056007D01*
X0047297Y0056462D01*
X0047297Y0059611D01*
X0049619Y0061933D01*
X0052343Y0061933D01*
X0052926Y0062516D01*
X0058629Y0062516D01*
X0059320Y0061824D01*
X0059320Y0058680D01*
X0059173Y0058532D01*
X0059255Y0058450D01*
X0059438Y0058132D01*
X0059533Y0057778D01*
X0059533Y0056659D01*
X0055925Y0056659D01*
X0055925Y0056364D01*
X0059533Y0056364D01*
X0059533Y0055246D01*
X0059438Y0054891D01*
X0059255Y0054573D01*
X0059173Y0054491D01*
X0059320Y0054344D01*
X0059320Y0051200D01*
X0058629Y0050508D01*
X0052926Y0050508D01*
X0052234Y0051200D01*
X0052234Y0051379D01*
X0050152Y0053461D01*
X0049777Y0053461D01*
X0049588Y0053650D01*
X0049240Y0053650D01*
X0049220Y0053630D01*
X0041078Y0045488D01*
X0046129Y0045488D01*
X0046821Y0044796D01*
X0046821Y0039093D01*
X0046129Y0038402D01*
X0038851Y0038402D01*
X0038159Y0039093D01*
X0038159Y0042419D01*
X0035018Y0039277D01*
X0035018Y0024319D01*
X0034033Y0023335D01*
X0034033Y0023335D01*
X0033049Y0022351D01*
X0033049Y0022351D01*
X0032064Y0021366D01*
X0012955Y0021366D01*
X0011970Y0022351D01*
X0010002Y0024319D01*
X0010002Y0035948D01*
X0010987Y0036933D01*
X0014007Y0039954D01*
X0014007Y0043597D01*
X0014699Y0044289D01*
X0015907Y0044289D01*
X0015907Y0048338D01*
X0016892Y0049323D01*
X0017959Y0050390D01*
X0017959Y0056111D01*
X0018944Y0057095D01*
X0019057Y0057208D01*
X0019057Y0057980D01*
X0016644Y0057980D01*
X0016644Y0057769D01*
X0015953Y0057077D01*
X0011825Y0057077D01*
X0011133Y0057769D01*
X0011133Y0057955D01*
X0010939Y0057955D01*
X0010939Y0057701D01*
X0010519Y0056688D01*
X0009744Y0055912D01*
X0008731Y0055493D01*
X0007635Y0055493D01*
X0006622Y0055912D01*
X0005847Y0056688D01*
X0005427Y0057701D01*
X0005427Y0058797D01*
X0005847Y0059810D01*
X0006622Y0060585D01*
X0007635Y0061005D01*
X0008731Y0061005D01*
X0008912Y0060930D01*
X0009299Y0061317D01*
X0009426Y0061317D01*
X0009527Y0061394D01*
X0010107Y0061317D01*
X0011133Y0061317D01*
X0011133Y0061503D01*
X0011825Y0062195D01*
X0015953Y0062195D01*
X0016644Y0061503D01*
X0016644Y0061343D01*
X0022028Y0061343D01*
X0022217Y0061531D01*
X0024771Y0061531D01*
X0024960Y0061343D01*
X0025856Y0061343D01*
X0025856Y0061725D01*
X0026548Y0062417D01*
X0028486Y0062417D01*
X0025861Y0065043D01*
X0025861Y0065043D01*
X0024876Y0066028D01*
X0024876Y0070399D01*
X0025861Y0071384D01*
X0026663Y0072186D01*
X0026663Y0073596D01*
X0027355Y0074287D01*
X0028866Y0074287D01*
X0028866Y0076946D01*
X0029398Y0077478D01*
X0028626Y0077798D01*
X0027864Y0078559D01*
X0024085Y0078559D01*
X0024085Y0076643D01*
X0024202Y0076440D01*
X0024297Y0076085D01*
X0024297Y0075065D01*
X0020236Y0075065D01*
X0020236Y0074967D01*
X0024297Y0074967D01*
X0024297Y0073946D01*
X0024241Y0073736D01*
X0024297Y0073526D01*
X0024297Y0070833D01*
X0019163Y0070833D01*
X0019163Y0070045D01*
X0019163Y0066142D01*
X0023087Y0066142D01*
X0023441Y0066237D01*
X0023759Y0066420D01*
X0024019Y0066680D01*
X0024202Y0066997D01*
X0024297Y0067352D01*
X0024297Y0070045D01*
X0019163Y0070045D01*
X0018376Y0070045D01*
X0018376Y0066142D01*
X0014848Y0066142D01*
X0014848Y0063809D01*
X0014753Y0063454D01*
X0014570Y0063136D01*
X0014310Y0062877D01*
X0013993Y0062693D01*
X0013638Y0062598D01*
X0010108Y0062598D01*
X0010108Y0068274D01*
X0009321Y0068274D01*
X0004581Y0068274D01*
X0004581Y0063809D01*
X0004676Y0063454D01*
X0004859Y0063136D01*
X0005119Y0062877D01*
X0005436Y0062693D01*
X0005791Y0062598D01*
X0009321Y0062598D01*
X0009321Y0068274D01*
X0009321Y0069061D01*
X0009321Y0076443D01*
X0010108Y0076443D01*
X0010108Y0073130D01*
X0010108Y0069061D01*
X0009321Y0069061D01*
X0004581Y0069061D01*
X0004581Y0073526D01*
X0004676Y0073880D01*
X0004706Y0073933D01*
X0004676Y0073986D01*
X0004581Y0074340D01*
X0004581Y0076443D01*
X0009321Y0076443D01*
X0009321Y0077230D01*
X0004581Y0077230D01*
X0004581Y0079333D01*
X0004676Y0079688D01*
X0004859Y0080005D01*
X0004988Y0080134D01*
X0004859Y0080262D01*
X0004676Y0080580D01*
X0004581Y0080935D01*
X0004581Y0083037D01*
X0009321Y0083037D01*
X0009321Y0080543D01*
X0009321Y0077230D01*
X0010108Y0077230D01*
X0014848Y0077230D01*
X0014848Y0079333D01*
X0014753Y0079688D01*
X0014570Y0080005D01*
X0014441Y0080134D01*
X0014570Y0080262D01*
X0014753Y0080580D01*
X0014848Y0080935D01*
X0014848Y0083037D01*
X0010108Y0083037D01*
X0010108Y0077230D01*
X0010108Y0076443D01*
X0014848Y0076443D01*
X0014848Y0074736D01*
X0016077Y0074736D01*
X0016077Y0074967D01*
X0020138Y0074967D01*
X0020138Y0075065D01*
X0016077Y0075065D01*
X0016077Y0076085D01*
X0016172Y0076440D01*
X0016289Y0076643D01*
X0016289Y0085531D01*
X0014848Y0085531D01*
X0014848Y0083825D01*
X0010108Y0083825D01*
X0009321Y0083825D01*
X0009321Y0087138D01*
X0009321Y0091207D01*
X0004581Y0091207D01*
X0004581Y0086742D01*
X0004676Y0086387D01*
X0004706Y0086335D01*
X0004676Y0086282D01*
X0004581Y0085928D01*
X0004581Y0083825D01*
X0009321Y0083825D01*
X0009321Y0083037D01*
X0010108Y0083037D01*
X0010108Y0083825D01*
X0010108Y0091207D01*
X0009321Y0091207D01*
X0009321Y0091994D01*
X0009321Y0097669D01*
X0005791Y0097669D01*
X0005436Y0097574D01*
X0005119Y0097391D01*
X0004859Y0097131D01*
X0004676Y0096814D01*
X0004581Y0096459D01*
X0004581Y0091994D01*
X0009321Y0091994D01*
X0010108Y0091994D01*
X0010108Y0097669D01*
X0013638Y0097669D01*
X0013993Y0097574D01*
X0014310Y0097391D01*
X0014570Y0097131D01*
X0014753Y0096814D01*
X0014848Y0096459D01*
X0014848Y0094126D01*
X0018376Y0094126D01*
X0018376Y0090222D01*
X0019163Y0090222D01*
X0024297Y0090222D01*
X0024297Y0091413D01*
X0024569Y0091301D01*
X0024569Y0088704D01*
X0024297Y0088433D01*
X0024297Y0089435D01*
X0019163Y0089435D01*
X0019163Y0090222D01*
X0019163Y0094126D01*
X0022707Y0094126D01*
X0022707Y0094462D01*
X0023126Y0095474D01*
X0023902Y0096250D01*
X0024914Y0096669D01*
X0026011Y0096669D01*
X0027024Y0096250D01*
X0027799Y0095474D01*
X0028218Y0094462D01*
X0028218Y0094185D01*
X0028396Y0094185D01*
X0028396Y0091945D01*
X0028396Y0091945D01*
X0028396Y0094185D01*
X0028829Y0094185D01*
X0028829Y0095800D01*
X0027037Y0097592D01*
X0027037Y0117007D01*
X0028944Y0118913D01*
X0028083Y0118913D01*
X0024262Y0115092D01*
X0024281Y0115072D01*
X0024281Y0110156D01*
X0023590Y0109465D01*
X0022313Y0109465D01*
X0022313Y0107296D01*
X0022608Y0107001D01*
X0022608Y0104448D01*
X0021916Y0103756D01*
X0019807Y0103756D01*
X0019603Y0103638D01*
X0019248Y0103543D01*
X0018376Y0103543D01*
X0018376Y0105724D01*
X0018376Y0105724D01*
X0018376Y0103543D01*
X0017504Y0103543D01*
X0017149Y0103638D01*
X0016831Y0103822D01*
X0016572Y0104081D01*
X0016388Y0104399D01*
X0016293Y0104754D01*
X0016293Y0105724D01*
X0018376Y0105724D01*
X0018376Y0105724D01*
X0016293Y0105724D01*
X0016293Y0106695D01*
X0016388Y0107050D01*
X0016572Y0107368D01*
X0016831Y0107627D01*
X0017149Y0107811D01*
X0017504Y0107905D01*
X0018376Y0107905D01*
X0018376Y0105725D01*
X0018376Y0105725D01*
X0018376Y0107905D01*
X0019163Y0107905D01*
X0019163Y0109465D01*
X0015525Y0109465D01*
X0014833Y0110156D01*
X0014833Y0115072D01*
X0015525Y0115764D01*
X0020480Y0115764D01*
X0025598Y0120882D01*
X0024281Y0120882D01*
X0024281Y0119999D01*
X0023590Y0119307D01*
X0015525Y0119307D01*
X0014833Y0119999D01*
X0014833Y0124914D01*
X0015525Y0125606D01*
X0019163Y0125606D01*
X0019163Y0127165D01*
X0018376Y0127165D01*
X0018376Y0129346D01*
X0018376Y0127165D01*
X0017504Y0127165D01*
X0017149Y0127260D01*
X0016831Y0127444D01*
X0016572Y0127703D01*
X0016388Y0128021D01*
X0016293Y0128376D01*
X0016293Y0129346D01*
X0018376Y0129346D01*
X0018376Y0129346D01*
X0018376Y0129347D01*
X0018376Y0131528D01*
X0017504Y0131528D01*
X0017149Y0131433D01*
X0016831Y0131249D01*
X0016572Y0130990D01*
X0016388Y0130672D01*
X0016293Y0130317D01*
X0016293Y0129347D01*
X0018376Y0129347D01*
X0018376Y0129347D01*
X0018376Y0131528D01*
X0019248Y0131528D01*
X0019603Y0131433D01*
X0019807Y0131315D01*
X0021916Y0131315D01*
X0022608Y0130623D01*
X0022608Y0128070D01*
X0022313Y0127775D01*
X0022313Y0125606D01*
X0023590Y0125606D01*
X0024281Y0124914D01*
X0024281Y0124031D01*
X0030721Y0124031D01*
X0030879Y0124189D01*
X0036267Y0124189D01*
X0016289Y0144167D01*
X0016203Y0144132D01*
X0015037Y0144132D01*
X0013960Y0144578D01*
X0013135Y0145403D01*
X0012689Y0146480D01*
X0012689Y0147646D01*
X0013135Y0148723D01*
X0013960Y0149548D01*
X0015037Y0149994D01*
X0016203Y0149994D01*
X0017280Y0149548D01*
X0018105Y0148723D01*
X0018551Y0147646D01*
X0018551Y0146480D01*
X0018516Y0146394D01*
X0038494Y0126416D01*
X0038494Y0131804D01*
X0038494Y0131804D01*
X0032684Y0137614D01*
X0031762Y0138537D01*
X0031762Y0144543D01*
X0031676Y0144578D01*
X0030852Y0145403D01*
X0030406Y0146480D01*
X0030406Y0147646D01*
X0030852Y0148723D01*
X0031676Y0149548D01*
X0032754Y0149994D01*
X0033920Y0149994D01*
X0034997Y0149548D01*
X0035821Y0148723D01*
X0036268Y0147646D01*
X0036268Y0146480D01*
X0035821Y0145403D01*
X0034997Y0144578D01*
X0034911Y0144543D01*
X0034911Y0139841D01*
X0039894Y0134858D01*
X0041214Y0134858D01*
X0041211Y0134861D01*
X0041211Y0136971D01*
X0041093Y0137175D01*
X0040998Y0137529D01*
X0040998Y0138402D01*
X0043179Y0138402D01*
X0043179Y0140484D01*
X0042208Y0140484D01*
X0041854Y0140389D01*
X0041536Y0140206D01*
X0041276Y0139946D01*
X0041093Y0139628D01*
X0040998Y0139274D01*
X0040998Y0138402D01*
X0043179Y0138402D01*
X0043179Y0138402D01*
X0043179Y0140484D01*
X0044150Y0140484D01*
X0044504Y0140389D01*
X0044594Y0140338D01*
X0043663Y0141268D01*
X0043663Y0149925D01*
X0044648Y0150909D01*
X0044648Y0150909D01*
X0045435Y0151696D01*
X0045435Y0151696D01*
X0046420Y0152681D01*
X0069151Y0152681D01*
X0073526Y0148306D01*
X0074610Y0148755D01*
X0076552Y0148755D01*
X0077635Y0148306D01*
X0081026Y0151696D01*
X0082010Y0152681D01*
X0116710Y0152681D01*
X0117695Y0151696D01*
X0119397Y0149994D01*
X0120534Y0149994D01*
X0121611Y0149548D01*
X0122436Y0148723D01*
X0122882Y0147646D01*
X0122882Y0146480D01*
X0122436Y0145403D01*
X0121632Y0144599D01*
X0121632Y0123941D01*
X0135486Y0123941D01*
X0135486Y0124622D01*
X0137667Y0124622D01*
X0137667Y0124622D01*
X0135486Y0124622D01*
X0135486Y0125495D01*
X0135581Y0125849D01*
X0135765Y0126167D01*
X0136024Y0126426D01*
X0136342Y0126610D01*
X0136696Y0126705D01*
X0137667Y0126705D01*
X0137667Y0124622D01*
X0137667Y0124622D01*
X0137667Y0126705D01*
X0138638Y0126705D01*
X0138993Y0126610D01*
X0139310Y0126426D01*
X0139570Y0126167D01*
X0139753Y0125849D01*
X0139848Y0125495D01*
X0139848Y0124622D01*
X0137667Y0124622D01*
X0137667Y0124622D01*
X0139848Y0124622D01*
X0139848Y0123750D01*
X0139753Y0123395D01*
X0139636Y0123191D01*
X0139636Y0122669D01*
X0140333Y0121972D01*
X0140333Y0119473D01*
X0140344Y0119462D01*
X0140344Y0118440D01*
X0140552Y0117973D01*
X0140344Y0117432D01*
X0140344Y0116534D01*
X0140834Y0117024D01*
X0144754Y0120944D01*
X0144754Y0122021D01*
X0145173Y0123034D01*
X0145949Y0123809D01*
X0146962Y0124228D01*
X0148058Y0124228D01*
X0149071Y0123809D01*
X0149846Y0123034D01*
X0150266Y0122021D01*
X0150266Y0120924D01*
X0149846Y0119911D01*
X0149071Y0119136D01*
X0148058Y0118717D01*
X0146981Y0118717D01*
X0144035Y0115771D01*
X0144222Y0115584D01*
X0144222Y0113868D01*
X0144340Y0113664D01*
X0144435Y0113309D01*
X0144435Y0112614D01*
X0141486Y0112614D01*
X0136683Y0112614D01*
X0134403Y0110334D01*
X0134124Y0110334D01*
X0128809Y0115649D01*
X0128809Y0117417D01*
X0126904Y0117417D01*
X0126904Y0116276D01*
X0123930Y0116276D01*
X0123238Y0115584D01*
X0123238Y0115294D01*
X0121919Y0116613D01*
X0121919Y0117286D01*
X0122037Y0117490D01*
X0122132Y0117844D01*
X0122132Y0118716D01*
X0119951Y0118716D01*
X0119951Y0118717D01*
X0122132Y0118717D01*
X0122132Y0119589D01*
X0122037Y0119943D01*
X0121853Y0120261D01*
X0121594Y0120521D01*
X0121493Y0120579D01*
X0136202Y0120579D01*
X0136391Y0120390D01*
X0136970Y0120390D01*
X0136970Y0120154D01*
X0130063Y0120154D01*
X0129859Y0120271D01*
X0129504Y0120366D01*
X0128809Y0120366D01*
X0128114Y0120366D01*
X0127759Y0120271D01*
X0127441Y0120088D01*
X0127182Y0119828D01*
X0126999Y0119510D01*
X0126904Y0119156D01*
X0126904Y0117417D01*
X0128809Y0117417D01*
X0128809Y0117417D01*
X0128809Y0120366D01*
X0128809Y0117417D01*
X0128809Y0117417D01*
X0128809Y0117709D02*
X0128809Y0117709D01*
X0128809Y0118495D02*
X0128809Y0118495D01*
X0128809Y0119281D02*
X0128809Y0119281D01*
X0128809Y0120067D02*
X0128809Y0120067D01*
X0127420Y0120067D02*
X0121966Y0120067D01*
X0122132Y0119281D02*
X0126937Y0119281D01*
X0126904Y0118495D02*
X0122132Y0118495D01*
X0122096Y0117709D02*
X0126904Y0117709D01*
X0126904Y0116923D02*
X0121919Y0116923D01*
X0122395Y0116137D02*
X0123791Y0116137D01*
X0123238Y0115351D02*
X0123181Y0115351D01*
X0123691Y0112614D02*
X0119951Y0116354D01*
X0123691Y0112614D02*
X0125974Y0112614D01*
X0125974Y0106709D02*
X0121722Y0106709D01*
X0119951Y0108480D01*
X0119951Y0108657D01*
X0119951Y0108480D02*
X0115226Y0108480D01*
X0114439Y0107693D01*
X0111289Y0106906D02*
X0115226Y0102969D01*
X0112648Y0101991D02*
X0107352Y0101991D01*
X0107352Y0102046D02*
X0106430Y0102968D01*
X0097904Y0111495D01*
X0097904Y0139553D01*
X0098346Y0139736D01*
X0099719Y0141109D01*
X0100462Y0142903D01*
X0100462Y0144845D01*
X0099719Y0146639D01*
X0098346Y0148012D01*
X0096552Y0148755D01*
X0094610Y0148755D01*
X0092816Y0148012D01*
X0091443Y0146639D01*
X0090700Y0144845D01*
X0090700Y0142903D01*
X0091443Y0141109D01*
X0092816Y0139736D01*
X0094610Y0138993D01*
X0094754Y0138993D01*
X0094754Y0110190D01*
X0100087Y0104857D01*
X0099295Y0104857D01*
X0098105Y0104365D01*
X0087155Y0115314D01*
X0087155Y0139243D01*
X0088346Y0139736D01*
X0089719Y0141109D01*
X0090462Y0142903D01*
X0090462Y0144845D01*
X0089719Y0146639D01*
X0088346Y0148012D01*
X0086552Y0148755D01*
X0084610Y0148755D01*
X0082816Y0148012D01*
X0081443Y0146639D01*
X0080700Y0144845D01*
X0080700Y0142903D01*
X0081443Y0141109D01*
X0082816Y0139736D01*
X0084006Y0139243D01*
X0084006Y0123282D01*
X0083899Y0123389D01*
X0083250Y0123860D01*
X0082536Y0124224D01*
X0081773Y0124472D01*
X0080982Y0124598D01*
X0080974Y0124598D01*
X0080974Y0119898D01*
X0080187Y0119898D01*
X0080187Y0124598D01*
X0080180Y0124598D01*
X0079388Y0124472D01*
X0078625Y0124224D01*
X0077911Y0123860D01*
X0077262Y0123389D01*
X0076695Y0122822D01*
X0076224Y0122174D01*
X0075860Y0121459D01*
X0075612Y0120697D01*
X0075487Y0119905D01*
X0075487Y0119898D01*
X0080187Y0119898D01*
X0080187Y0119110D01*
X0080187Y0115038D01*
X0093044Y0102181D01*
X0095834Y0102181D01*
X0084006Y0114009D01*
X0084006Y0115726D01*
X0083899Y0115619D01*
X0083250Y0115147D01*
X0082536Y0114783D01*
X0081773Y0114536D01*
X0080982Y0114410D01*
X0080974Y0114410D01*
X0080974Y0119110D01*
X0080187Y0119110D01*
X0075487Y0119110D01*
X0075487Y0119103D01*
X0075612Y0118311D01*
X0075860Y0117549D01*
X0076224Y0116834D01*
X0076695Y0116186D01*
X0076724Y0116157D01*
X0071919Y0116157D01*
X0071919Y0117479D01*
X0071919Y0119195D01*
X0072037Y0119399D01*
X0072132Y0119754D01*
X0072132Y0120488D01*
X0067786Y0120488D01*
X0067786Y0120488D01*
X0072132Y0120488D01*
X0072132Y0121223D01*
X0072037Y0121577D01*
X0071919Y0121781D01*
X0071919Y0123497D01*
X0071561Y0123855D01*
X0077262Y0129556D01*
X0077262Y0139287D01*
X0078346Y0139736D01*
X0079719Y0141109D01*
X0080462Y0142903D01*
X0080462Y0144845D01*
X0080013Y0145929D01*
X0083403Y0149319D01*
X0115317Y0149319D01*
X0117020Y0147617D01*
X0117020Y0146480D01*
X0117466Y0145403D01*
X0118270Y0144599D01*
X0118270Y0122956D01*
X0111970Y0116657D01*
X0111970Y0111650D01*
X0109608Y0109287D01*
X0109608Y0106098D01*
X0112470Y0103236D01*
X0112470Y0102420D01*
X0112890Y0101407D01*
X0113665Y0100632D01*
X0114678Y0100213D01*
X0115775Y0100213D01*
X0116787Y0100632D01*
X0117226Y0101071D01*
X0118564Y0101071D01*
X0118615Y0101020D01*
X0120027Y0101020D01*
X0110558Y0091551D01*
X0104897Y0091551D01*
X0104654Y0092137D01*
X0107352Y0094836D01*
X0107352Y0102046D01*
X0107352Y0101205D02*
X0113093Y0101205D01*
X0114181Y0100419D02*
X0107352Y0100419D01*
X0107352Y0099633D02*
X0118640Y0099633D01*
X0119426Y0100419D02*
X0116272Y0100419D01*
X0117854Y0098847D02*
X0107352Y0098847D01*
X0107352Y0098061D02*
X0117068Y0098061D01*
X0116282Y0097275D02*
X0107352Y0097275D01*
X0107352Y0096489D02*
X0115496Y0096489D01*
X0114710Y0095703D02*
X0107352Y0095703D01*
X0107352Y0094917D02*
X0113924Y0094917D01*
X0113139Y0094131D02*
X0106648Y0094131D01*
X0105862Y0093346D02*
X0112353Y0093346D01*
X0111567Y0092560D02*
X0105076Y0092560D01*
X0104805Y0091774D02*
X0110781Y0091774D01*
X0111211Y0089976D02*
X0125974Y0104740D01*
X0125463Y0104543D01*
X0125246Y0104760D01*
X0119951Y0104760D01*
X0119951Y0104543D01*
X0123880Y0100419D02*
X0126904Y0100419D01*
X0126904Y0100167D02*
X0126999Y0099812D01*
X0127182Y0099495D01*
X0127441Y0099235D01*
X0127759Y0099052D01*
X0128114Y0098957D01*
X0128809Y0098957D01*
X0128809Y0101905D01*
X0128809Y0101905D01*
X0128809Y0098957D01*
X0129504Y0098957D01*
X0129859Y0099052D01*
X0130063Y0099169D01*
X0139653Y0099169D01*
X0140344Y0099861D01*
X0140344Y0103047D01*
X0143531Y0103047D01*
X0144222Y0103739D01*
X0144222Y0105134D01*
X0145086Y0105134D01*
X0145541Y0104678D01*
X0145541Y0104005D01*
X0145424Y0103802D01*
X0145329Y0103447D01*
X0145329Y0102575D01*
X0147510Y0102575D01*
X0149691Y0102575D01*
X0149691Y0103447D01*
X0149596Y0103802D01*
X0149478Y0104005D01*
X0149478Y0106115D01*
X0148786Y0106807D01*
X0147867Y0106807D01*
X0146390Y0108283D01*
X0144435Y0108283D01*
X0144435Y0108677D01*
X0141486Y0108677D01*
X0138258Y0108677D01*
X0137667Y0109268D01*
X0134124Y0109268D01*
X0134124Y0110334D01*
X0133730Y0109661D02*
X0134124Y0109268D01*
X0140344Y0102776D02*
X0145329Y0102776D01*
X0145329Y0102575D02*
X0145329Y0101702D01*
X0145424Y0101348D01*
X0145607Y0101030D01*
X0145867Y0100771D01*
X0146184Y0100587D01*
X0146539Y0100492D01*
X0147510Y0100492D01*
X0148481Y0100492D01*
X0148835Y0100587D01*
X0149153Y0100771D01*
X0149412Y0101030D01*
X0149596Y0101348D01*
X0149691Y0101702D01*
X0149691Y0102575D01*
X0147510Y0102575D01*
X0147510Y0102575D01*
X0147510Y0102575D01*
X0147510Y0100492D01*
X0147510Y0102575D01*
X0147510Y0102575D01*
X0145329Y0102575D01*
X0145329Y0101991D02*
X0140344Y0101991D01*
X0140344Y0101205D02*
X0145506Y0101205D01*
X0145360Y0103562D02*
X0144046Y0103562D01*
X0144222Y0104348D02*
X0145541Y0104348D01*
X0147510Y0104937D02*
X0145738Y0106709D01*
X0141486Y0106709D01*
X0141486Y0108677D02*
X0141486Y0108677D01*
X0144435Y0108677D01*
X0144435Y0109071D01*
X0146390Y0109071D01*
X0147867Y0110547D01*
X0148786Y0110547D01*
X0149478Y0111239D01*
X0149478Y0113349D01*
X0149596Y0113553D01*
X0149691Y0113907D01*
X0149691Y0114779D01*
X0147510Y0114779D01*
X0147510Y0114780D01*
X0147510Y0114780D01*
X0147510Y0116862D01*
X0148481Y0116862D01*
X0148835Y0116767D01*
X0149153Y0116584D01*
X0149412Y0116324D01*
X0149596Y0116006D01*
X0149691Y0115652D01*
X0149691Y0114780D01*
X0147510Y0114780D01*
X0147510Y0116862D01*
X0146539Y0116862D01*
X0146184Y0116767D01*
X0145867Y0116584D01*
X0145607Y0116324D01*
X0145424Y0116006D01*
X0145329Y0115652D01*
X0145329Y0114780D01*
X0147510Y0114780D01*
X0147510Y0114779D01*
X0145329Y0114779D01*
X0145329Y0113907D01*
X0145424Y0113553D01*
X0145541Y0113349D01*
X0145541Y0112676D01*
X0145086Y0112220D01*
X0144435Y0112220D01*
X0144435Y0112614D01*
X0141486Y0112614D01*
X0141486Y0112614D01*
X0141486Y0110646D02*
X0145738Y0110646D01*
X0147510Y0112417D01*
X0149478Y0112207D02*
X0156959Y0112207D01*
X0156959Y0111422D02*
X0149478Y0111422D01*
X0148875Y0110636D02*
X0156959Y0110636D01*
X0156959Y0109850D02*
X0147169Y0109850D01*
X0146396Y0108278D02*
X0156959Y0108278D01*
X0156959Y0109064D02*
X0144435Y0109064D01*
X0147182Y0107492D02*
X0156959Y0107492D01*
X0156959Y0106706D02*
X0148888Y0106706D01*
X0149478Y0105920D02*
X0156959Y0105920D01*
X0156959Y0105134D02*
X0149478Y0105134D01*
X0149478Y0104348D02*
X0156959Y0104348D01*
X0156959Y0103562D02*
X0149660Y0103562D01*
X0149691Y0102776D02*
X0156959Y0102776D01*
X0156959Y0101991D02*
X0149691Y0101991D01*
X0149513Y0101205D02*
X0156959Y0101205D01*
X0156959Y0100419D02*
X0140344Y0100419D01*
X0140116Y0099633D02*
X0156959Y0099633D01*
X0156959Y0098847D02*
X0122308Y0098847D01*
X0121522Y0098061D02*
X0156959Y0098061D01*
X0156959Y0097275D02*
X0120736Y0097275D01*
X0119951Y0096489D02*
X0156959Y0096489D01*
X0156959Y0095703D02*
X0119165Y0095703D01*
X0118379Y0094917D02*
X0156959Y0094917D01*
X0156959Y0094131D02*
X0117593Y0094131D01*
X0116807Y0093346D02*
X0156959Y0093346D01*
X0156959Y0092560D02*
X0116021Y0092560D01*
X0115235Y0091774D02*
X0156959Y0091774D01*
X0156959Y0090988D02*
X0114449Y0090988D01*
X0113663Y0090202D02*
X0156959Y0090202D01*
X0156959Y0089416D02*
X0112877Y0089416D01*
X0112091Y0088630D02*
X0156959Y0088630D01*
X0156959Y0087844D02*
X0104666Y0087844D01*
X0104897Y0088402D02*
X0104404Y0087211D01*
X0103031Y0085838D01*
X0101237Y0085095D01*
X0100471Y0085095D01*
X0112667Y0072899D01*
X0112667Y0071079D01*
X0113157Y0071079D01*
X0113455Y0070781D01*
X0113753Y0071079D01*
X0117881Y0071079D01*
X0118179Y0070781D01*
X0118477Y0071079D01*
X0122605Y0071079D01*
X0122904Y0070781D01*
X0123202Y0071079D01*
X0127330Y0071079D01*
X0127478Y0070931D01*
X0127560Y0071013D01*
X0127877Y0071196D01*
X0128232Y0071291D01*
X0129596Y0071291D01*
X0129596Y0067535D01*
X0130384Y0067535D01*
X0130384Y0071291D01*
X0131748Y0071291D01*
X0132103Y0071196D01*
X0132352Y0071052D01*
X0132602Y0071196D01*
X0132956Y0071291D01*
X0134321Y0071291D01*
X0134321Y0067535D01*
X0135108Y0067535D01*
X0135108Y0071291D01*
X0135699Y0071291D01*
X0135699Y0076197D01*
X0156959Y0076197D01*
X0156959Y0156512D01*
X0004203Y0156512D01*
X0004203Y0156219D02*
X0156959Y0156219D01*
X0156959Y0155433D02*
X0004203Y0155433D01*
X0004203Y0154647D02*
X0156959Y0154647D01*
X0156959Y0153861D02*
X0004203Y0153861D01*
X0004203Y0153075D02*
X0156959Y0153075D01*
X0156959Y0152289D02*
X0117102Y0152289D01*
X0117888Y0151503D02*
X0156959Y0151503D01*
X0156959Y0150717D02*
X0118674Y0150717D01*
X0120686Y0149931D02*
X0141656Y0149931D01*
X0141769Y0150006D02*
X0141254Y0149662D01*
X0140816Y0149224D01*
X0140472Y0148710D01*
X0140235Y0148137D01*
X0140114Y0147530D01*
X0140114Y0147221D01*
X0143258Y0147221D01*
X0143258Y0147221D01*
X0143258Y0150364D01*
X0143567Y0150364D01*
X0144175Y0150243D01*
X0144747Y0150006D01*
X0145262Y0149662D01*
X0145700Y0149224D01*
X0146044Y0148710D01*
X0146281Y0148137D01*
X0146402Y0147530D01*
X0146402Y0147221D01*
X0143258Y0147221D01*
X0143258Y0150364D01*
X0142948Y0150364D01*
X0142341Y0150243D01*
X0141769Y0150006D01*
X0140763Y0149145D02*
X0122014Y0149145D01*
X0122586Y0148359D02*
X0140327Y0148359D01*
X0140123Y0147573D02*
X0122882Y0147573D01*
X0122882Y0146788D02*
X0140139Y0146788D01*
X0140114Y0146911D02*
X0140235Y0146303D01*
X0140472Y0145731D01*
X0140816Y0145216D01*
X0141254Y0144779D01*
X0141769Y0144435D01*
X0142341Y0144198D01*
X0142948Y0144077D01*
X0143258Y0144077D01*
X0143567Y0144077D01*
X0144175Y0144198D01*
X0144747Y0144435D01*
X0145262Y0144779D01*
X0145700Y0145216D01*
X0146044Y0145731D01*
X0146281Y0146303D01*
X0146402Y0146911D01*
X0146402Y0147220D01*
X0143258Y0147220D01*
X0143258Y0144077D01*
X0143258Y0147220D01*
X0143258Y0147220D01*
X0143258Y0147221D01*
X0143258Y0147220D01*
X0140114Y0147220D01*
X0140114Y0146911D01*
X0140360Y0146002D02*
X0122684Y0146002D01*
X0122249Y0145216D02*
X0140817Y0145216D01*
X0141780Y0144430D02*
X0121632Y0144430D01*
X0121632Y0143644D02*
X0156959Y0143644D01*
X0156959Y0144430D02*
X0144736Y0144430D01*
X0145699Y0145216D02*
X0156959Y0145216D01*
X0156959Y0146002D02*
X0146156Y0146002D01*
X0146377Y0146788D02*
X0156959Y0146788D01*
X0156959Y0147573D02*
X0146393Y0147573D01*
X0146189Y0148359D02*
X0156959Y0148359D01*
X0156959Y0149145D02*
X0145753Y0149145D01*
X0144859Y0149931D02*
X0156959Y0149931D01*
X0156959Y0142858D02*
X0121632Y0142858D01*
X0121632Y0142072D02*
X0156959Y0142072D01*
X0156959Y0141286D02*
X0121632Y0141286D01*
X0121632Y0140500D02*
X0156959Y0140500D01*
X0156959Y0139714D02*
X0121632Y0139714D01*
X0121632Y0138928D02*
X0156959Y0138928D01*
X0156959Y0138143D02*
X0121632Y0138143D01*
X0121632Y0137357D02*
X0156959Y0137357D01*
X0156959Y0136571D02*
X0121632Y0136571D01*
X0121632Y0135785D02*
X0156959Y0135785D01*
X0156959Y0134999D02*
X0121632Y0134999D01*
X0121632Y0134213D02*
X0156959Y0134213D01*
X0156959Y0133427D02*
X0121632Y0133427D01*
X0121632Y0132641D02*
X0156959Y0132641D01*
X0156959Y0131855D02*
X0121632Y0131855D01*
X0121632Y0131069D02*
X0156959Y0131069D01*
X0156959Y0130283D02*
X0121632Y0130283D01*
X0121632Y0129498D02*
X0156959Y0129498D01*
X0156959Y0128712D02*
X0121632Y0128712D01*
X0121632Y0127926D02*
X0156959Y0127926D01*
X0156959Y0127140D02*
X0121632Y0127140D01*
X0121632Y0126354D02*
X0135952Y0126354D01*
X0135506Y0125568D02*
X0121632Y0125568D01*
X0121632Y0124782D02*
X0135486Y0124782D01*
X0135486Y0123996D02*
X0121632Y0123996D01*
X0118270Y0123996D02*
X0097904Y0123996D01*
X0097904Y0123210D02*
X0118270Y0123210D01*
X0117738Y0122424D02*
X0097904Y0122424D01*
X0097904Y0121638D02*
X0116952Y0121638D01*
X0116166Y0120852D02*
X0097904Y0120852D01*
X0097904Y0120067D02*
X0115380Y0120067D01*
X0114594Y0119281D02*
X0097904Y0119281D01*
X0097904Y0118495D02*
X0113808Y0118495D01*
X0113022Y0117709D02*
X0097904Y0117709D01*
X0097904Y0116923D02*
X0112236Y0116923D01*
X0111970Y0116137D02*
X0097904Y0116137D01*
X0097904Y0115351D02*
X0111970Y0115351D01*
X0111970Y0114565D02*
X0097904Y0114565D01*
X0097904Y0113779D02*
X0111970Y0113779D01*
X0111970Y0112993D02*
X0097904Y0112993D01*
X0097904Y0112207D02*
X0111970Y0112207D01*
X0111742Y0111422D02*
X0097977Y0111422D01*
X0098763Y0110636D02*
X0110956Y0110636D01*
X0110171Y0109850D02*
X0099549Y0109850D01*
X0100335Y0109064D02*
X0109608Y0109064D01*
X0109608Y0108278D02*
X0101120Y0108278D01*
X0101906Y0107492D02*
X0109608Y0107492D01*
X0109608Y0106706D02*
X0102692Y0106706D01*
X0103478Y0105920D02*
X0109787Y0105920D01*
X0110572Y0105134D02*
X0104264Y0105134D01*
X0105050Y0104348D02*
X0111358Y0104348D01*
X0112144Y0103562D02*
X0105836Y0103562D01*
X0106622Y0102776D02*
X0112470Y0102776D01*
X0105778Y0101394D02*
X0105778Y0095488D01*
X0100266Y0089976D01*
X0111211Y0089976D01*
X0111863Y0088402D02*
X0126509Y0103047D01*
X0126904Y0103047D01*
X0126904Y0101906D01*
X0128809Y0101906D01*
X0128809Y0101905D01*
X0126904Y0101905D01*
X0126904Y0100167D01*
X0127102Y0099633D02*
X0123094Y0099633D01*
X0124666Y0101205D02*
X0126904Y0101205D01*
X0126904Y0101991D02*
X0125452Y0101991D01*
X0126238Y0102776D02*
X0126904Y0102776D01*
X0128809Y0101205D02*
X0128809Y0101205D01*
X0128809Y0100419D02*
X0128809Y0100419D01*
X0128809Y0099633D02*
X0128809Y0099633D01*
X0119951Y0110665D02*
X0119951Y0110843D01*
X0118270Y0124782D02*
X0097904Y0124782D01*
X0097904Y0125568D02*
X0118270Y0125568D01*
X0118270Y0126354D02*
X0097904Y0126354D01*
X0097904Y0127140D02*
X0118270Y0127140D01*
X0118270Y0127926D02*
X0097904Y0127926D01*
X0097904Y0128712D02*
X0118270Y0128712D01*
X0118270Y0129498D02*
X0097904Y0129498D01*
X0097904Y0130283D02*
X0118270Y0130283D01*
X0118270Y0131069D02*
X0097904Y0131069D01*
X0097904Y0131855D02*
X0118270Y0131855D01*
X0118270Y0132641D02*
X0097904Y0132641D01*
X0097904Y0133427D02*
X0118270Y0133427D01*
X0118270Y0134213D02*
X0097904Y0134213D01*
X0097904Y0134999D02*
X0118270Y0134999D01*
X0118270Y0135785D02*
X0097904Y0135785D01*
X0097904Y0136571D02*
X0118270Y0136571D01*
X0118270Y0137357D02*
X0097904Y0137357D01*
X0097904Y0138143D02*
X0118270Y0138143D01*
X0118270Y0138928D02*
X0097904Y0138928D01*
X0098293Y0139714D02*
X0118270Y0139714D01*
X0118270Y0140500D02*
X0099110Y0140500D01*
X0099792Y0141286D02*
X0118270Y0141286D01*
X0118270Y0142072D02*
X0100118Y0142072D01*
X0100443Y0142858D02*
X0118270Y0142858D01*
X0118270Y0143644D02*
X0100462Y0143644D01*
X0100462Y0144430D02*
X0118270Y0144430D01*
X0117653Y0145216D02*
X0100308Y0145216D01*
X0099983Y0146002D02*
X0117218Y0146002D01*
X0117020Y0146788D02*
X0099570Y0146788D01*
X0098784Y0147573D02*
X0117020Y0147573D01*
X0116277Y0148359D02*
X0097507Y0148359D01*
X0093655Y0148359D02*
X0087507Y0148359D01*
X0088784Y0147573D02*
X0092377Y0147573D01*
X0091591Y0146788D02*
X0089570Y0146788D01*
X0089983Y0146002D02*
X0091179Y0146002D01*
X0090853Y0145216D02*
X0090308Y0145216D01*
X0090462Y0144430D02*
X0090700Y0144430D01*
X0090700Y0143644D02*
X0090462Y0143644D01*
X0090443Y0142858D02*
X0090718Y0142858D01*
X0091044Y0142072D02*
X0090118Y0142072D01*
X0089792Y0141286D02*
X0091369Y0141286D01*
X0092052Y0140500D02*
X0089110Y0140500D01*
X0088293Y0139714D02*
X0092868Y0139714D01*
X0094754Y0138928D02*
X0087155Y0138928D01*
X0087155Y0138143D02*
X0094754Y0138143D01*
X0094754Y0137357D02*
X0087155Y0137357D01*
X0087155Y0136571D02*
X0094754Y0136571D01*
X0094754Y0135785D02*
X0087155Y0135785D01*
X0087155Y0134999D02*
X0094754Y0134999D01*
X0094754Y0134213D02*
X0087155Y0134213D01*
X0087155Y0133427D02*
X0094754Y0133427D01*
X0094754Y0132641D02*
X0087155Y0132641D01*
X0087155Y0131855D02*
X0094754Y0131855D01*
X0094754Y0131069D02*
X0087155Y0131069D01*
X0087155Y0130283D02*
X0094754Y0130283D01*
X0094754Y0129498D02*
X0087155Y0129498D01*
X0087155Y0128712D02*
X0094754Y0128712D01*
X0094754Y0127926D02*
X0087155Y0127926D01*
X0087155Y0127140D02*
X0094754Y0127140D01*
X0094754Y0126354D02*
X0087155Y0126354D01*
X0087155Y0125568D02*
X0094754Y0125568D01*
X0094754Y0124782D02*
X0087155Y0124782D01*
X0087155Y0123996D02*
X0094754Y0123996D01*
X0094754Y0123210D02*
X0087155Y0123210D01*
X0087155Y0122424D02*
X0094754Y0122424D01*
X0094754Y0121638D02*
X0087155Y0121638D01*
X0087155Y0120852D02*
X0094754Y0120852D01*
X0094754Y0120067D02*
X0087155Y0120067D01*
X0087155Y0119281D02*
X0094754Y0119281D01*
X0094754Y0118495D02*
X0087155Y0118495D01*
X0087155Y0117709D02*
X0094754Y0117709D01*
X0094754Y0116923D02*
X0087155Y0116923D01*
X0087155Y0116137D02*
X0094754Y0116137D01*
X0094754Y0115351D02*
X0087155Y0115351D01*
X0087904Y0114565D02*
X0094754Y0114565D01*
X0094754Y0113779D02*
X0088690Y0113779D01*
X0089476Y0112993D02*
X0094754Y0112993D01*
X0094754Y0112207D02*
X0090262Y0112207D01*
X0091048Y0111422D02*
X0094754Y0111422D01*
X0094754Y0110636D02*
X0091834Y0110636D01*
X0092620Y0109850D02*
X0095094Y0109850D01*
X0095880Y0109064D02*
X0093405Y0109064D01*
X0094191Y0108278D02*
X0096666Y0108278D01*
X0097452Y0107492D02*
X0094977Y0107492D01*
X0095763Y0106706D02*
X0098238Y0106706D01*
X0099024Y0105920D02*
X0096549Y0105920D01*
X0097335Y0105134D02*
X0099810Y0105134D01*
X0100266Y0100606D02*
X0100266Y0099976D01*
X0085581Y0114661D01*
X0085581Y0143874D01*
X0082052Y0140500D02*
X0079110Y0140500D01*
X0079792Y0141286D02*
X0081369Y0141286D01*
X0081044Y0142072D02*
X0080118Y0142072D01*
X0080443Y0142858D02*
X0080718Y0142858D01*
X0080700Y0143644D02*
X0080462Y0143644D01*
X0080462Y0144430D02*
X0080700Y0144430D01*
X0080853Y0145216D02*
X0080308Y0145216D01*
X0080086Y0146002D02*
X0081179Y0146002D01*
X0080872Y0146788D02*
X0081591Y0146788D01*
X0081658Y0147573D02*
X0082377Y0147573D01*
X0082444Y0148359D02*
X0083655Y0148359D01*
X0083229Y0149145D02*
X0115491Y0149145D01*
X0096329Y0143126D02*
X0095581Y0143874D01*
X0096329Y0143126D02*
X0096329Y0110843D01*
X0105778Y0101394D01*
X0100266Y0100606D02*
X0092392Y0100606D01*
X0078415Y0114583D01*
X0067785Y0114583D01*
X0067785Y0116551D02*
X0060305Y0116551D01*
X0044360Y0100606D01*
X0046132Y0098103D02*
X0047060Y0099031D01*
X0084308Y0099031D01*
X0111093Y0072247D01*
X0111093Y0067142D01*
X0113433Y0063481D02*
X0113477Y0063481D01*
X0118157Y0063481D02*
X0118201Y0063481D01*
X0122881Y0063481D02*
X0122926Y0063481D01*
X0129596Y0063481D02*
X0130384Y0063481D01*
X0130384Y0064267D02*
X0129596Y0064267D01*
X0129596Y0065053D02*
X0130384Y0065053D01*
X0130384Y0065839D02*
X0129596Y0065839D01*
X0129596Y0066624D02*
X0130384Y0066624D01*
X0130384Y0067410D02*
X0134321Y0067410D01*
X0134321Y0066624D02*
X0135108Y0066624D01*
X0135108Y0065839D02*
X0134321Y0065839D01*
X0134321Y0065053D02*
X0135108Y0065053D01*
X0135108Y0064267D02*
X0134321Y0064267D01*
X0134321Y0063481D02*
X0135108Y0063481D01*
X0135699Y0062695D02*
X0078022Y0062695D01*
X0078022Y0063481D02*
X0077234Y0063481D01*
X0077234Y0064267D02*
X0078022Y0064267D01*
X0078022Y0065053D02*
X0077234Y0065053D01*
X0077234Y0062695D02*
X0072390Y0062695D01*
X0073116Y0061909D02*
X0073872Y0061909D01*
X0073872Y0061123D02*
X0073442Y0061123D01*
X0073494Y0060337D02*
X0073958Y0060337D01*
X0074085Y0059551D02*
X0073349Y0059551D01*
X0072952Y0058765D02*
X0074085Y0058765D01*
X0074085Y0057979D02*
X0071978Y0057979D01*
X0071450Y0057194D02*
X0074085Y0057194D01*
X0074085Y0056408D02*
X0072236Y0056408D01*
X0073022Y0055622D02*
X0074092Y0055622D01*
X0073901Y0054836D02*
X0073808Y0054836D01*
X0071411Y0052478D02*
X0069557Y0052478D01*
X0069557Y0051692D02*
X0072197Y0051692D01*
X0072297Y0050906D02*
X0069264Y0050906D01*
X0069557Y0053264D02*
X0070625Y0053264D01*
X0069839Y0054050D02*
X0069557Y0054050D01*
X0068267Y0055622D02*
X0059533Y0055622D01*
X0059406Y0054836D02*
X0062963Y0054836D01*
X0062471Y0054050D02*
X0059320Y0054050D01*
X0059320Y0053264D02*
X0062471Y0053264D01*
X0062471Y0052478D02*
X0059320Y0052478D01*
X0059320Y0051692D02*
X0062471Y0051692D01*
X0062764Y0050906D02*
X0059027Y0050906D01*
X0055777Y0052772D02*
X0055384Y0053362D01*
X0055925Y0056408D02*
X0067481Y0056408D01*
X0066695Y0057194D02*
X0059533Y0057194D01*
X0059479Y0057979D02*
X0065909Y0057979D01*
X0066014Y0060252D02*
X0065620Y0060449D01*
X0062471Y0060337D02*
X0059320Y0060337D01*
X0059320Y0059551D02*
X0062471Y0059551D01*
X0062471Y0058765D02*
X0059320Y0058765D01*
X0059320Y0061123D02*
X0062471Y0061123D01*
X0062556Y0061909D02*
X0059235Y0061909D01*
X0055777Y0060252D02*
X0055384Y0059661D01*
X0055777Y0056512D02*
X0053019Y0056512D01*
X0052330Y0057201D01*
X0051545Y0057201D01*
X0051053Y0057693D01*
X0047297Y0057979D02*
X0045853Y0057979D01*
X0046258Y0058765D02*
X0047297Y0058765D01*
X0047297Y0059551D02*
X0046258Y0059551D01*
X0046258Y0060337D02*
X0048023Y0060337D01*
X0048809Y0061123D02*
X0046258Y0061123D01*
X0046258Y0061909D02*
X0049595Y0061909D01*
X0046375Y0063847D02*
X0046470Y0064202D01*
X0046470Y0065468D01*
X0043797Y0065468D01*
X0043797Y0066058D01*
X0043207Y0066058D01*
X0043207Y0068535D01*
X0041744Y0068535D01*
X0041389Y0068440D01*
X0041071Y0068256D01*
X0040812Y0067997D01*
X0040628Y0067679D01*
X0040533Y0067324D01*
X0040533Y0066058D01*
X0043207Y0066058D01*
X0043207Y0065468D01*
X0043797Y0065468D01*
X0043797Y0062991D01*
X0045260Y0062991D01*
X0045615Y0063086D01*
X0045933Y0063270D01*
X0046192Y0063529D01*
X0046375Y0063847D01*
X0046470Y0064267D02*
X0073896Y0064267D01*
X0073872Y0063481D02*
X0046144Y0063481D01*
X0045681Y0062695D02*
X0069087Y0062695D01*
X0070738Y0060449D02*
X0070541Y0060252D01*
X0074355Y0065053D02*
X0046470Y0065053D01*
X0046470Y0066058D02*
X0046470Y0067324D01*
X0046375Y0067679D01*
X0046192Y0067997D01*
X0045933Y0068256D01*
X0045615Y0068440D01*
X0045260Y0068535D01*
X0043797Y0068535D01*
X0043797Y0066058D01*
X0046470Y0066058D01*
X0046470Y0066624D02*
X0079778Y0066624D01*
X0079778Y0065839D02*
X0043797Y0065839D01*
X0043207Y0065839D02*
X0029820Y0065839D01*
X0030606Y0065053D02*
X0040533Y0065053D01*
X0040533Y0065468D02*
X0040533Y0064202D01*
X0040628Y0063847D01*
X0040812Y0063529D01*
X0041071Y0063270D01*
X0041389Y0063086D01*
X0041744Y0062991D01*
X0043207Y0062991D01*
X0043207Y0065468D01*
X0040533Y0065468D01*
X0040533Y0066624D02*
X0034041Y0066624D01*
X0034317Y0067410D02*
X0040557Y0067410D01*
X0041012Y0068196D02*
X0034317Y0068196D01*
X0034317Y0068982D02*
X0079778Y0068982D01*
X0079778Y0068196D02*
X0045992Y0068196D01*
X0046447Y0067410D02*
X0082352Y0067410D01*
X0082352Y0066624D02*
X0083140Y0066624D01*
X0083140Y0065839D02*
X0082352Y0065839D01*
X0082352Y0065053D02*
X0083140Y0065053D01*
X0083140Y0064267D02*
X0082352Y0064267D01*
X0081384Y0063481D02*
X0085130Y0063481D01*
X0081384Y0061909D02*
X0135699Y0061909D01*
X0135699Y0061123D02*
X0081384Y0061123D01*
X0081378Y0060337D02*
X0135699Y0060337D01*
X0135699Y0059551D02*
X0081959Y0059551D01*
X0081959Y0058765D02*
X0135699Y0058765D01*
X0135699Y0057979D02*
X0081959Y0057979D01*
X0081959Y0057194D02*
X0135699Y0057194D01*
X0135699Y0056408D02*
X0081959Y0056408D01*
X0081951Y0055622D02*
X0135699Y0055622D01*
X0135699Y0054836D02*
X0082142Y0054836D01*
X0082171Y0054050D02*
X0135699Y0054050D01*
X0135699Y0053264D02*
X0078415Y0053264D01*
X0078415Y0052478D02*
X0077628Y0052478D01*
X0077628Y0051692D02*
X0078415Y0051692D01*
X0078415Y0050906D02*
X0077628Y0050906D01*
X0077628Y0050120D02*
X0078415Y0050120D01*
X0078415Y0049334D02*
X0077628Y0049334D01*
X0078415Y0048548D02*
X0135699Y0048548D01*
X0135699Y0047763D02*
X0082171Y0047763D01*
X0082171Y0046977D02*
X0135699Y0046977D01*
X0135699Y0046191D02*
X0082092Y0046191D01*
X0081959Y0045405D02*
X0135699Y0045405D01*
X0135699Y0044619D02*
X0081959Y0044619D01*
X0081959Y0043833D02*
X0135699Y0043833D01*
X0135699Y0043047D02*
X0081959Y0043047D01*
X0081959Y0042261D02*
X0135699Y0042261D01*
X0135699Y0041475D02*
X0081959Y0041475D01*
X0082135Y0040689D02*
X0135699Y0040689D01*
X0135699Y0039903D02*
X0082171Y0039903D01*
X0082171Y0038332D02*
X0135699Y0038332D01*
X0135699Y0039118D02*
X0078415Y0039118D01*
X0082171Y0037546D02*
X0135699Y0037546D01*
X0135699Y0036760D02*
X0082097Y0036760D01*
X0081959Y0035974D02*
X0135699Y0035974D01*
X0135699Y0035188D02*
X0081959Y0035188D01*
X0081959Y0034402D02*
X0135699Y0034402D01*
X0135699Y0033616D02*
X0081959Y0033616D01*
X0081959Y0032830D02*
X0135699Y0032830D01*
X0135699Y0032044D02*
X0081959Y0032044D01*
X0081959Y0031258D02*
X0135699Y0031258D01*
X0135699Y0030472D02*
X0081959Y0030472D01*
X0081959Y0029687D02*
X0135699Y0029687D01*
X0135699Y0028901D02*
X0081959Y0028901D01*
X0081959Y0028115D02*
X0135699Y0028115D01*
X0135699Y0027329D02*
X0081959Y0027329D01*
X0081959Y0026543D02*
X0135699Y0026543D01*
X0135699Y0025757D02*
X0081959Y0025757D01*
X0081959Y0024971D02*
X0135699Y0024971D01*
X0135699Y0024185D02*
X0081959Y0024185D01*
X0081959Y0023399D02*
X0135699Y0023399D01*
X0135699Y0022613D02*
X0081959Y0022613D01*
X0081959Y0021827D02*
X0135699Y0021827D01*
X0135699Y0021042D02*
X0081959Y0021042D01*
X0081959Y0020256D02*
X0135699Y0020256D01*
X0135699Y0019470D02*
X0081959Y0019470D01*
X0081959Y0018684D02*
X0135699Y0018684D01*
X0135699Y0017898D02*
X0081959Y0017898D01*
X0081335Y0017112D02*
X0135699Y0017112D01*
X0135699Y0016326D02*
X0081384Y0016326D01*
X0081384Y0014754D02*
X0135699Y0014754D01*
X0135699Y0015540D02*
X0078022Y0015540D01*
X0078022Y0014754D02*
X0077234Y0014754D01*
X0077234Y0013968D02*
X0078022Y0013968D01*
X0078022Y0013182D02*
X0077234Y0013182D01*
X0077234Y0012396D02*
X0078022Y0012396D01*
X0079778Y0011611D02*
X0074671Y0011611D01*
X0074708Y0010825D02*
X0079778Y0010825D01*
X0079778Y0009253D02*
X0076280Y0009253D01*
X0075494Y0010039D02*
X0082352Y0010039D01*
X0082352Y0010825D02*
X0083140Y0010825D01*
X0083140Y0011611D02*
X0082352Y0011611D01*
X0082352Y0012396D02*
X0083140Y0012396D01*
X0083140Y0013182D02*
X0082352Y0013182D01*
X0081384Y0013968D02*
X0084989Y0013968D01*
X0079778Y0008467D02*
X0077066Y0008467D01*
X0074669Y0006109D02*
X0004203Y0006109D01*
X0004203Y0005323D02*
X0075455Y0005323D01*
X0076241Y0004537D02*
X0004203Y0004537D01*
X0004203Y0006895D02*
X0073883Y0006895D01*
X0073097Y0007681D02*
X0004203Y0007681D01*
X0004203Y0008467D02*
X0072311Y0008467D01*
X0071525Y0009253D02*
X0070962Y0009253D01*
X0069557Y0009253D02*
X0069557Y0009253D01*
X0069557Y0010039D02*
X0069557Y0010039D01*
X0069557Y0010825D02*
X0069557Y0010825D01*
X0069557Y0011611D02*
X0069557Y0011611D01*
X0069557Y0012396D02*
X0069557Y0012396D01*
X0069557Y0013182D02*
X0069557Y0013182D01*
X0068088Y0013182D02*
X0004203Y0013182D01*
X0004203Y0012396D02*
X0067525Y0012396D01*
X0067474Y0011611D02*
X0004203Y0011611D01*
X0004203Y0010825D02*
X0067474Y0010825D01*
X0067535Y0010039D02*
X0004203Y0010039D01*
X0004203Y0009253D02*
X0068152Y0009253D01*
X0072274Y0013968D02*
X0004203Y0013968D01*
X0004203Y0014754D02*
X0072297Y0014754D01*
X0072297Y0015540D02*
X0004203Y0015540D01*
X0004203Y0016326D02*
X0072297Y0016326D01*
X0072297Y0017112D02*
X0004203Y0017112D01*
X0004203Y0017898D02*
X0072297Y0017898D01*
X0072297Y0018684D02*
X0004203Y0018684D01*
X0004203Y0019470D02*
X0072297Y0019470D01*
X0072297Y0020256D02*
X0004203Y0020256D01*
X0004203Y0021042D02*
X0072297Y0021042D01*
X0072297Y0021827D02*
X0032526Y0021827D01*
X0033312Y0022613D02*
X0072297Y0022613D01*
X0072297Y0023399D02*
X0034098Y0023399D01*
X0034883Y0024185D02*
X0072297Y0024185D01*
X0072297Y0024971D02*
X0046821Y0024971D01*
X0046821Y0024920D02*
X0046821Y0030623D01*
X0046129Y0031315D01*
X0038851Y0031315D01*
X0038159Y0030623D01*
X0038159Y0024920D01*
X0038851Y0024228D01*
X0046129Y0024228D01*
X0046821Y0024920D01*
X0046821Y0025757D02*
X0072297Y0025757D01*
X0072297Y0026543D02*
X0046821Y0026543D01*
X0046821Y0027329D02*
X0072297Y0027329D01*
X0072297Y0028115D02*
X0046821Y0028115D01*
X0046821Y0028901D02*
X0072297Y0028901D01*
X0072297Y0029687D02*
X0046821Y0029687D01*
X0046821Y0030472D02*
X0072297Y0030472D01*
X0072297Y0031258D02*
X0046186Y0031258D01*
X0038795Y0031258D02*
X0035018Y0031258D01*
X0035018Y0030472D02*
X0038159Y0030472D01*
X0038159Y0029687D02*
X0035018Y0029687D01*
X0035018Y0028901D02*
X0038159Y0028901D01*
X0038159Y0028115D02*
X0035018Y0028115D01*
X0035018Y0027329D02*
X0038159Y0027329D01*
X0038159Y0026543D02*
X0035018Y0026543D01*
X0035018Y0025757D02*
X0038159Y0025757D01*
X0038159Y0024971D02*
X0035018Y0024971D01*
X0031656Y0025712D02*
X0030672Y0024728D01*
X0014348Y0024728D01*
X0013364Y0025712D01*
X0013364Y0034556D01*
X0017136Y0038327D01*
X0020478Y0038327D01*
X0021170Y0039019D01*
X0021170Y0043597D01*
X0020478Y0044289D01*
X0019270Y0044289D01*
X0019270Y0046945D01*
X0021322Y0048997D01*
X0021322Y0050475D01*
X0021401Y0050430D01*
X0021755Y0050335D01*
X0022490Y0050335D01*
X0022490Y0052575D01*
X0022490Y0054815D01*
X0021755Y0054815D01*
X0021401Y0054720D01*
X0021322Y0054674D01*
X0021322Y0054718D01*
X0021435Y0054831D01*
X0022008Y0055404D01*
X0022169Y0055312D01*
X0022523Y0055217D01*
X0023494Y0055217D01*
X0024465Y0055217D01*
X0024819Y0055312D01*
X0025137Y0055495D01*
X0025397Y0055754D01*
X0025580Y0056072D01*
X0025675Y0056427D01*
X0025675Y0057299D01*
X0023494Y0057299D01*
X0023494Y0057299D01*
X0023494Y0055217D01*
X0023494Y0057299D01*
X0023494Y0057299D01*
X0025675Y0057299D01*
X0025675Y0057980D01*
X0029112Y0057980D01*
X0029218Y0058087D01*
X0031464Y0058087D01*
X0032155Y0058778D01*
X0032155Y0060827D01*
X0034412Y0058571D01*
X0034725Y0058571D01*
X0034764Y0058532D01*
X0034584Y0058352D01*
X0034400Y0058034D01*
X0034305Y0057680D01*
X0034305Y0056610D01*
X0037569Y0056610D01*
X0037569Y0056413D01*
X0034305Y0056413D01*
X0034305Y0055344D01*
X0034400Y0054990D01*
X0034584Y0054672D01*
X0034764Y0054491D01*
X0034518Y0054245D01*
X0034518Y0052164D01*
X0027128Y0044775D01*
X0027128Y0044775D01*
X0026144Y0043790D01*
X0026144Y0039189D01*
X0024284Y0039189D01*
X0023603Y0038508D01*
X0021617Y0038508D01*
X0015907Y0032799D01*
X0015907Y0031389D01*
X0014699Y0031389D01*
X0014007Y0030697D01*
X0014007Y0026119D01*
X0014699Y0025427D01*
X0020478Y0025427D01*
X0021170Y0026119D01*
X0021170Y0030697D01*
X0020478Y0031389D01*
X0019270Y0031389D01*
X0019270Y0031406D01*
X0023009Y0035146D01*
X0023603Y0035146D01*
X0023740Y0035009D01*
X0023658Y0034927D01*
X0023475Y0034609D01*
X0023380Y0034254D01*
X0023380Y0033087D01*
X0027333Y0033087D01*
X0027333Y0032693D01*
X0027726Y0032693D01*
X0027726Y0030315D01*
X0030469Y0030315D01*
X0030823Y0030410D01*
X0031141Y0030593D01*
X0031401Y0030853D01*
X0031584Y0031171D01*
X0031656Y0031437D01*
X0031656Y0025712D01*
X0031656Y0025757D02*
X0020808Y0025757D01*
X0021170Y0026543D02*
X0031656Y0026543D01*
X0031656Y0027329D02*
X0021170Y0027329D01*
X0021170Y0028115D02*
X0031656Y0028115D01*
X0031656Y0028901D02*
X0021170Y0028901D01*
X0021170Y0029687D02*
X0031656Y0029687D01*
X0031656Y0030472D02*
X0030932Y0030472D01*
X0031608Y0031258D02*
X0031656Y0031258D01*
X0035018Y0032044D02*
X0072297Y0032044D01*
X0072297Y0032830D02*
X0035018Y0032830D01*
X0035018Y0033616D02*
X0072297Y0033616D01*
X0072297Y0034402D02*
X0035018Y0034402D01*
X0035018Y0035188D02*
X0072297Y0035188D01*
X0072297Y0035974D02*
X0035018Y0035974D01*
X0035018Y0036760D02*
X0072297Y0036760D01*
X0072297Y0037546D02*
X0035018Y0037546D01*
X0035018Y0038332D02*
X0072297Y0038332D01*
X0072297Y0039118D02*
X0046821Y0039118D01*
X0046821Y0039903D02*
X0072297Y0039903D01*
X0072297Y0040689D02*
X0046821Y0040689D01*
X0046821Y0041475D02*
X0072297Y0041475D01*
X0072959Y0042261D02*
X0046821Y0042261D01*
X0046821Y0043047D02*
X0073745Y0043047D01*
X0073904Y0043833D02*
X0046821Y0043833D01*
X0046821Y0044619D02*
X0073118Y0044619D01*
X0072332Y0045405D02*
X0046212Y0045405D01*
X0043353Y0047763D02*
X0072297Y0047763D01*
X0072297Y0048548D02*
X0044139Y0048548D01*
X0044925Y0049334D02*
X0072297Y0049334D01*
X0072297Y0050120D02*
X0045711Y0050120D01*
X0046496Y0050906D02*
X0052527Y0050906D01*
X0051921Y0051692D02*
X0047282Y0051692D01*
X0048068Y0052478D02*
X0051135Y0052478D01*
X0050349Y0053264D02*
X0048854Y0053264D01*
X0046457Y0055622D02*
X0042604Y0055622D01*
X0042604Y0056408D02*
X0047243Y0056408D01*
X0047297Y0057194D02*
X0042822Y0057194D01*
X0042604Y0054836D02*
X0045671Y0054836D01*
X0044885Y0054050D02*
X0042604Y0054050D01*
X0042604Y0053264D02*
X0044099Y0053264D01*
X0043313Y0052478D02*
X0042604Y0052478D01*
X0042567Y0046977D02*
X0072297Y0046977D01*
X0072297Y0046191D02*
X0041781Y0046191D01*
X0038159Y0042261D02*
X0038002Y0042261D01*
X0038159Y0041475D02*
X0037216Y0041475D01*
X0036430Y0040689D02*
X0038159Y0040689D01*
X0038159Y0039903D02*
X0035644Y0039903D01*
X0035018Y0039118D02*
X0038159Y0039118D01*
X0030116Y0047763D02*
X0020087Y0047763D01*
X0020873Y0048548D02*
X0030902Y0048548D01*
X0031688Y0049334D02*
X0021322Y0049334D01*
X0021322Y0050120D02*
X0032474Y0050120D01*
X0031764Y0050906D02*
X0033260Y0050906D01*
X0034046Y0051692D02*
X0032155Y0051692D01*
X0032155Y0051298D02*
X0032155Y0054245D01*
X0031464Y0054937D01*
X0026548Y0054937D01*
X0025876Y0054265D01*
X0025538Y0054602D01*
X0023783Y0054602D01*
X0023579Y0054720D01*
X0023225Y0054815D01*
X0022490Y0054815D01*
X0022490Y0052575D01*
X0022490Y0052575D01*
X0022490Y0052575D01*
X0022490Y0050335D01*
X0023225Y0050335D01*
X0023579Y0050430D01*
X0023783Y0050547D01*
X0025538Y0050547D01*
X0025991Y0051000D01*
X0026154Y0051000D01*
X0026548Y0050606D01*
X0031464Y0050606D01*
X0032155Y0051298D01*
X0032155Y0052478D02*
X0034518Y0052478D01*
X0034518Y0053264D02*
X0032155Y0053264D01*
X0032155Y0054050D02*
X0034518Y0054050D01*
X0034489Y0054836D02*
X0031565Y0054836D01*
X0034305Y0055622D02*
X0025264Y0055622D01*
X0025670Y0056408D02*
X0034305Y0056408D01*
X0034305Y0057194D02*
X0025675Y0057194D01*
X0025675Y0057979D02*
X0034385Y0057979D01*
X0034217Y0058765D02*
X0032142Y0058765D01*
X0032155Y0059551D02*
X0033432Y0059551D01*
X0032646Y0060337D02*
X0032155Y0060337D01*
X0035043Y0062695D02*
X0041323Y0062695D01*
X0040860Y0063481D02*
X0034257Y0063481D01*
X0033471Y0064267D02*
X0040533Y0064267D01*
X0043207Y0064267D02*
X0043797Y0064267D01*
X0043797Y0065053D02*
X0043207Y0065053D01*
X0043207Y0066624D02*
X0043797Y0066624D01*
X0043797Y0067410D02*
X0043207Y0067410D01*
X0043207Y0068196D02*
X0043797Y0068196D01*
X0043797Y0063481D02*
X0043207Y0063481D01*
X0034187Y0069768D02*
X0079778Y0069768D01*
X0079941Y0070554D02*
X0033140Y0070554D01*
X0032372Y0070554D02*
X0032372Y0070554D01*
X0032372Y0069768D02*
X0032372Y0069768D01*
X0032372Y0068982D02*
X0032372Y0068982D01*
X0032372Y0068196D02*
X0032372Y0068196D01*
X0032372Y0067410D02*
X0032372Y0067410D01*
X0032372Y0066624D02*
X0032372Y0066624D01*
X0030404Y0068362D02*
X0030364Y0068323D01*
X0030404Y0068362D02*
X0030404Y0072260D01*
X0030441Y0072297D01*
X0030441Y0076294D01*
X0033337Y0079190D01*
X0033337Y0095882D01*
X0030187Y0099031D01*
X0030187Y0110055D01*
X0030778Y0110646D01*
X0034321Y0110646D01*
X0034911Y0112417D02*
X0034321Y0112614D01*
X0034321Y0114583D02*
X0034321Y0114583D01*
X0038667Y0114583D01*
X0038667Y0115317D01*
X0038572Y0115672D01*
X0038455Y0115876D01*
X0038455Y0122654D01*
X0043888Y0122654D01*
X0044810Y0123576D01*
X0045462Y0124228D01*
X0046289Y0124228D01*
X0046289Y0120070D01*
X0045533Y0119314D01*
X0040514Y0114295D01*
X0038667Y0114295D01*
X0038667Y0114583D01*
X0034321Y0114583D01*
X0034321Y0118520D02*
X0030778Y0118520D01*
X0028612Y0116354D01*
X0028612Y0098244D01*
X0030404Y0096453D01*
X0030404Y0091594D01*
X0030404Y0091945D01*
X0030404Y0091594D02*
X0030404Y0088008D01*
X0028612Y0088008D02*
X0028396Y0088008D01*
X0027825Y0084071D02*
X0026447Y0082693D01*
X0020187Y0082693D01*
X0020187Y0080134D02*
X0030187Y0080134D01*
X0029037Y0077627D02*
X0024085Y0077627D01*
X0024085Y0076841D02*
X0028866Y0076841D01*
X0028866Y0076055D02*
X0024297Y0076055D01*
X0024297Y0075270D02*
X0028866Y0075270D01*
X0028866Y0074484D02*
X0024297Y0074484D01*
X0024251Y0073698D02*
X0026766Y0073698D01*
X0026663Y0072912D02*
X0024297Y0072912D01*
X0024297Y0072126D02*
X0026603Y0072126D01*
X0025817Y0071340D02*
X0024297Y0071340D01*
X0025031Y0070554D02*
X0019163Y0070554D01*
X0019163Y0069768D02*
X0018376Y0069768D01*
X0018376Y0068982D02*
X0019163Y0068982D01*
X0019163Y0068196D02*
X0018376Y0068196D01*
X0018376Y0067410D02*
X0019163Y0067410D01*
X0019163Y0066624D02*
X0018376Y0066624D01*
X0014848Y0065839D02*
X0025065Y0065839D01*
X0024876Y0066624D02*
X0023964Y0066624D01*
X0024297Y0067410D02*
X0024876Y0067410D01*
X0024876Y0068196D02*
X0024297Y0068196D01*
X0024297Y0068982D02*
X0024876Y0068982D01*
X0024876Y0069768D02*
X0024297Y0069768D01*
X0025851Y0065053D02*
X0014848Y0065053D01*
X0014848Y0064267D02*
X0026637Y0064267D01*
X0027423Y0063481D02*
X0014761Y0063481D01*
X0013995Y0062695D02*
X0028209Y0062695D01*
X0026040Y0061909D02*
X0016239Y0061909D01*
X0016644Y0057979D02*
X0019057Y0057979D01*
X0019042Y0057194D02*
X0016069Y0057194D01*
X0016001Y0056801D02*
X0015647Y0056896D01*
X0014184Y0056896D01*
X0014184Y0054420D01*
X0013593Y0054420D01*
X0013593Y0056896D01*
X0012130Y0056896D01*
X0011776Y0056801D01*
X0011458Y0056618D01*
X0011199Y0056358D01*
X0011015Y0056040D01*
X0010920Y0055686D01*
X0010920Y0054420D01*
X0013593Y0054420D01*
X0013593Y0053829D01*
X0010920Y0053829D01*
X0010920Y0052563D01*
X0011015Y0052209D01*
X0011199Y0051891D01*
X0011458Y0051631D01*
X0011776Y0051448D01*
X0012130Y0051353D01*
X0013593Y0051353D01*
X0013593Y0053829D01*
X0014184Y0053829D01*
X0014184Y0054420D01*
X0016857Y0054420D01*
X0016857Y0055686D01*
X0016762Y0056040D01*
X0016579Y0056358D01*
X0016319Y0056618D01*
X0016001Y0056801D01*
X0016529Y0056408D02*
X0018257Y0056408D01*
X0017959Y0055622D02*
X0016857Y0055622D01*
X0016857Y0054836D02*
X0017959Y0054836D01*
X0017959Y0054050D02*
X0014184Y0054050D01*
X0014184Y0053829D02*
X0016857Y0053829D01*
X0016857Y0052563D01*
X0016762Y0052209D01*
X0016579Y0051891D01*
X0016319Y0051631D01*
X0016001Y0051448D01*
X0015647Y0051353D01*
X0014184Y0051353D01*
X0014184Y0053829D01*
X0014184Y0053264D02*
X0013593Y0053264D01*
X0013593Y0054050D02*
X0004203Y0054050D01*
X0004203Y0054836D02*
X0010920Y0054836D01*
X0010920Y0055622D02*
X0009042Y0055622D01*
X0010239Y0056408D02*
X0011248Y0056408D01*
X0011708Y0057194D02*
X0010729Y0057194D01*
X0013593Y0056408D02*
X0014184Y0056408D01*
X0014184Y0055622D02*
X0013593Y0055622D01*
X0013593Y0054836D02*
X0014184Y0054836D01*
X0014184Y0052478D02*
X0013593Y0052478D01*
X0013593Y0051692D02*
X0014184Y0051692D01*
X0016380Y0051692D02*
X0017959Y0051692D01*
X0017959Y0050906D02*
X0004203Y0050906D01*
X0004203Y0050120D02*
X0017690Y0050120D01*
X0016904Y0049334D02*
X0004203Y0049334D01*
X0004203Y0048548D02*
X0016118Y0048548D01*
X0015907Y0047763D02*
X0004203Y0047763D01*
X0004203Y0046977D02*
X0015907Y0046977D01*
X0015907Y0046191D02*
X0004203Y0046191D01*
X0004203Y0045405D02*
X0015907Y0045405D01*
X0015907Y0044619D02*
X0004203Y0044619D01*
X0004203Y0043833D02*
X0014243Y0043833D01*
X0014007Y0043047D02*
X0004203Y0043047D01*
X0004203Y0042261D02*
X0014007Y0042261D01*
X0014007Y0041475D02*
X0004203Y0041475D01*
X0004203Y0040689D02*
X0014007Y0040689D01*
X0013957Y0039903D02*
X0004203Y0039903D01*
X0004203Y0039118D02*
X0013171Y0039118D01*
X0012385Y0038332D02*
X0004203Y0038332D01*
X0004203Y0037546D02*
X0011599Y0037546D01*
X0010813Y0036760D02*
X0004203Y0036760D01*
X0004203Y0035974D02*
X0010028Y0035974D01*
X0010002Y0035188D02*
X0004203Y0035188D01*
X0004203Y0034402D02*
X0010002Y0034402D01*
X0010002Y0033616D02*
X0004203Y0033616D01*
X0004203Y0032830D02*
X0010002Y0032830D01*
X0010002Y0032044D02*
X0004203Y0032044D01*
X0004203Y0031258D02*
X0010002Y0031258D01*
X0010002Y0030472D02*
X0004203Y0030472D01*
X0004203Y0029687D02*
X0010002Y0029687D01*
X0010002Y0028901D02*
X0004203Y0028901D01*
X0004203Y0028115D02*
X0010002Y0028115D01*
X0010002Y0027329D02*
X0004203Y0027329D01*
X0004203Y0026543D02*
X0010002Y0026543D01*
X0010002Y0025757D02*
X0004203Y0025757D01*
X0004203Y0024971D02*
X0010002Y0024971D01*
X0010136Y0024185D02*
X0004203Y0024185D01*
X0004203Y0023399D02*
X0010922Y0023399D01*
X0011708Y0022613D02*
X0004203Y0022613D01*
X0004203Y0021827D02*
X0012494Y0021827D01*
X0014105Y0024971D02*
X0030915Y0024971D01*
X0027333Y0030315D02*
X0027333Y0032693D01*
X0023380Y0032693D01*
X0023380Y0031525D01*
X0023475Y0031171D01*
X0023658Y0030853D01*
X0023918Y0030593D01*
X0024236Y0030410D01*
X0024590Y0030315D01*
X0027333Y0030315D01*
X0027333Y0030472D02*
X0027726Y0030472D01*
X0027726Y0031258D02*
X0027333Y0031258D01*
X0027333Y0032044D02*
X0027726Y0032044D01*
X0027333Y0032830D02*
X0020694Y0032830D01*
X0019908Y0032044D02*
X0023380Y0032044D01*
X0023451Y0031258D02*
X0020609Y0031258D01*
X0021170Y0030472D02*
X0024127Y0030472D01*
X0023380Y0033616D02*
X0021480Y0033616D01*
X0022266Y0034402D02*
X0023420Y0034402D01*
X0025463Y0036827D02*
X0027530Y0036827D01*
X0027825Y0036827D01*
X0026144Y0039903D02*
X0021170Y0039903D01*
X0021170Y0039118D02*
X0024213Y0039118D01*
X0026144Y0040689D02*
X0021170Y0040689D01*
X0021170Y0041475D02*
X0026144Y0041475D01*
X0026144Y0042261D02*
X0021170Y0042261D01*
X0021170Y0043047D02*
X0026144Y0043047D01*
X0026187Y0043833D02*
X0020934Y0043833D01*
X0019270Y0044619D02*
X0026973Y0044619D01*
X0027759Y0045405D02*
X0019270Y0045405D01*
X0019270Y0046191D02*
X0028544Y0046191D01*
X0029330Y0046977D02*
X0019301Y0046977D01*
X0022490Y0050906D02*
X0022490Y0050906D01*
X0022490Y0051692D02*
X0022490Y0051692D01*
X0022490Y0052478D02*
X0022490Y0052478D01*
X0022490Y0053264D02*
X0022490Y0053264D01*
X0022490Y0054050D02*
X0022490Y0054050D01*
X0021440Y0054836D02*
X0026447Y0054836D01*
X0023494Y0055622D02*
X0023494Y0055622D01*
X0023494Y0056408D02*
X0023494Y0056408D01*
X0023494Y0057194D02*
X0023494Y0057194D01*
X0021435Y0054831D02*
X0021435Y0054831D01*
X0024498Y0052575D02*
X0028612Y0052575D01*
X0029006Y0052772D01*
X0026248Y0050906D02*
X0025897Y0050906D01*
X0017959Y0052478D02*
X0016834Y0052478D01*
X0016857Y0053264D02*
X0017959Y0053264D01*
X0011397Y0051692D02*
X0004203Y0051692D01*
X0004203Y0052478D02*
X0010943Y0052478D01*
X0010920Y0053264D02*
X0004203Y0053264D01*
X0004203Y0055622D02*
X0007324Y0055622D01*
X0006127Y0056408D02*
X0004203Y0056408D01*
X0004203Y0057194D02*
X0005637Y0057194D01*
X0005427Y0057979D02*
X0004203Y0057979D01*
X0004203Y0058765D02*
X0005427Y0058765D01*
X0005740Y0059551D02*
X0004203Y0059551D01*
X0004203Y0060337D02*
X0006374Y0060337D01*
X0004203Y0061123D02*
X0009105Y0061123D01*
X0009321Y0062695D02*
X0010108Y0062695D01*
X0010108Y0063481D02*
X0009321Y0063481D01*
X0009321Y0064267D02*
X0010108Y0064267D01*
X0010108Y0065053D02*
X0009321Y0065053D01*
X0009321Y0065839D02*
X0010108Y0065839D01*
X0010108Y0066624D02*
X0009321Y0066624D01*
X0009321Y0067410D02*
X0010108Y0067410D01*
X0010108Y0068196D02*
X0009321Y0068196D01*
X0009321Y0068982D02*
X0004203Y0068982D01*
X0004203Y0068196D02*
X0004581Y0068196D01*
X0004581Y0067410D02*
X0004203Y0067410D01*
X0004203Y0066624D02*
X0004581Y0066624D01*
X0004581Y0065839D02*
X0004203Y0065839D01*
X0004203Y0065053D02*
X0004581Y0065053D01*
X0004581Y0064267D02*
X0004203Y0064267D01*
X0004203Y0063481D02*
X0004669Y0063481D01*
X0004203Y0062695D02*
X0005434Y0062695D01*
X0004203Y0061909D02*
X0011538Y0061909D01*
X0010108Y0069768D02*
X0009321Y0069768D01*
X0009321Y0070554D02*
X0010108Y0070554D01*
X0010108Y0071340D02*
X0009321Y0071340D01*
X0009321Y0072126D02*
X0010108Y0072126D01*
X0010108Y0072912D02*
X0009321Y0072912D01*
X0009321Y0073698D02*
X0010108Y0073698D01*
X0010108Y0074484D02*
X0009321Y0074484D01*
X0009321Y0075270D02*
X0010108Y0075270D01*
X0010108Y0076055D02*
X0009321Y0076055D01*
X0009321Y0076841D02*
X0004203Y0076841D01*
X0004203Y0076055D02*
X0004581Y0076055D01*
X0004581Y0075270D02*
X0004203Y0075270D01*
X0004203Y0074484D02*
X0004581Y0074484D01*
X0004627Y0073698D02*
X0004203Y0073698D01*
X0004203Y0072912D02*
X0004581Y0072912D01*
X0004581Y0072126D02*
X0004203Y0072126D01*
X0004203Y0071340D02*
X0004581Y0071340D01*
X0004581Y0070554D02*
X0004203Y0070554D01*
X0004203Y0069768D02*
X0004581Y0069768D01*
X0010108Y0076841D02*
X0016289Y0076841D01*
X0016289Y0077627D02*
X0014848Y0077627D01*
X0014848Y0078413D02*
X0016289Y0078413D01*
X0016289Y0079199D02*
X0014848Y0079199D01*
X0014582Y0079985D02*
X0016289Y0079985D01*
X0016289Y0080771D02*
X0014805Y0080771D01*
X0014848Y0081557D02*
X0016289Y0081557D01*
X0016289Y0082343D02*
X0014848Y0082343D01*
X0014848Y0083915D02*
X0016289Y0083915D01*
X0016289Y0084700D02*
X0014848Y0084700D01*
X0014848Y0085486D02*
X0016289Y0085486D01*
X0016289Y0083129D02*
X0010108Y0083129D01*
X0010108Y0083915D02*
X0009321Y0083915D01*
X0009321Y0084700D02*
X0010108Y0084700D01*
X0010108Y0085486D02*
X0009321Y0085486D01*
X0009321Y0086272D02*
X0010108Y0086272D01*
X0010108Y0087058D02*
X0009321Y0087058D01*
X0009321Y0087844D02*
X0010108Y0087844D01*
X0010108Y0088630D02*
X0009321Y0088630D01*
X0009321Y0089416D02*
X0010108Y0089416D01*
X0010108Y0090202D02*
X0009321Y0090202D01*
X0009321Y0090988D02*
X0010108Y0090988D01*
X0009321Y0091774D02*
X0004203Y0091774D01*
X0004203Y0092560D02*
X0004581Y0092560D01*
X0004581Y0093346D02*
X0004203Y0093346D01*
X0004203Y0094131D02*
X0004581Y0094131D01*
X0004581Y0094917D02*
X0004203Y0094917D01*
X0004203Y0095703D02*
X0004581Y0095703D01*
X0004589Y0096489D02*
X0004203Y0096489D01*
X0004203Y0097275D02*
X0005003Y0097275D01*
X0004203Y0098061D02*
X0027037Y0098061D01*
X0027037Y0098847D02*
X0004203Y0098847D01*
X0004203Y0099633D02*
X0027037Y0099633D01*
X0027037Y0100419D02*
X0004203Y0100419D01*
X0004203Y0101205D02*
X0027037Y0101205D01*
X0027037Y0101991D02*
X0004203Y0101991D01*
X0004203Y0102776D02*
X0027037Y0102776D01*
X0027037Y0103562D02*
X0019320Y0103562D01*
X0018376Y0103562D02*
X0018376Y0103562D01*
X0018376Y0104348D02*
X0018376Y0104348D01*
X0018376Y0105134D02*
X0018376Y0105134D01*
X0018376Y0105920D02*
X0018376Y0105920D01*
X0018376Y0106706D02*
X0018376Y0106706D01*
X0018376Y0107492D02*
X0018376Y0107492D01*
X0019163Y0108278D02*
X0004203Y0108278D01*
X0004203Y0109064D02*
X0019163Y0109064D01*
X0016696Y0107492D02*
X0004203Y0107492D01*
X0004203Y0106706D02*
X0016296Y0106706D01*
X0016293Y0105920D02*
X0004203Y0105920D01*
X0004203Y0105134D02*
X0016293Y0105134D01*
X0016418Y0104348D02*
X0004203Y0104348D01*
X0004203Y0103562D02*
X0017432Y0103562D01*
X0020738Y0105724D02*
X0020738Y0111630D01*
X0019951Y0112417D01*
X0019557Y0112614D01*
X0027431Y0120488D01*
X0034321Y0120488D01*
X0034321Y0122457D02*
X0020148Y0122457D01*
X0019951Y0122654D01*
X0019557Y0122457D01*
X0019951Y0122654D02*
X0020738Y0123441D01*
X0020738Y0129346D01*
X0022608Y0129498D02*
X0030958Y0129498D01*
X0030173Y0130283D02*
X0022608Y0130283D01*
X0022162Y0131069D02*
X0029387Y0131069D01*
X0028601Y0131855D02*
X0004203Y0131855D01*
X0004203Y0131069D02*
X0016651Y0131069D01*
X0016293Y0130283D02*
X0004203Y0130283D01*
X0004203Y0129498D02*
X0016293Y0129498D01*
X0016293Y0128712D02*
X0004203Y0128712D01*
X0004203Y0127926D02*
X0016443Y0127926D01*
X0015486Y0125568D02*
X0004203Y0125568D01*
X0004203Y0126354D02*
X0019163Y0126354D01*
X0019163Y0127140D02*
X0004203Y0127140D01*
X0004203Y0124782D02*
X0014833Y0124782D01*
X0014833Y0123996D02*
X0004203Y0123996D01*
X0004203Y0123210D02*
X0014833Y0123210D01*
X0014833Y0122424D02*
X0004203Y0122424D01*
X0004203Y0121638D02*
X0014833Y0121638D01*
X0014833Y0120852D02*
X0004203Y0120852D01*
X0004203Y0120067D02*
X0014833Y0120067D01*
X0015112Y0115351D02*
X0004203Y0115351D01*
X0004203Y0114565D02*
X0014833Y0114565D01*
X0014833Y0113779D02*
X0004203Y0113779D01*
X0004203Y0112993D02*
X0014833Y0112993D01*
X0014833Y0112207D02*
X0004203Y0112207D01*
X0004203Y0111422D02*
X0014833Y0111422D01*
X0014833Y0110636D02*
X0004203Y0110636D01*
X0004203Y0109850D02*
X0015139Y0109850D01*
X0022313Y0109064D02*
X0027037Y0109064D01*
X0027037Y0109850D02*
X0023975Y0109850D01*
X0024281Y0110636D02*
X0027037Y0110636D01*
X0027037Y0111422D02*
X0024281Y0111422D01*
X0024281Y0112207D02*
X0027037Y0112207D01*
X0027037Y0112993D02*
X0024281Y0112993D01*
X0024281Y0113779D02*
X0027037Y0113779D01*
X0027037Y0114565D02*
X0024281Y0114565D01*
X0024521Y0115351D02*
X0027037Y0115351D01*
X0027037Y0116137D02*
X0025307Y0116137D01*
X0026093Y0116923D02*
X0027037Y0116923D01*
X0026879Y0117709D02*
X0027740Y0117709D01*
X0027665Y0118495D02*
X0028526Y0118495D01*
X0025568Y0120852D02*
X0024281Y0120852D01*
X0024281Y0120067D02*
X0024782Y0120067D01*
X0023996Y0119281D02*
X0004203Y0119281D01*
X0004203Y0118495D02*
X0023211Y0118495D01*
X0022425Y0117709D02*
X0004203Y0117709D01*
X0004203Y0116923D02*
X0021639Y0116923D01*
X0020853Y0116137D02*
X0004203Y0116137D01*
X0018376Y0127926D02*
X0018376Y0127926D01*
X0018376Y0128712D02*
X0018376Y0128712D01*
X0018376Y0129498D02*
X0018376Y0129498D01*
X0018376Y0130283D02*
X0018376Y0130283D01*
X0018376Y0131069D02*
X0018376Y0131069D01*
X0022608Y0128712D02*
X0031744Y0128712D01*
X0032530Y0127926D02*
X0022464Y0127926D01*
X0022313Y0127140D02*
X0033316Y0127140D01*
X0034102Y0126354D02*
X0022313Y0126354D01*
X0023628Y0125568D02*
X0034888Y0125568D01*
X0035674Y0124782D02*
X0024281Y0124782D01*
X0027815Y0132641D02*
X0004203Y0132641D01*
X0004203Y0133427D02*
X0027029Y0133427D01*
X0026243Y0134213D02*
X0004203Y0134213D01*
X0004203Y0134999D02*
X0025457Y0134999D01*
X0024671Y0135785D02*
X0004203Y0135785D01*
X0004203Y0136571D02*
X0023885Y0136571D01*
X0023099Y0137357D02*
X0004203Y0137357D01*
X0004203Y0138143D02*
X0022313Y0138143D01*
X0021528Y0138928D02*
X0004203Y0138928D01*
X0004203Y0139714D02*
X0020742Y0139714D01*
X0019956Y0140500D02*
X0004203Y0140500D01*
X0004203Y0141286D02*
X0019170Y0141286D01*
X0018384Y0142072D02*
X0004203Y0142072D01*
X0004203Y0142858D02*
X0017598Y0142858D01*
X0016812Y0143644D02*
X0004203Y0143644D01*
X0004203Y0144430D02*
X0014318Y0144430D01*
X0013322Y0145216D02*
X0004203Y0145216D01*
X0004203Y0146002D02*
X0012887Y0146002D01*
X0012689Y0146788D02*
X0004203Y0146788D01*
X0004203Y0147573D02*
X0012689Y0147573D01*
X0012984Y0148359D02*
X0004203Y0148359D01*
X0004203Y0149145D02*
X0013557Y0149145D01*
X0014885Y0149931D02*
X0004203Y0149931D01*
X0004203Y0150717D02*
X0044456Y0150717D01*
X0043670Y0149931D02*
X0034071Y0149931D01*
X0032602Y0149931D02*
X0016355Y0149931D01*
X0017683Y0149145D02*
X0031274Y0149145D01*
X0030701Y0148359D02*
X0018256Y0148359D01*
X0018551Y0147573D02*
X0030406Y0147573D01*
X0030406Y0146788D02*
X0018551Y0146788D01*
X0018908Y0146002D02*
X0030604Y0146002D01*
X0031039Y0145216D02*
X0019694Y0145216D01*
X0020480Y0144430D02*
X0031762Y0144430D01*
X0031762Y0143644D02*
X0021266Y0143644D01*
X0022052Y0142858D02*
X0031762Y0142858D01*
X0031762Y0142072D02*
X0022838Y0142072D01*
X0023624Y0141286D02*
X0031762Y0141286D01*
X0031762Y0140500D02*
X0024410Y0140500D01*
X0025196Y0139714D02*
X0031762Y0139714D01*
X0031762Y0138928D02*
X0025982Y0138928D01*
X0026768Y0138143D02*
X0032156Y0138143D01*
X0032942Y0137357D02*
X0027554Y0137357D01*
X0028339Y0136571D02*
X0033728Y0136571D01*
X0034514Y0135785D02*
X0029125Y0135785D01*
X0029911Y0134999D02*
X0035300Y0134999D01*
X0036085Y0134213D02*
X0030697Y0134213D01*
X0031483Y0133427D02*
X0036871Y0133427D01*
X0037657Y0132641D02*
X0032269Y0132641D01*
X0033055Y0131855D02*
X0038443Y0131855D01*
X0038494Y0131069D02*
X0033841Y0131069D01*
X0034627Y0130283D02*
X0038494Y0130283D01*
X0038494Y0129498D02*
X0035413Y0129498D01*
X0036199Y0128712D02*
X0038494Y0128712D01*
X0038494Y0127926D02*
X0036984Y0127926D01*
X0037770Y0127140D02*
X0038494Y0127140D01*
X0038455Y0124228D02*
X0043235Y0124228D01*
X0044163Y0125156D01*
X0044163Y0128362D01*
X0046132Y0128362D02*
X0046132Y0131568D01*
X0044416Y0133283D01*
X0039242Y0133283D01*
X0033337Y0139189D01*
X0033337Y0147063D01*
X0036070Y0146002D02*
X0043663Y0146002D01*
X0043663Y0146788D02*
X0036268Y0146788D01*
X0036268Y0147573D02*
X0043663Y0147573D01*
X0043663Y0148359D02*
X0035972Y0148359D01*
X0035399Y0149145D02*
X0043663Y0149145D01*
X0045242Y0151503D02*
X0004203Y0151503D01*
X0004203Y0152289D02*
X0046028Y0152289D01*
X0050896Y0147063D02*
X0055974Y0141984D01*
X0055974Y0134858D01*
X0054616Y0136217D01*
X0049085Y0136217D01*
X0049717Y0134484D02*
X0050420Y0134484D01*
X0050578Y0134642D01*
X0053964Y0134642D01*
X0054400Y0134206D01*
X0054400Y0132496D01*
X0053330Y0132496D01*
X0053127Y0132614D01*
X0052772Y0132709D01*
X0052037Y0132709D01*
X0051493Y0132709D01*
X0049717Y0134484D01*
X0049989Y0134213D02*
X0054393Y0134213D01*
X0054400Y0133427D02*
X0050774Y0133427D01*
X0052037Y0132709D02*
X0052037Y0128362D01*
X0052037Y0128362D01*
X0052037Y0124016D01*
X0051303Y0124016D01*
X0050948Y0124111D01*
X0050745Y0124228D01*
X0049652Y0124228D01*
X0049652Y0120299D01*
X0052525Y0120299D01*
X0052532Y0120291D01*
X0053511Y0120291D01*
X0057357Y0124138D01*
X0064292Y0124138D01*
X0064343Y0124189D01*
X0067140Y0124189D01*
X0073900Y0130948D01*
X0073900Y0139287D01*
X0072816Y0139736D01*
X0071443Y0141109D01*
X0070700Y0142903D01*
X0070700Y0144845D01*
X0071149Y0145929D01*
X0067758Y0149319D01*
X0052785Y0149319D01*
X0053381Y0148723D01*
X0053827Y0147646D01*
X0053827Y0146480D01*
X0053791Y0146394D01*
X0057549Y0142637D01*
X0057549Y0132496D01*
X0062920Y0132496D01*
X0063612Y0131804D01*
X0063612Y0124920D01*
X0062920Y0124228D01*
X0053330Y0124228D01*
X0053127Y0124111D01*
X0052772Y0124016D01*
X0052037Y0124016D01*
X0052037Y0128362D01*
X0052037Y0128362D01*
X0052037Y0132709D01*
X0052037Y0132641D02*
X0052037Y0132641D01*
X0052037Y0131855D02*
X0052037Y0131855D01*
X0052037Y0131069D02*
X0052037Y0131069D01*
X0052037Y0130283D02*
X0052037Y0130283D01*
X0052037Y0129498D02*
X0052037Y0129498D01*
X0052037Y0128712D02*
X0052037Y0128712D01*
X0052037Y0127926D02*
X0052037Y0127926D01*
X0052037Y0127140D02*
X0052037Y0127140D01*
X0052037Y0126354D02*
X0052037Y0126354D01*
X0052037Y0125568D02*
X0052037Y0125568D01*
X0052037Y0124782D02*
X0052037Y0124782D01*
X0049652Y0123996D02*
X0057216Y0123996D01*
X0056430Y0123210D02*
X0049652Y0123210D01*
X0049652Y0122424D02*
X0055644Y0122424D01*
X0054858Y0121638D02*
X0049652Y0121638D01*
X0049652Y0120852D02*
X0054072Y0120852D01*
X0058069Y0120094D02*
X0058750Y0120776D01*
X0063439Y0120776D01*
X0063439Y0120488D01*
X0063439Y0120094D01*
X0058069Y0120094D01*
X0058337Y0118520D02*
X0036486Y0096669D01*
X0036486Y0086433D01*
X0035365Y0083915D02*
X0034911Y0083915D01*
X0034911Y0083129D02*
X0042589Y0083129D01*
X0042589Y0083915D02*
X0037607Y0083915D01*
X0038651Y0084700D02*
X0042589Y0084700D01*
X0042589Y0085486D02*
X0039077Y0085486D01*
X0039242Y0086272D02*
X0042589Y0086272D01*
X0042589Y0087058D02*
X0039210Y0087058D01*
X0038885Y0087844D02*
X0042589Y0087844D01*
X0042589Y0088630D02*
X0038187Y0088630D01*
X0038061Y0089416D02*
X0042589Y0089416D01*
X0042589Y0090202D02*
X0038061Y0090202D01*
X0038061Y0090988D02*
X0038962Y0090988D01*
X0038494Y0091774D02*
X0038061Y0091774D01*
X0038061Y0092560D02*
X0038494Y0092560D01*
X0038494Y0093346D02*
X0038061Y0093346D01*
X0038061Y0094131D02*
X0038494Y0094131D01*
X0038494Y0094917D02*
X0038061Y0094917D01*
X0038061Y0095703D02*
X0038494Y0095703D01*
X0044163Y0094898D02*
X0044163Y0081118D01*
X0050029Y0075253D01*
X0101210Y0075253D01*
X0106171Y0070291D01*
X0106171Y0067339D01*
X0106368Y0067142D01*
X0104028Y0063481D02*
X0103984Y0063481D01*
X0099304Y0063481D02*
X0099259Y0063481D01*
X0094579Y0063481D02*
X0094535Y0063481D01*
X0089855Y0063481D02*
X0089811Y0063481D01*
X0083140Y0068196D02*
X0082352Y0068196D01*
X0082352Y0068982D02*
X0083140Y0068982D01*
X0083140Y0069768D02*
X0082352Y0069768D01*
X0082352Y0070554D02*
X0083140Y0070554D01*
X0084177Y0076828D02*
X0084719Y0077369D01*
X0085462Y0079163D01*
X0085462Y0081105D01*
X0084719Y0082899D01*
X0083346Y0084272D01*
X0081552Y0085015D01*
X0079610Y0085015D01*
X0077816Y0084272D01*
X0076443Y0082899D01*
X0075994Y0081815D01*
X0055539Y0081815D01*
X0053414Y0083940D01*
X0053461Y0083953D01*
X0053779Y0084137D01*
X0054038Y0084396D01*
X0054222Y0084714D01*
X0054317Y0085068D01*
X0054317Y0086039D01*
X0052234Y0086039D01*
X0052234Y0086039D01*
X0052234Y0088220D01*
X0051362Y0088220D01*
X0051007Y0088125D01*
X0050804Y0088008D01*
X0050281Y0088008D01*
X0049781Y0088507D01*
X0049781Y0090551D01*
X0050069Y0090551D01*
X0050804Y0090551D01*
X0051158Y0090646D01*
X0051362Y0090764D01*
X0058612Y0090764D01*
X0060052Y0089324D01*
X0060975Y0088402D01*
X0068416Y0088402D01*
X0069177Y0087640D01*
X0070190Y0087220D01*
X0071286Y0087220D01*
X0072299Y0087640D01*
X0073075Y0088415D01*
X0073494Y0089428D01*
X0073494Y0090525D01*
X0073075Y0091537D01*
X0072299Y0092313D01*
X0071286Y0092732D01*
X0070190Y0092732D01*
X0069177Y0092313D01*
X0068416Y0091551D01*
X0063612Y0091551D01*
X0063612Y0097457D01*
X0083655Y0097457D01*
X0109518Y0071594D01*
X0109518Y0071079D01*
X0109028Y0071079D01*
X0108730Y0070781D01*
X0108432Y0071079D01*
X0107611Y0071079D01*
X0102785Y0075905D01*
X0101862Y0076828D01*
X0084177Y0076828D01*
X0084191Y0076841D02*
X0104271Y0076841D01*
X0105057Y0076055D02*
X0102634Y0076055D01*
X0103420Y0075270D02*
X0105843Y0075270D01*
X0106628Y0074484D02*
X0104206Y0074484D01*
X0104992Y0073698D02*
X0107414Y0073698D01*
X0108200Y0072912D02*
X0105778Y0072912D01*
X0106564Y0072126D02*
X0108986Y0072126D01*
X0109518Y0071340D02*
X0107350Y0071340D01*
X0102896Y0071340D02*
X0032136Y0071340D01*
X0032136Y0072126D02*
X0102110Y0072126D01*
X0101324Y0072912D02*
X0032136Y0072912D01*
X0032034Y0073698D02*
X0049357Y0073698D01*
X0048571Y0074484D02*
X0032015Y0074484D01*
X0032015Y0075270D02*
X0047785Y0075270D01*
X0046999Y0076055D02*
X0032429Y0076055D01*
X0033215Y0076841D02*
X0046213Y0076841D01*
X0045427Y0077627D02*
X0034001Y0077627D01*
X0034787Y0078413D02*
X0044641Y0078413D01*
X0043855Y0079199D02*
X0034911Y0079199D01*
X0034911Y0079985D02*
X0043069Y0079985D01*
X0042589Y0080771D02*
X0034911Y0080771D01*
X0034911Y0081557D02*
X0042589Y0081557D01*
X0042589Y0082343D02*
X0034911Y0082343D01*
X0028010Y0078413D02*
X0024085Y0078413D01*
X0016077Y0076055D02*
X0014848Y0076055D01*
X0014848Y0075270D02*
X0016077Y0075270D01*
X0010108Y0077627D02*
X0009321Y0077627D01*
X0009321Y0078413D02*
X0010108Y0078413D01*
X0010108Y0079199D02*
X0009321Y0079199D01*
X0009321Y0079985D02*
X0010108Y0079985D01*
X0010108Y0080771D02*
X0009321Y0080771D01*
X0009321Y0081557D02*
X0010108Y0081557D01*
X0010108Y0082343D02*
X0009321Y0082343D01*
X0009321Y0083129D02*
X0004203Y0083129D01*
X0004203Y0083915D02*
X0004581Y0083915D01*
X0004581Y0084700D02*
X0004203Y0084700D01*
X0004203Y0085486D02*
X0004581Y0085486D01*
X0004673Y0086272D02*
X0004203Y0086272D01*
X0004203Y0087058D02*
X0004581Y0087058D01*
X0004581Y0087844D02*
X0004203Y0087844D01*
X0004203Y0088630D02*
X0004581Y0088630D01*
X0004581Y0089416D02*
X0004203Y0089416D01*
X0004203Y0090202D02*
X0004581Y0090202D01*
X0004581Y0090988D02*
X0004203Y0090988D01*
X0009321Y0092560D02*
X0010108Y0092560D01*
X0010108Y0093346D02*
X0009321Y0093346D01*
X0009321Y0094131D02*
X0010108Y0094131D01*
X0010108Y0094917D02*
X0009321Y0094917D01*
X0009321Y0095703D02*
X0010108Y0095703D01*
X0010108Y0096489D02*
X0009321Y0096489D01*
X0009321Y0097275D02*
X0010108Y0097275D01*
X0014426Y0097275D02*
X0027354Y0097275D01*
X0028140Y0096489D02*
X0026446Y0096489D01*
X0027570Y0095703D02*
X0028829Y0095703D01*
X0028829Y0094917D02*
X0028030Y0094917D01*
X0028396Y0094131D02*
X0028396Y0094131D01*
X0028396Y0093346D02*
X0028396Y0093346D01*
X0028396Y0092560D02*
X0028396Y0092560D01*
X0024569Y0090988D02*
X0024297Y0090988D01*
X0024569Y0090202D02*
X0019163Y0090202D01*
X0019163Y0090988D02*
X0018376Y0090988D01*
X0018376Y0091774D02*
X0019163Y0091774D01*
X0019163Y0092560D02*
X0018376Y0092560D01*
X0018376Y0093346D02*
X0019163Y0093346D01*
X0022707Y0094131D02*
X0014848Y0094131D01*
X0014848Y0094917D02*
X0022895Y0094917D01*
X0023355Y0095703D02*
X0014848Y0095703D01*
X0014840Y0096489D02*
X0024480Y0096489D01*
X0024569Y0089416D02*
X0024297Y0089416D01*
X0024297Y0088630D02*
X0024495Y0088630D01*
X0022509Y0104348D02*
X0027037Y0104348D01*
X0027037Y0105134D02*
X0022608Y0105134D01*
X0022608Y0105920D02*
X0027037Y0105920D01*
X0027037Y0106706D02*
X0022608Y0106706D01*
X0022313Y0107492D02*
X0027037Y0107492D01*
X0027037Y0108278D02*
X0022313Y0108278D01*
X0038667Y0114565D02*
X0040784Y0114565D01*
X0041570Y0115351D02*
X0038658Y0115351D01*
X0038455Y0116137D02*
X0042356Y0116137D01*
X0043142Y0116923D02*
X0038455Y0116923D01*
X0038455Y0117709D02*
X0043928Y0117709D01*
X0044714Y0118495D02*
X0038455Y0118495D01*
X0038455Y0119281D02*
X0045500Y0119281D01*
X0046286Y0120067D02*
X0038455Y0120067D01*
X0038455Y0120852D02*
X0046289Y0120852D01*
X0046289Y0121638D02*
X0038455Y0121638D01*
X0038455Y0122424D02*
X0046289Y0122424D01*
X0046289Y0123210D02*
X0044444Y0123210D01*
X0045230Y0123996D02*
X0046289Y0123996D01*
X0048297Y0128165D02*
X0048100Y0128362D01*
X0050069Y0128362D02*
X0050069Y0131906D01*
X0045935Y0136039D01*
X0043179Y0136039D01*
X0045360Y0137614D02*
X0045360Y0138402D01*
X0045360Y0139274D01*
X0045265Y0139628D01*
X0045213Y0139718D01*
X0047057Y0137875D01*
X0047057Y0137144D01*
X0046587Y0137614D01*
X0045360Y0137614D01*
X0045360Y0138143D02*
X0046789Y0138143D01*
X0046845Y0137357D02*
X0047057Y0137357D01*
X0046003Y0138928D02*
X0045360Y0138928D01*
X0045360Y0138402D02*
X0043179Y0138402D01*
X0043179Y0138402D01*
X0043179Y0138402D01*
X0045360Y0138402D01*
X0045216Y0139714D02*
X0045217Y0139714D01*
X0044431Y0140500D02*
X0034911Y0140500D01*
X0034911Y0141286D02*
X0043663Y0141286D01*
X0043663Y0142072D02*
X0034911Y0142072D01*
X0034911Y0142858D02*
X0043663Y0142858D01*
X0043663Y0143644D02*
X0034911Y0143644D01*
X0034911Y0144430D02*
X0043663Y0144430D01*
X0043663Y0145216D02*
X0035635Y0145216D01*
X0035038Y0139714D02*
X0041143Y0139714D01*
X0040998Y0138928D02*
X0035824Y0138928D01*
X0036610Y0138143D02*
X0040998Y0138143D01*
X0041044Y0137357D02*
X0037396Y0137357D01*
X0038182Y0136571D02*
X0041211Y0136571D01*
X0041211Y0135785D02*
X0038968Y0135785D01*
X0039754Y0134999D02*
X0041211Y0134999D01*
X0043179Y0138928D02*
X0043179Y0138928D01*
X0043179Y0139714D02*
X0043179Y0139714D01*
X0053024Y0132641D02*
X0054400Y0132641D01*
X0055974Y0134858D02*
X0055974Y0128362D01*
X0057549Y0132641D02*
X0073900Y0132641D01*
X0073900Y0131855D02*
X0063561Y0131855D01*
X0063612Y0131069D02*
X0073900Y0131069D01*
X0073235Y0130283D02*
X0063612Y0130283D01*
X0063612Y0129498D02*
X0072449Y0129498D01*
X0071663Y0128712D02*
X0063612Y0128712D01*
X0063612Y0127926D02*
X0070877Y0127926D01*
X0070091Y0127140D02*
X0063612Y0127140D01*
X0063612Y0126354D02*
X0069305Y0126354D01*
X0068519Y0125568D02*
X0063612Y0125568D01*
X0063474Y0124782D02*
X0067733Y0124782D01*
X0067785Y0120488D02*
X0063439Y0120488D01*
X0067785Y0120488D01*
X0067785Y0120488D01*
X0067785Y0118520D02*
X0058337Y0118520D01*
X0064242Y0116551D02*
X0067785Y0116551D01*
X0067785Y0112614D02*
X0078022Y0112614D01*
X0099478Y0091157D01*
X0100266Y0089976D01*
X0100266Y0090370D01*
X0099478Y0091157D01*
X0104250Y0087058D02*
X0156959Y0087058D01*
X0156959Y0086272D02*
X0103465Y0086272D01*
X0102181Y0085486D02*
X0156959Y0085486D01*
X0156959Y0084700D02*
X0100866Y0084700D01*
X0101652Y0083915D02*
X0156959Y0083915D01*
X0156959Y0083129D02*
X0102438Y0083129D01*
X0103224Y0082343D02*
X0156959Y0082343D01*
X0156959Y0081557D02*
X0104009Y0081557D01*
X0104795Y0080771D02*
X0156959Y0080771D01*
X0156959Y0079985D02*
X0105581Y0079985D01*
X0106367Y0079199D02*
X0156959Y0079199D01*
X0156959Y0078413D02*
X0107153Y0078413D01*
X0107939Y0077627D02*
X0156959Y0077627D01*
X0156959Y0076841D02*
X0108725Y0076841D01*
X0109511Y0076055D02*
X0135699Y0076055D01*
X0135699Y0075270D02*
X0110297Y0075270D01*
X0111083Y0074484D02*
X0135699Y0074484D01*
X0135699Y0073698D02*
X0111869Y0073698D01*
X0112655Y0072912D02*
X0135699Y0072912D01*
X0135699Y0072126D02*
X0112667Y0072126D01*
X0112667Y0071340D02*
X0135699Y0071340D01*
X0135108Y0070554D02*
X0134321Y0070554D01*
X0134321Y0069768D02*
X0135108Y0069768D01*
X0135108Y0068982D02*
X0134321Y0068982D01*
X0134321Y0068196D02*
X0135108Y0068196D01*
X0130384Y0068196D02*
X0129596Y0068196D01*
X0129596Y0068982D02*
X0130384Y0068982D01*
X0130384Y0069768D02*
X0129596Y0069768D01*
X0129596Y0070554D02*
X0130384Y0070554D01*
X0111863Y0088402D02*
X0104897Y0088402D01*
X0098769Y0082343D02*
X0084949Y0082343D01*
X0085275Y0081557D02*
X0099555Y0081557D01*
X0100341Y0080771D02*
X0085462Y0080771D01*
X0085462Y0079985D02*
X0101127Y0079985D01*
X0101913Y0079199D02*
X0085462Y0079199D01*
X0085151Y0078413D02*
X0102699Y0078413D01*
X0103485Y0077627D02*
X0084826Y0077627D01*
X0084489Y0083129D02*
X0097983Y0083129D01*
X0097198Y0083915D02*
X0083703Y0083915D01*
X0082311Y0084700D02*
X0096412Y0084700D01*
X0095626Y0085486D02*
X0054317Y0085486D01*
X0054317Y0086039D02*
X0054317Y0087010D01*
X0054222Y0087365D01*
X0054038Y0087683D01*
X0053779Y0087942D01*
X0053461Y0088125D01*
X0053107Y0088220D01*
X0052234Y0088220D01*
X0052234Y0086039D01*
X0052234Y0086039D01*
X0054317Y0086039D01*
X0054317Y0086272D02*
X0094840Y0086272D01*
X0094054Y0087058D02*
X0054304Y0087058D01*
X0053877Y0087844D02*
X0068973Y0087844D01*
X0070738Y0089976D02*
X0061627Y0089976D01*
X0059911Y0091692D01*
X0059911Y0094898D01*
X0063612Y0094917D02*
X0086195Y0094917D01*
X0086981Y0094131D02*
X0063612Y0094131D01*
X0063612Y0093346D02*
X0087767Y0093346D01*
X0088552Y0092560D02*
X0071703Y0092560D01*
X0072838Y0091774D02*
X0089338Y0091774D01*
X0090124Y0090988D02*
X0073302Y0090988D01*
X0073494Y0090202D02*
X0090910Y0090202D01*
X0091696Y0089416D02*
X0073489Y0089416D01*
X0073163Y0088630D02*
X0092482Y0088630D01*
X0093268Y0087844D02*
X0072503Y0087844D01*
X0069773Y0092560D02*
X0063612Y0092560D01*
X0063612Y0091774D02*
X0068638Y0091774D01*
X0063612Y0095703D02*
X0085409Y0095703D01*
X0084623Y0096489D02*
X0063612Y0096489D01*
X0063612Y0097275D02*
X0083837Y0097275D01*
X0090877Y0104348D02*
X0093667Y0104348D01*
X0094453Y0103562D02*
X0091663Y0103562D01*
X0092449Y0102776D02*
X0095239Y0102776D01*
X0092881Y0105134D02*
X0090091Y0105134D01*
X0089305Y0105920D02*
X0092095Y0105920D01*
X0091309Y0106706D02*
X0088519Y0106706D01*
X0087733Y0107492D02*
X0090523Y0107492D01*
X0089737Y0108278D02*
X0086947Y0108278D01*
X0086161Y0109064D02*
X0088951Y0109064D01*
X0088165Y0109850D02*
X0085375Y0109850D01*
X0084590Y0110636D02*
X0087379Y0110636D01*
X0086594Y0111422D02*
X0083804Y0111422D01*
X0083018Y0112207D02*
X0085808Y0112207D01*
X0085022Y0112993D02*
X0082232Y0112993D01*
X0081446Y0113779D02*
X0084236Y0113779D01*
X0084006Y0114565D02*
X0081864Y0114565D01*
X0080974Y0114565D02*
X0080660Y0114565D01*
X0080974Y0115351D02*
X0080187Y0115351D01*
X0080187Y0116137D02*
X0080974Y0116137D01*
X0080974Y0116923D02*
X0080187Y0116923D01*
X0080187Y0117709D02*
X0080974Y0117709D01*
X0080974Y0118495D02*
X0080187Y0118495D01*
X0080187Y0119281D02*
X0071969Y0119281D01*
X0071919Y0118495D02*
X0075583Y0118495D01*
X0075808Y0117709D02*
X0071919Y0117709D01*
X0071919Y0116923D02*
X0076179Y0116923D01*
X0075513Y0120067D02*
X0072132Y0120067D01*
X0072132Y0120852D02*
X0075663Y0120852D01*
X0075951Y0121638D02*
X0072002Y0121638D01*
X0071919Y0122424D02*
X0076406Y0122424D01*
X0077083Y0123210D02*
X0071919Y0123210D01*
X0071702Y0123996D02*
X0078177Y0123996D01*
X0080187Y0123996D02*
X0080974Y0123996D01*
X0080974Y0123210D02*
X0080187Y0123210D01*
X0080187Y0122424D02*
X0080974Y0122424D01*
X0080974Y0121638D02*
X0080187Y0121638D01*
X0080187Y0120852D02*
X0080974Y0120852D01*
X0080974Y0120067D02*
X0080187Y0120067D01*
X0082984Y0123996D02*
X0084006Y0123996D01*
X0084006Y0124782D02*
X0072488Y0124782D01*
X0073274Y0125568D02*
X0084006Y0125568D01*
X0084006Y0126354D02*
X0074060Y0126354D01*
X0074846Y0127140D02*
X0084006Y0127140D01*
X0084006Y0127926D02*
X0075632Y0127926D01*
X0076418Y0128712D02*
X0084006Y0128712D01*
X0084006Y0129498D02*
X0077204Y0129498D01*
X0077262Y0130283D02*
X0084006Y0130283D01*
X0084006Y0131069D02*
X0077262Y0131069D01*
X0077262Y0131855D02*
X0084006Y0131855D01*
X0084006Y0132641D02*
X0077262Y0132641D01*
X0077262Y0133427D02*
X0084006Y0133427D01*
X0084006Y0134213D02*
X0077262Y0134213D01*
X0077262Y0134999D02*
X0084006Y0134999D01*
X0084006Y0135785D02*
X0077262Y0135785D01*
X0077262Y0136571D02*
X0084006Y0136571D01*
X0084006Y0137357D02*
X0077262Y0137357D01*
X0077262Y0138143D02*
X0084006Y0138143D01*
X0084006Y0138928D02*
X0077262Y0138928D01*
X0078293Y0139714D02*
X0082868Y0139714D01*
X0075856Y0143913D02*
X0075581Y0143874D01*
X0068455Y0151000D01*
X0069543Y0152289D02*
X0081618Y0152289D01*
X0080832Y0151503D02*
X0070329Y0151503D01*
X0071115Y0150717D02*
X0080046Y0150717D01*
X0079261Y0149931D02*
X0071901Y0149931D01*
X0072687Y0149145D02*
X0078475Y0149145D01*
X0077689Y0148359D02*
X0077507Y0148359D01*
X0073655Y0148359D02*
X0073473Y0148359D01*
X0071076Y0146002D02*
X0070213Y0146002D01*
X0070301Y0145829D02*
X0069937Y0146544D01*
X0069466Y0147192D01*
X0068899Y0147759D01*
X0068250Y0148231D01*
X0067536Y0148595D01*
X0066773Y0148842D01*
X0065982Y0148968D01*
X0065974Y0148968D01*
X0065974Y0144268D01*
X0065187Y0144268D01*
X0065187Y0148968D01*
X0065180Y0148968D01*
X0064388Y0148842D01*
X0063625Y0148595D01*
X0062911Y0148231D01*
X0062262Y0147759D01*
X0061695Y0147192D01*
X0061224Y0146544D01*
X0060860Y0145829D01*
X0060612Y0145067D01*
X0060487Y0144275D01*
X0060487Y0144268D01*
X0065187Y0144268D01*
X0065187Y0143480D01*
X0065974Y0143480D01*
X0065974Y0138780D01*
X0065982Y0138780D01*
X0066773Y0138906D01*
X0067536Y0139153D01*
X0068250Y0139517D01*
X0068899Y0139989D01*
X0069466Y0140556D01*
X0069937Y0141204D01*
X0070301Y0141919D01*
X0070549Y0142681D01*
X0070674Y0143473D01*
X0070674Y0143480D01*
X0065974Y0143480D01*
X0065974Y0144268D01*
X0070674Y0144268D01*
X0070674Y0144275D01*
X0070549Y0145067D01*
X0070301Y0145829D01*
X0070501Y0145216D02*
X0070853Y0145216D01*
X0070700Y0144430D02*
X0070650Y0144430D01*
X0070700Y0143644D02*
X0065974Y0143644D01*
X0065974Y0144430D02*
X0065187Y0144430D01*
X0065187Y0145216D02*
X0065974Y0145216D01*
X0065974Y0146002D02*
X0065187Y0146002D01*
X0065187Y0146788D02*
X0065974Y0146788D01*
X0065974Y0147573D02*
X0065187Y0147573D01*
X0065187Y0148359D02*
X0065974Y0148359D01*
X0063164Y0148359D02*
X0053531Y0148359D01*
X0053827Y0147573D02*
X0062077Y0147573D01*
X0061401Y0146788D02*
X0053827Y0146788D01*
X0054184Y0146002D02*
X0060948Y0146002D01*
X0060661Y0145216D02*
X0054970Y0145216D01*
X0055756Y0144430D02*
X0060512Y0144430D01*
X0060487Y0143480D02*
X0060487Y0143473D01*
X0060612Y0142681D01*
X0060860Y0141919D01*
X0061224Y0141204D01*
X0061695Y0140556D01*
X0062262Y0139989D01*
X0062911Y0139517D01*
X0063625Y0139153D01*
X0064388Y0138906D01*
X0065180Y0138780D01*
X0065187Y0138780D01*
X0065187Y0143480D01*
X0060487Y0143480D01*
X0060584Y0142858D02*
X0057328Y0142858D01*
X0057549Y0142072D02*
X0060810Y0142072D01*
X0061182Y0141286D02*
X0057549Y0141286D01*
X0057549Y0140500D02*
X0061751Y0140500D01*
X0062640Y0139714D02*
X0057549Y0139714D01*
X0057549Y0138928D02*
X0064318Y0138928D01*
X0065187Y0138928D02*
X0065974Y0138928D01*
X0065974Y0139714D02*
X0065187Y0139714D01*
X0065187Y0140500D02*
X0065974Y0140500D01*
X0065974Y0141286D02*
X0065187Y0141286D01*
X0065187Y0142072D02*
X0065974Y0142072D01*
X0065974Y0142858D02*
X0065187Y0142858D01*
X0065187Y0143644D02*
X0056542Y0143644D01*
X0057549Y0138143D02*
X0073900Y0138143D01*
X0073900Y0138928D02*
X0066843Y0138928D01*
X0068521Y0139714D02*
X0072868Y0139714D01*
X0072052Y0140500D02*
X0069411Y0140500D01*
X0069979Y0141286D02*
X0071369Y0141286D01*
X0071044Y0142072D02*
X0070351Y0142072D01*
X0070577Y0142858D02*
X0070718Y0142858D01*
X0070290Y0146788D02*
X0069760Y0146788D01*
X0069504Y0147573D02*
X0069085Y0147573D01*
X0068718Y0148359D02*
X0067997Y0148359D01*
X0067932Y0149145D02*
X0052959Y0149145D01*
X0057549Y0137357D02*
X0073900Y0137357D01*
X0073900Y0136571D02*
X0057549Y0136571D01*
X0057549Y0135785D02*
X0073900Y0135785D01*
X0073900Y0134999D02*
X0057549Y0134999D01*
X0057549Y0134213D02*
X0073900Y0134213D01*
X0073900Y0133427D02*
X0057549Y0133427D01*
X0038455Y0124228D02*
X0015620Y0147063D01*
X0046132Y0098103D02*
X0046132Y0094898D01*
X0050069Y0094898D02*
X0050069Y0090551D01*
X0050069Y0094898D01*
X0050069Y0094898D01*
X0050069Y0094131D02*
X0050069Y0094131D01*
X0050069Y0093346D02*
X0050069Y0093346D01*
X0050069Y0092560D02*
X0050069Y0092560D01*
X0050069Y0091774D02*
X0050069Y0091774D01*
X0050069Y0090988D02*
X0050069Y0090988D01*
X0049781Y0090202D02*
X0059174Y0090202D01*
X0059960Y0089416D02*
X0049781Y0089416D01*
X0049781Y0088630D02*
X0060746Y0088630D01*
X0060052Y0089324D02*
X0060052Y0089324D01*
X0054214Y0084700D02*
X0078851Y0084700D01*
X0077458Y0083915D02*
X0053439Y0083915D01*
X0054225Y0083129D02*
X0076673Y0083129D01*
X0076212Y0082343D02*
X0055011Y0082343D01*
X0052234Y0086272D02*
X0052234Y0086272D01*
X0052234Y0087058D02*
X0052234Y0087058D01*
X0052234Y0087844D02*
X0052234Y0087844D01*
X0083531Y0115351D02*
X0084006Y0115351D01*
X0108708Y0063481D02*
X0108752Y0063481D01*
X0082171Y0052478D02*
X0135699Y0052478D01*
X0135699Y0051692D02*
X0082171Y0051692D01*
X0082090Y0050906D02*
X0135699Y0050906D01*
X0135699Y0050120D02*
X0082140Y0050120D01*
X0082171Y0049334D02*
X0135699Y0049334D01*
X0135108Y0013968D02*
X0134321Y0013968D01*
X0134321Y0013182D02*
X0135108Y0013182D01*
X0135108Y0012396D02*
X0134321Y0012396D01*
X0134321Y0011611D02*
X0135108Y0011611D01*
X0134321Y0010825D02*
X0130384Y0010825D01*
X0130384Y0011611D02*
X0129596Y0011611D01*
X0129596Y0012396D02*
X0130384Y0012396D01*
X0130384Y0013182D02*
X0129596Y0013182D01*
X0129596Y0013968D02*
X0130384Y0013968D01*
X0129596Y0010825D02*
X0125659Y0010825D01*
X0125659Y0011611D02*
X0124872Y0011611D01*
X0124872Y0010842D02*
X0124872Y0010055D01*
X0122297Y0010055D01*
X0120935Y0010055D01*
X0120935Y0010842D01*
X0124872Y0010842D01*
X0124872Y0010825D02*
X0120935Y0010825D01*
X0120935Y0011611D02*
X0120148Y0011611D01*
X0120148Y0012396D02*
X0120935Y0012396D01*
X0120935Y0013182D02*
X0120148Y0013182D01*
X0120148Y0013968D02*
X0120935Y0013968D01*
X0120148Y0010825D02*
X0116211Y0010825D01*
X0116211Y0011611D02*
X0115423Y0011611D01*
X0115423Y0012396D02*
X0116211Y0012396D01*
X0116211Y0013182D02*
X0115423Y0013182D01*
X0115423Y0013968D02*
X0116211Y0013968D01*
X0116211Y0010039D02*
X0115423Y0010039D01*
X0115423Y0009253D02*
X0116211Y0009253D01*
X0116211Y0008467D02*
X0115423Y0008467D01*
X0115423Y0007681D02*
X0116211Y0007681D01*
X0116211Y0006895D02*
X0115423Y0006895D01*
X0120148Y0006895D02*
X0120935Y0006895D01*
X0120935Y0007681D02*
X0120148Y0007681D01*
X0120148Y0008467D02*
X0120935Y0008467D01*
X0120935Y0009253D02*
X0120148Y0009253D01*
X0120148Y0010039D02*
X0120935Y0010039D01*
X0124872Y0010039D02*
X0125659Y0010039D01*
X0125659Y0009253D02*
X0124872Y0009253D01*
X0124872Y0008467D02*
X0125659Y0008467D01*
X0125659Y0007681D02*
X0124872Y0007681D01*
X0124872Y0006895D02*
X0125659Y0006895D01*
X0129596Y0006895D02*
X0130384Y0006895D01*
X0130384Y0007681D02*
X0129596Y0007681D01*
X0129596Y0008467D02*
X0130384Y0008467D01*
X0130384Y0009253D02*
X0129596Y0009253D01*
X0129596Y0010039D02*
X0130384Y0010039D01*
X0134321Y0010039D02*
X0135108Y0010039D01*
X0135108Y0009253D02*
X0134321Y0009253D01*
X0134321Y0008467D02*
X0135108Y0008467D01*
X0135108Y0007681D02*
X0134321Y0007681D01*
X0134321Y0006895D02*
X0135108Y0006895D01*
X0135699Y0006109D02*
X0097122Y0006109D01*
X0096337Y0005323D02*
X0135699Y0005323D01*
X0135699Y0004537D02*
X0095551Y0004537D01*
X0096329Y0008480D02*
X0096329Y0010055D01*
X0096919Y0010449D01*
X0124872Y0012396D02*
X0125659Y0012396D01*
X0125659Y0013182D02*
X0124872Y0013182D01*
X0124872Y0013968D02*
X0125659Y0013968D01*
X0078022Y0043520D02*
X0076376Y0043819D01*
X0075856Y0043913D01*
X0077431Y0043913D01*
X0078022Y0043520D01*
X0021440Y0038332D02*
X0020482Y0038332D01*
X0020654Y0037546D02*
X0016354Y0037546D01*
X0015568Y0036760D02*
X0019869Y0036760D01*
X0019083Y0035974D02*
X0014782Y0035974D01*
X0013996Y0035188D02*
X0018297Y0035188D01*
X0017511Y0034402D02*
X0013364Y0034402D01*
X0013364Y0033616D02*
X0016725Y0033616D01*
X0015939Y0032830D02*
X0013364Y0032830D01*
X0013364Y0032044D02*
X0015907Y0032044D01*
X0014568Y0031258D02*
X0013364Y0031258D01*
X0013364Y0030472D02*
X0014007Y0030472D01*
X0014007Y0029687D02*
X0013364Y0029687D01*
X0013364Y0028901D02*
X0014007Y0028901D01*
X0014007Y0028115D02*
X0013364Y0028115D01*
X0013364Y0027329D02*
X0014007Y0027329D01*
X0014007Y0026543D02*
X0013364Y0026543D01*
X0013364Y0025757D02*
X0014370Y0025757D01*
X0017589Y0028408D02*
X0017589Y0028953D01*
X0017589Y0040052D02*
X0017589Y0041308D01*
X0004581Y0077627D02*
X0004203Y0077627D01*
X0004203Y0078413D02*
X0004581Y0078413D01*
X0004581Y0079199D02*
X0004203Y0079199D01*
X0004203Y0079985D02*
X0004847Y0079985D01*
X0004625Y0080771D02*
X0004203Y0080771D01*
X0004203Y0081557D02*
X0004581Y0081557D01*
X0004581Y0082343D02*
X0004203Y0082343D01*
X0138652Y0117417D02*
X0138848Y0117929D01*
X0140344Y0118495D02*
X0142305Y0118495D01*
X0143091Y0119281D02*
X0140344Y0119281D01*
X0140333Y0120067D02*
X0143877Y0120067D01*
X0144663Y0120852D02*
X0140333Y0120852D01*
X0140333Y0121638D02*
X0144754Y0121638D01*
X0144921Y0122424D02*
X0139880Y0122424D01*
X0139647Y0123210D02*
X0145350Y0123210D01*
X0146401Y0123996D02*
X0139848Y0123996D01*
X0139848Y0124782D02*
X0156959Y0124782D01*
X0156959Y0123996D02*
X0148619Y0123996D01*
X0149670Y0123210D02*
X0156959Y0123210D01*
X0156959Y0122424D02*
X0150099Y0122424D01*
X0150266Y0121638D02*
X0156959Y0121638D01*
X0156959Y0120852D02*
X0150236Y0120852D01*
X0149910Y0120067D02*
X0156959Y0120067D01*
X0156959Y0119281D02*
X0149215Y0119281D01*
X0147510Y0121472D02*
X0141486Y0115449D01*
X0141486Y0114583D01*
X0141998Y0114780D01*
X0140733Y0116923D02*
X0140344Y0116923D01*
X0140451Y0117709D02*
X0141519Y0117709D01*
X0144401Y0116137D02*
X0145499Y0116137D01*
X0145329Y0115351D02*
X0144222Y0115351D01*
X0144222Y0114565D02*
X0145329Y0114565D01*
X0145363Y0113779D02*
X0144273Y0113779D01*
X0144435Y0112993D02*
X0145541Y0112993D01*
X0147510Y0115351D02*
X0147510Y0115351D01*
X0147510Y0116137D02*
X0147510Y0116137D01*
X0149521Y0116137D02*
X0156959Y0116137D01*
X0156959Y0116923D02*
X0145187Y0116923D01*
X0145973Y0117709D02*
X0156959Y0117709D01*
X0156959Y0118495D02*
X0146759Y0118495D01*
X0149691Y0115351D02*
X0156959Y0115351D01*
X0156959Y0114565D02*
X0149691Y0114565D01*
X0149657Y0113779D02*
X0156959Y0113779D01*
X0156959Y0112993D02*
X0149478Y0112993D01*
X0147510Y0101991D02*
X0147510Y0101991D01*
X0147510Y0101205D02*
X0147510Y0101205D01*
X0137667Y0124782D02*
X0137667Y0124782D01*
X0137667Y0125568D02*
X0137667Y0125568D01*
X0137667Y0126354D02*
X0137667Y0126354D01*
X0139383Y0126354D02*
X0156959Y0126354D01*
X0156959Y0125568D02*
X0139829Y0125568D01*
X0143258Y0144430D02*
X0143258Y0144430D01*
X0143258Y0145216D02*
X0143258Y0145216D01*
X0143258Y0146002D02*
X0143258Y0146002D01*
X0143258Y0146788D02*
X0143258Y0146788D01*
X0143258Y0147573D02*
X0143258Y0147573D01*
X0143258Y0148359D02*
X0143258Y0148359D01*
X0143258Y0149145D02*
X0143258Y0149145D01*
X0143258Y0149931D02*
X0143258Y0149931D01*
D38*
X0147510Y0121472D03*
X0114439Y0107693D03*
X0115226Y0102969D03*
X0070738Y0089976D03*
X0062864Y0086039D03*
X0058448Y0068823D03*
X0070738Y0060449D03*
X0036486Y0086433D03*
X0030187Y0080134D03*
X0027825Y0084071D03*
X0025463Y0093913D03*
X0044360Y0100606D03*
X0041211Y0121472D03*
X0053022Y0121472D03*
X0019557Y0064386D03*
X0008183Y0058249D03*
X0023494Y0046669D03*
X0025463Y0015173D03*
D39*
X0031368Y0023047D02*
X0033337Y0025016D01*
X0033337Y0039973D01*
X0038053Y0044690D01*
X0038053Y0044840D01*
X0048524Y0055311D01*
X0048544Y0055331D01*
X0051053Y0055331D01*
X0050979Y0055404D01*
X0051053Y0055331D02*
X0050659Y0055331D01*
X0053219Y0052772D01*
X0055777Y0052772D01*
X0048978Y0055766D02*
X0048978Y0058915D01*
X0050315Y0060252D01*
X0055777Y0060252D01*
X0048978Y0055766D02*
X0048524Y0055311D01*
X0043502Y0060251D02*
X0040923Y0057672D01*
X0040923Y0051254D01*
X0040169Y0050500D01*
X0035231Y0050500D01*
X0027825Y0043094D01*
X0027825Y0036827D01*
X0027530Y0036827D02*
X0022313Y0036827D01*
X0017589Y0032102D01*
X0017589Y0028953D01*
X0011683Y0025016D02*
X0013652Y0023047D01*
X0031368Y0023047D01*
X0011683Y0025016D02*
X0011683Y0035252D01*
X0017589Y0041157D01*
X0017589Y0041308D01*
X0017589Y0047642D01*
X0019641Y0049694D01*
X0019641Y0055414D01*
X0020738Y0056512D01*
X0020738Y0059661D01*
X0015882Y0059661D01*
X0013889Y0059636D01*
X0009996Y0059636D01*
X0008183Y0058249D01*
X0020738Y0059661D02*
X0023494Y0059661D01*
X0028415Y0059661D01*
X0029006Y0060252D01*
X0030470Y0062811D02*
X0026557Y0066724D01*
X0026557Y0069703D01*
X0028396Y0071541D01*
X0028396Y0072260D01*
X0030470Y0062811D02*
X0032549Y0062811D01*
X0035108Y0060252D01*
X0037667Y0060252D01*
X0043501Y0060252D01*
X0043502Y0060251D01*
X0038053Y0044840D02*
X0038053Y0044690D01*
X0066014Y0060252D02*
X0070541Y0060252D01*
X0066014Y0060252D02*
X0073978Y0052288D01*
X0073978Y0046136D01*
X0074732Y0045382D01*
X0074813Y0045382D01*
X0076376Y0043819D01*
X0076376Y0043301D01*
X0073978Y0040903D01*
X0073978Y0013295D01*
X0071919Y0011236D01*
X0077037Y0006118D01*
X0094754Y0006118D01*
X0096919Y0008283D01*
X0096919Y0010449D01*
X0080581Y0080134D02*
X0054843Y0080134D01*
X0049872Y0085105D01*
X0049872Y0086039D01*
X0048100Y0087811D01*
X0048100Y0094898D01*
X0041211Y0112614D02*
X0034321Y0112614D01*
X0041211Y0112614D02*
X0047215Y0118618D01*
X0047970Y0119374D01*
X0047970Y0128232D01*
X0048100Y0128362D01*
X0047215Y0118618D02*
X0051828Y0118618D01*
X0051836Y0118610D01*
X0054207Y0118610D01*
X0058054Y0122457D01*
X0067785Y0122457D01*
X0075581Y0130252D01*
X0075581Y0143874D01*
X0082707Y0151000D01*
X0116014Y0151000D01*
X0119951Y0147063D01*
X0119951Y0122260D01*
X0137667Y0122260D01*
X0138652Y0121276D01*
X0138652Y0117417D01*
X0119951Y0122260D02*
X0113652Y0115961D01*
X0113652Y0111236D01*
X0113652Y0110953D01*
X0111289Y0108591D01*
X0111289Y0106906D01*
X0111289Y0106795D02*
X0113253Y0104831D01*
X0113364Y0104831D01*
X0115226Y0102969D01*
X0115443Y0102752D01*
X0119951Y0102752D01*
X0113364Y0110555D02*
X0113253Y0110555D01*
X0111289Y0108591D01*
X0113364Y0110555D02*
X0113652Y0110843D01*
X0119951Y0110843D01*
X0113652Y0110843D02*
X0113652Y0111236D01*
X0075856Y0143913D02*
X0075541Y0143913D01*
X0068455Y0151000D01*
X0047116Y0151000D01*
X0045344Y0149228D01*
X0045344Y0141965D01*
X0049085Y0138224D01*
X0025463Y0093913D02*
X0026250Y0093126D01*
X0026250Y0088008D01*
X0028396Y0088008D01*
X0026250Y0088008D02*
X0023494Y0085252D01*
X0020187Y0085252D01*
M02*
