G75*
%MOIN*%
%OFA0B0*%
%FSLAX25Y25*%
%IPPOS*%
%LPD*%
%AMOC8*
5,1,8,0,0,1.08239X$1,22.5*
%
%ADD10C,0.04300*%
%ADD11R,0.06312X0.03162*%
%ADD12R,0.07099X0.05524*%
%ADD13R,0.03950X0.03556*%
%ADD14R,0.02375X0.02178*%
%ADD15R,0.02178X0.02375*%
%ADD16R,0.05600X0.04400*%
%ADD17R,0.01824X0.03910*%
%ADD18R,0.03910X0.01824*%
%ADD19C,0.00039*%
%ADD20C,0.08200*%
%ADD21R,0.01902X0.02493*%
%ADD22R,0.02493X0.01902*%
%ADD23R,0.04737X0.02769*%
%ADD24R,0.05524X0.02965*%
%ADD25R,0.06706X0.01902*%
%ADD26R,0.01902X0.06706*%
%ADD27R,0.03950X0.06312*%
%ADD28R,0.03950X0.05524*%
%ADD29R,0.05524X0.03950*%
%ADD30R,0.06312X0.03950*%
%ADD31R,0.08280X0.10150*%
%ADD32R,0.08280X0.05426*%
%ADD33R,0.09068X0.06607*%
%ADD34R,0.06233X0.02572*%
%ADD35R,0.07887X0.04737*%
%ADD36C,0.03950*%
D10*
X0015620Y0147063D03*
X0033337Y0147063D03*
X0050896Y0147063D03*
X0119951Y0147063D03*
X0143258Y0147220D03*
D11*
X0027530Y0036827D03*
X0027530Y0032890D03*
D12*
X0042490Y0027772D03*
X0042490Y0041945D03*
D13*
X0043502Y0060251D03*
X0043502Y0065763D03*
X0013889Y0059636D03*
X0013889Y0054124D03*
D14*
X0023494Y0057299D03*
X0023494Y0059661D03*
X0051053Y0057693D03*
X0051053Y0055331D03*
X0119951Y0116354D03*
X0119951Y0118717D03*
X0137667Y0122260D03*
X0137667Y0124622D03*
X0147510Y0114780D03*
X0147510Y0112417D03*
X0147510Y0104937D03*
X0147510Y0102575D03*
X0043179Y0136039D03*
X0043179Y0138402D03*
D15*
X0020738Y0129346D03*
X0018376Y0129346D03*
X0018376Y0105724D03*
X0020738Y0105724D03*
X0049872Y0086039D03*
X0052234Y0086039D03*
X0069557Y0011236D03*
X0071919Y0011236D03*
D16*
X0017589Y0028408D03*
X0017589Y0041308D03*
D17*
X0128809Y0101906D03*
X0130778Y0101906D03*
X0132746Y0101906D03*
X0134715Y0101906D03*
X0136683Y0101906D03*
X0138652Y0101906D03*
X0138652Y0117417D03*
X0136683Y0117417D03*
X0134715Y0117417D03*
X0132746Y0117417D03*
X0130778Y0117417D03*
X0128809Y0117417D03*
D18*
X0125974Y0114583D03*
X0125974Y0112614D03*
X0125974Y0110646D03*
X0125974Y0108677D03*
X0125974Y0106709D03*
X0125974Y0104740D03*
X0141486Y0104740D03*
X0141486Y0106709D03*
X0141486Y0108677D03*
X0141486Y0110646D03*
X0141486Y0112614D03*
X0141486Y0114583D03*
D19*
X0139119Y0114280D02*
X0128342Y0114280D01*
X0128344Y0114294D02*
X0128422Y0114484D01*
X0128548Y0114647D01*
X0128711Y0114772D01*
X0128901Y0114851D01*
X0129104Y0114878D01*
X0138356Y0114878D01*
X0138560Y0114851D01*
X0138750Y0114772D01*
X0138913Y0114647D01*
X0139038Y0114484D01*
X0139117Y0114294D01*
X0139144Y0114091D01*
X0128317Y0114091D01*
X0128344Y0114294D01*
X0128354Y0114318D02*
X0139107Y0114318D01*
X0139091Y0114356D02*
X0128369Y0114356D01*
X0128385Y0114394D02*
X0139076Y0114394D01*
X0139060Y0114432D02*
X0128401Y0114432D01*
X0128416Y0114470D02*
X0139044Y0114470D01*
X0139020Y0114508D02*
X0128440Y0114508D01*
X0128469Y0114545D02*
X0138991Y0114545D01*
X0138962Y0114583D02*
X0128498Y0114583D01*
X0128527Y0114621D02*
X0138933Y0114621D01*
X0138898Y0114659D02*
X0128563Y0114659D01*
X0128612Y0114697D02*
X0138848Y0114697D01*
X0138799Y0114735D02*
X0128662Y0114735D01*
X0128711Y0114773D02*
X0138749Y0114773D01*
X0138658Y0114811D02*
X0128803Y0114811D01*
X0128894Y0114848D02*
X0138566Y0114848D01*
X0139124Y0114242D02*
X0128337Y0114242D01*
X0128332Y0114205D02*
X0139129Y0114205D01*
X0139134Y0114167D02*
X0128327Y0114167D01*
X0128322Y0114129D02*
X0139139Y0114129D01*
X0139144Y0114091D02*
X0139144Y0109661D01*
X0139144Y0105232D01*
X0139117Y0105028D01*
X0139038Y0104839D01*
X0138913Y0104676D01*
X0138750Y0104550D01*
X0138560Y0104472D01*
X0138356Y0104445D01*
X0129498Y0104445D01*
X0128317Y0105626D01*
X0128317Y0114091D01*
X0128317Y0114053D02*
X0139144Y0114053D01*
X0139144Y0114015D02*
X0128317Y0114015D01*
X0128317Y0113977D02*
X0139144Y0113977D01*
X0139144Y0113939D02*
X0128317Y0113939D01*
X0128317Y0113901D02*
X0139144Y0113901D01*
X0139144Y0113864D02*
X0128317Y0113864D01*
X0128317Y0113826D02*
X0139144Y0113826D01*
X0139144Y0113788D02*
X0128317Y0113788D01*
X0128317Y0113750D02*
X0139144Y0113750D01*
X0139144Y0113712D02*
X0128317Y0113712D01*
X0128317Y0113674D02*
X0139144Y0113674D01*
X0139144Y0113636D02*
X0128317Y0113636D01*
X0128317Y0113598D02*
X0139144Y0113598D01*
X0139144Y0113561D02*
X0128317Y0113561D01*
X0128317Y0113523D02*
X0139144Y0113523D01*
X0139144Y0113485D02*
X0128317Y0113485D01*
X0128317Y0113447D02*
X0139144Y0113447D01*
X0139144Y0113409D02*
X0128317Y0113409D01*
X0128317Y0113371D02*
X0139144Y0113371D01*
X0139144Y0113333D02*
X0128317Y0113333D01*
X0128317Y0113295D02*
X0139144Y0113295D01*
X0139144Y0113257D02*
X0128317Y0113257D01*
X0128317Y0113220D02*
X0139144Y0113220D01*
X0139144Y0113182D02*
X0128317Y0113182D01*
X0128317Y0113144D02*
X0139144Y0113144D01*
X0139144Y0113106D02*
X0128317Y0113106D01*
X0128317Y0113068D02*
X0139144Y0113068D01*
X0139144Y0113030D02*
X0128317Y0113030D01*
X0128317Y0112992D02*
X0139144Y0112992D01*
X0139144Y0112954D02*
X0128317Y0112954D01*
X0128317Y0112917D02*
X0139144Y0112917D01*
X0139144Y0112879D02*
X0128317Y0112879D01*
X0128317Y0112841D02*
X0139144Y0112841D01*
X0139144Y0112803D02*
X0128317Y0112803D01*
X0128317Y0112765D02*
X0139144Y0112765D01*
X0139144Y0112727D02*
X0128317Y0112727D01*
X0128317Y0112689D02*
X0139144Y0112689D01*
X0139144Y0112651D02*
X0128317Y0112651D01*
X0128317Y0112613D02*
X0139144Y0112613D01*
X0139144Y0112576D02*
X0128317Y0112576D01*
X0128317Y0112538D02*
X0139144Y0112538D01*
X0139144Y0112500D02*
X0128317Y0112500D01*
X0128317Y0112462D02*
X0139144Y0112462D01*
X0139144Y0112424D02*
X0128317Y0112424D01*
X0128317Y0112386D02*
X0139144Y0112386D01*
X0139144Y0112348D02*
X0128317Y0112348D01*
X0128317Y0112310D02*
X0139144Y0112310D01*
X0139144Y0112273D02*
X0128317Y0112273D01*
X0128317Y0112235D02*
X0139144Y0112235D01*
X0139144Y0112197D02*
X0128317Y0112197D01*
X0128317Y0112159D02*
X0139144Y0112159D01*
X0139144Y0112121D02*
X0128317Y0112121D01*
X0128317Y0112083D02*
X0139144Y0112083D01*
X0139144Y0112045D02*
X0128317Y0112045D01*
X0128317Y0112007D02*
X0139144Y0112007D01*
X0139144Y0111970D02*
X0128317Y0111970D01*
X0128317Y0111932D02*
X0139144Y0111932D01*
X0139144Y0111894D02*
X0128317Y0111894D01*
X0128317Y0111856D02*
X0139144Y0111856D01*
X0139144Y0111818D02*
X0128317Y0111818D01*
X0128317Y0111780D02*
X0139144Y0111780D01*
X0139144Y0111742D02*
X0128317Y0111742D01*
X0128317Y0111704D02*
X0139144Y0111704D01*
X0139144Y0111666D02*
X0128317Y0111666D01*
X0128317Y0111629D02*
X0139144Y0111629D01*
X0139144Y0111591D02*
X0128317Y0111591D01*
X0128317Y0111553D02*
X0139144Y0111553D01*
X0139144Y0111515D02*
X0128317Y0111515D01*
X0128317Y0111477D02*
X0139144Y0111477D01*
X0139144Y0111439D02*
X0128317Y0111439D01*
X0128317Y0111401D02*
X0139144Y0111401D01*
X0139144Y0111363D02*
X0128317Y0111363D01*
X0128317Y0111326D02*
X0139144Y0111326D01*
X0139144Y0111288D02*
X0128317Y0111288D01*
X0128317Y0111250D02*
X0139144Y0111250D01*
X0139144Y0111212D02*
X0128317Y0111212D01*
X0128317Y0111174D02*
X0139144Y0111174D01*
X0139144Y0111136D02*
X0128317Y0111136D01*
X0128317Y0111098D02*
X0139144Y0111098D01*
X0139144Y0111060D02*
X0128317Y0111060D01*
X0128317Y0111022D02*
X0139144Y0111022D01*
X0139144Y0110985D02*
X0128317Y0110985D01*
X0128317Y0110947D02*
X0139144Y0110947D01*
X0139144Y0110909D02*
X0128317Y0110909D01*
X0128317Y0110871D02*
X0139144Y0110871D01*
X0139144Y0110833D02*
X0128317Y0110833D01*
X0128317Y0110795D02*
X0139144Y0110795D01*
X0139144Y0110757D02*
X0128317Y0110757D01*
X0128317Y0110719D02*
X0139144Y0110719D01*
X0139144Y0110682D02*
X0128317Y0110682D01*
X0128317Y0110644D02*
X0139144Y0110644D01*
X0139144Y0110606D02*
X0128317Y0110606D01*
X0128317Y0110568D02*
X0139144Y0110568D01*
X0139144Y0110530D02*
X0128317Y0110530D01*
X0128317Y0110492D02*
X0139144Y0110492D01*
X0139144Y0110454D02*
X0128317Y0110454D01*
X0128317Y0110416D02*
X0139144Y0110416D01*
X0139144Y0110378D02*
X0128317Y0110378D01*
X0128317Y0110341D02*
X0139144Y0110341D01*
X0139144Y0110303D02*
X0128317Y0110303D01*
X0128317Y0110265D02*
X0139144Y0110265D01*
X0139144Y0110227D02*
X0128317Y0110227D01*
X0128317Y0110189D02*
X0139144Y0110189D01*
X0139144Y0110151D02*
X0128317Y0110151D01*
X0128317Y0110113D02*
X0139144Y0110113D01*
X0139144Y0110075D02*
X0128317Y0110075D01*
X0128317Y0110038D02*
X0139144Y0110038D01*
X0139144Y0110000D02*
X0128317Y0110000D01*
X0128317Y0109962D02*
X0139144Y0109962D01*
X0139144Y0109924D02*
X0128317Y0109924D01*
X0128317Y0109886D02*
X0139144Y0109886D01*
X0139144Y0109848D02*
X0128317Y0109848D01*
X0128317Y0109810D02*
X0139144Y0109810D01*
X0139144Y0109772D02*
X0128317Y0109772D01*
X0128317Y0109734D02*
X0139144Y0109734D01*
X0139144Y0109697D02*
X0128317Y0109697D01*
X0128317Y0109659D02*
X0139144Y0109659D01*
X0139144Y0109621D02*
X0128317Y0109621D01*
X0128317Y0109583D02*
X0139144Y0109583D01*
X0139144Y0109545D02*
X0128317Y0109545D01*
X0128317Y0109507D02*
X0139144Y0109507D01*
X0139144Y0109469D02*
X0128317Y0109469D01*
X0128317Y0109431D02*
X0139144Y0109431D01*
X0139144Y0109394D02*
X0128317Y0109394D01*
X0128317Y0109356D02*
X0139144Y0109356D01*
X0139144Y0109318D02*
X0128317Y0109318D01*
X0128317Y0109280D02*
X0139144Y0109280D01*
X0139144Y0109242D02*
X0128317Y0109242D01*
X0128317Y0109204D02*
X0139144Y0109204D01*
X0139144Y0109166D02*
X0128317Y0109166D01*
X0128317Y0109128D02*
X0139144Y0109128D01*
X0139144Y0109091D02*
X0128317Y0109091D01*
X0128317Y0109053D02*
X0139144Y0109053D01*
X0139144Y0109015D02*
X0128317Y0109015D01*
X0128317Y0108977D02*
X0139144Y0108977D01*
X0139144Y0108939D02*
X0128317Y0108939D01*
X0128317Y0108901D02*
X0139144Y0108901D01*
X0139144Y0108863D02*
X0128317Y0108863D01*
X0128317Y0108825D02*
X0139144Y0108825D01*
X0139144Y0108787D02*
X0128317Y0108787D01*
X0128317Y0108750D02*
X0139144Y0108750D01*
X0139144Y0108712D02*
X0128317Y0108712D01*
X0128317Y0108674D02*
X0139144Y0108674D01*
X0139144Y0108636D02*
X0128317Y0108636D01*
X0128317Y0108598D02*
X0139144Y0108598D01*
X0139144Y0108560D02*
X0128317Y0108560D01*
X0128317Y0108522D02*
X0139144Y0108522D01*
X0139144Y0108484D02*
X0128317Y0108484D01*
X0128317Y0108447D02*
X0139144Y0108447D01*
X0139144Y0108409D02*
X0128317Y0108409D01*
X0128317Y0108371D02*
X0139144Y0108371D01*
X0139144Y0108333D02*
X0128317Y0108333D01*
X0128317Y0108295D02*
X0139144Y0108295D01*
X0139144Y0108257D02*
X0128317Y0108257D01*
X0128317Y0108219D02*
X0139144Y0108219D01*
X0139144Y0108181D02*
X0128317Y0108181D01*
X0128317Y0108143D02*
X0139144Y0108143D01*
X0139144Y0108106D02*
X0128317Y0108106D01*
X0128317Y0108068D02*
X0139144Y0108068D01*
X0139144Y0108030D02*
X0128317Y0108030D01*
X0128317Y0107992D02*
X0139144Y0107992D01*
X0139144Y0107954D02*
X0128317Y0107954D01*
X0128317Y0107916D02*
X0139144Y0107916D01*
X0139144Y0107878D02*
X0128317Y0107878D01*
X0128317Y0107840D02*
X0139144Y0107840D01*
X0139144Y0107803D02*
X0128317Y0107803D01*
X0128317Y0107765D02*
X0139144Y0107765D01*
X0139144Y0107727D02*
X0128317Y0107727D01*
X0128317Y0107689D02*
X0139144Y0107689D01*
X0139144Y0107651D02*
X0128317Y0107651D01*
X0128317Y0107613D02*
X0139144Y0107613D01*
X0139144Y0107575D02*
X0128317Y0107575D01*
X0128317Y0107537D02*
X0139144Y0107537D01*
X0139144Y0107499D02*
X0128317Y0107499D01*
X0128317Y0107462D02*
X0139144Y0107462D01*
X0139144Y0107424D02*
X0128317Y0107424D01*
X0128317Y0107386D02*
X0139144Y0107386D01*
X0139144Y0107348D02*
X0128317Y0107348D01*
X0128317Y0107310D02*
X0139144Y0107310D01*
X0139144Y0107272D02*
X0128317Y0107272D01*
X0128317Y0107234D02*
X0139144Y0107234D01*
X0139144Y0107196D02*
X0128317Y0107196D01*
X0128317Y0107159D02*
X0139144Y0107159D01*
X0139144Y0107121D02*
X0128317Y0107121D01*
X0128317Y0107083D02*
X0139144Y0107083D01*
X0139144Y0107045D02*
X0128317Y0107045D01*
X0128317Y0107007D02*
X0139144Y0107007D01*
X0139144Y0106969D02*
X0128317Y0106969D01*
X0128317Y0106931D02*
X0139144Y0106931D01*
X0139144Y0106893D02*
X0128317Y0106893D01*
X0128317Y0106856D02*
X0139144Y0106856D01*
X0139144Y0106818D02*
X0128317Y0106818D01*
X0128317Y0106780D02*
X0139144Y0106780D01*
X0139144Y0106742D02*
X0128317Y0106742D01*
X0128317Y0106704D02*
X0139144Y0106704D01*
X0139144Y0106666D02*
X0128317Y0106666D01*
X0128317Y0106628D02*
X0139144Y0106628D01*
X0139144Y0106590D02*
X0128317Y0106590D01*
X0128317Y0106552D02*
X0139144Y0106552D01*
X0139144Y0106515D02*
X0128317Y0106515D01*
X0128317Y0106477D02*
X0139144Y0106477D01*
X0139144Y0106439D02*
X0128317Y0106439D01*
X0128317Y0106401D02*
X0139144Y0106401D01*
X0139144Y0106363D02*
X0128317Y0106363D01*
X0128317Y0106325D02*
X0139144Y0106325D01*
X0139144Y0106287D02*
X0128317Y0106287D01*
X0128317Y0106249D02*
X0139144Y0106249D01*
X0139144Y0106212D02*
X0128317Y0106212D01*
X0128317Y0106174D02*
X0139144Y0106174D01*
X0139144Y0106136D02*
X0128317Y0106136D01*
X0128317Y0106098D02*
X0139144Y0106098D01*
X0139144Y0106060D02*
X0128317Y0106060D01*
X0128317Y0106022D02*
X0139144Y0106022D01*
X0139144Y0105984D02*
X0128317Y0105984D01*
X0128317Y0105946D02*
X0139144Y0105946D01*
X0139144Y0105908D02*
X0128317Y0105908D01*
X0128317Y0105871D02*
X0139144Y0105871D01*
X0139144Y0105833D02*
X0128317Y0105833D01*
X0128317Y0105795D02*
X0139144Y0105795D01*
X0139144Y0105757D02*
X0128317Y0105757D01*
X0128317Y0105719D02*
X0139144Y0105719D01*
X0139144Y0105681D02*
X0128317Y0105681D01*
X0128317Y0105643D02*
X0139144Y0105643D01*
X0139144Y0105605D02*
X0128337Y0105605D01*
X0128375Y0105568D02*
X0139144Y0105568D01*
X0139144Y0105530D02*
X0128413Y0105530D01*
X0128451Y0105492D02*
X0139144Y0105492D01*
X0139144Y0105454D02*
X0128489Y0105454D01*
X0128527Y0105416D02*
X0139144Y0105416D01*
X0139144Y0105378D02*
X0128565Y0105378D01*
X0128603Y0105340D02*
X0139144Y0105340D01*
X0139144Y0105302D02*
X0128641Y0105302D01*
X0128678Y0105264D02*
X0139144Y0105264D01*
X0139143Y0105227D02*
X0128716Y0105227D01*
X0128754Y0105189D02*
X0139138Y0105189D01*
X0139133Y0105151D02*
X0128792Y0105151D01*
X0128830Y0105113D02*
X0139128Y0105113D01*
X0139123Y0105075D02*
X0128868Y0105075D01*
X0128906Y0105037D02*
X0139118Y0105037D01*
X0139105Y0104999D02*
X0128944Y0104999D01*
X0128981Y0104961D02*
X0139089Y0104961D01*
X0139073Y0104924D02*
X0129019Y0104924D01*
X0129057Y0104886D02*
X0139058Y0104886D01*
X0139042Y0104848D02*
X0129095Y0104848D01*
X0129133Y0104810D02*
X0139016Y0104810D01*
X0138987Y0104772D02*
X0129171Y0104772D01*
X0129209Y0104734D02*
X0138958Y0104734D01*
X0138929Y0104696D02*
X0129247Y0104696D01*
X0129285Y0104658D02*
X0138891Y0104658D01*
X0138841Y0104621D02*
X0129322Y0104621D01*
X0129360Y0104583D02*
X0138792Y0104583D01*
X0138736Y0104545D02*
X0129398Y0104545D01*
X0129436Y0104507D02*
X0138645Y0104507D01*
X0138539Y0104469D02*
X0129474Y0104469D01*
D20*
X0100266Y0099976D03*
X0100266Y0089976D03*
X0080581Y0080134D03*
X0080581Y0119504D03*
X0085581Y0143874D03*
X0095581Y0143874D03*
X0075581Y0143874D03*
X0065581Y0143874D03*
D21*
X0030404Y0091945D03*
X0028396Y0091945D03*
X0028396Y0088008D03*
X0030404Y0088008D03*
X0030404Y0072260D03*
X0028396Y0072260D03*
X0030364Y0068323D03*
X0032372Y0068323D03*
X0024498Y0052575D03*
X0022490Y0052575D03*
D22*
X0049085Y0136217D03*
X0049085Y0138224D03*
X0119951Y0110665D03*
X0119951Y0108657D03*
X0119951Y0104760D03*
X0119951Y0102752D03*
D23*
X0037667Y0060252D03*
X0037667Y0056512D03*
X0037667Y0052772D03*
X0029006Y0052772D03*
X0029006Y0060252D03*
D24*
X0055777Y0060252D03*
X0055777Y0056512D03*
X0055777Y0052772D03*
X0066014Y0052772D03*
X0066014Y0060252D03*
D25*
X0067785Y0100803D03*
X0067785Y0102772D03*
X0067785Y0104740D03*
X0067785Y0106709D03*
X0067785Y0108677D03*
X0067785Y0110646D03*
X0067785Y0112614D03*
X0067785Y0114583D03*
X0067785Y0116551D03*
X0067785Y0118520D03*
X0067785Y0120488D03*
X0067785Y0122457D03*
X0034321Y0122457D03*
X0034321Y0120488D03*
X0034321Y0118520D03*
X0034321Y0116551D03*
X0034321Y0114583D03*
X0034321Y0112614D03*
X0034321Y0110646D03*
X0034321Y0108677D03*
X0034321Y0106709D03*
X0034321Y0104740D03*
X0034321Y0102772D03*
X0034321Y0100803D03*
D26*
X0040226Y0094898D03*
X0042195Y0094898D03*
X0044163Y0094898D03*
X0046132Y0094898D03*
X0048100Y0094898D03*
X0050069Y0094898D03*
X0052037Y0094898D03*
X0054006Y0094898D03*
X0055974Y0094898D03*
X0057943Y0094898D03*
X0059911Y0094898D03*
X0061880Y0094898D03*
X0061880Y0128362D03*
X0059911Y0128362D03*
X0057943Y0128362D03*
X0055974Y0128362D03*
X0054006Y0128362D03*
X0052037Y0128362D03*
X0050069Y0128362D03*
X0048100Y0128362D03*
X0046132Y0128362D03*
X0044163Y0128362D03*
X0042195Y0128362D03*
X0040226Y0128362D03*
D27*
X0087470Y0067142D03*
X0092195Y0067142D03*
X0096919Y0067142D03*
X0101644Y0067142D03*
X0106368Y0067142D03*
X0111093Y0067142D03*
X0115817Y0067142D03*
X0120541Y0067142D03*
X0125266Y0067142D03*
X0129990Y0067142D03*
X0134715Y0067142D03*
X0134715Y0010449D03*
X0129990Y0010449D03*
X0125266Y0010449D03*
X0120541Y0010449D03*
X0115817Y0010449D03*
X0111093Y0010449D03*
X0106368Y0010449D03*
X0101644Y0010449D03*
X0096919Y0010449D03*
X0092195Y0010449D03*
X0087470Y0010449D03*
D28*
X0082746Y0010055D03*
X0082746Y0067535D03*
D29*
X0077628Y0062417D03*
X0077628Y0015173D03*
D30*
X0078022Y0019898D03*
X0078022Y0024622D03*
X0078022Y0029346D03*
X0078022Y0034071D03*
X0078022Y0038795D03*
X0078022Y0043520D03*
X0078022Y0048244D03*
X0078022Y0052969D03*
X0078022Y0057693D03*
D31*
X0009715Y0068667D03*
X0009715Y0091600D03*
D32*
X0009715Y0083431D03*
X0009715Y0076837D03*
D33*
X0018770Y0070439D03*
X0018770Y0089829D03*
D34*
X0020187Y0085252D03*
X0020187Y0082693D03*
X0020187Y0080134D03*
X0020187Y0077575D03*
X0020187Y0075016D03*
D35*
X0019557Y0112614D03*
X0019557Y0122457D03*
D36*
X0025463Y0015173D03*
X0023494Y0046669D03*
X0008183Y0058249D03*
X0019557Y0064386D03*
X0030187Y0080134D03*
X0027825Y0084071D03*
X0036486Y0086433D03*
X0025463Y0093913D03*
X0044360Y0100606D03*
X0062864Y0086039D03*
X0070738Y0089976D03*
X0058448Y0068823D03*
X0070738Y0060449D03*
X0115226Y0102969D03*
X0114439Y0107693D03*
X0147510Y0121472D03*
X0053022Y0121472D03*
X0041211Y0121472D03*
M02*
