%
M48
M72
T01C0.01500
T02C0.01575
T03C0.04000
%
T01
X15620Y147063
X33337Y147063
X50896Y147063
X119951Y147063
X143258Y147220
T02
X25463Y15173
X23494Y46669
X8183Y58249
X19557Y64386
X30187Y80134
X27825Y84071
X36486Y86433
X25463Y93913
X44360Y100606
X62864Y86039
X70738Y89976
X58448Y68823
X70738Y60449
X115226Y102969
X114439Y107693
X147510Y121472
X53022Y121472
X41211Y121472
T03
X65581Y143874
X75581Y143874
X85581Y143874
X95581Y143874
X80581Y119504
X100266Y99976
X100266Y89976
X80581Y80134
M30
