#define steps_width 10
#define steps_height 10
static unsigned char steps_bits[] = {
   0x00, 0x00, 0x00, 0x00, 0x00, 0x00, 0x00, 0x00, 0xf0, 0x00, 0xfc, 0x00,
   0xfe, 0x01, 0x90, 0x00, 0x00, 0x00, 0x00, 0x00 };
