#define battmed_width 10
#define battmed_height 10
static unsigned char battmed_bits[] = {
   0x00, 0x00, 0x00, 0x00, 0xff, 0x01, 0x1f, 0x03, 0x1f, 0x03, 0x1f, 0x03,
   0x1f, 0x03, 0xff, 0x01, 0x00, 0x00, 0x00, 0x00 };
