#define batthigh_width 10
#define batthigh_height 10
static unsigned char batthigh_bits[] = {
   0x00, 0x00, 0x00, 0x00, 0xff, 0x01, 0xff, 0x03, 0xff, 0x03, 0xff, 0x03,
   0xff, 0x03, 0xff, 0x01, 0x00, 0x00, 0x00, 0x00 };
