#define battlow_width 10
#define battlow_height 10
static unsigned char battlow_bits[] = {
   0x00, 0x00, 0x00, 0x00, 0xff, 0x01, 0x01, 0x03, 0x01, 0x03, 0x01, 0x03,
   0x01, 0x03, 0xff, 0x01, 0x00, 0x00, 0x00, 0x00 };
