#define BT_width 10
#define BT_height 10
static unsigned char BT_bits[] = {
   0x20, 0x00, 0x70, 0x00, 0xec, 0x00, 0xf8, 0x00, 0x70, 0x00, 0x70, 0x00,
   0xf8, 0x00, 0xec, 0x00, 0x70, 0x00, 0x20, 0x00 };
