#define heart_width 10
#define heart_height 10
static unsigned char heart_bits[] = {
   0xce, 0x01, 0xff, 0x03, 0xff, 0x03, 0xff, 0x03, 0xff, 0x03, 0xfe, 0x01,
   0xfc, 0x00, 0x78, 0x00, 0x30, 0x00, 0x20, 0x00 };
